<?xml version="1.0" encoding="utf-8"?>
<!-- Generator: Adobe Illustrator 18.0.0, SVG Export Plug-In . SVG Version: 6.00 Build 0)  -->
<!DOCTYPE svg PUBLIC "-//W3C//DTD SVG 1.1//EN" "http://www.w3.org/Graphics/SVG/1.1/DTD/svg11.dtd">
<svg version="1.1" id="Layer_1" xmlns="http://www.w3.org/2000/svg" xmlns:xlink="http://www.w3.org/1999/xlink" x="0px" y="0px"
	 viewBox="0 0 250 250" enable-background="new 0 0 250 250" xml:space="preserve">
<g>
	<path fill="#202221" d="M226.8,249H25.4C12,249,1.1,238.1,1.1,224.7V23.3C1.1,9.9,12-1,25.4-1h201.5c13.4,0,24.3,10.9,24.3,24.3
		v201.5C251.1,238.1,240.3,249,226.8,249z"/>
	<path fill="#020202" d="M227,90.2L184.3,98H63.1l-22.7,11.5l-15.3,38.1L106.9,249H227c13.4,0,24-10.9,24-24.3v-98.4L227,90.2z"/>
	<g>
		<path fill="#951B1E" d="M216.5,154.2H201c-6.6,0-12-5.4-12-12V95.8c0-6.6,5.4-12,12-12h15.4c6.6,0,12,5.4,12,12v46.4
			C228.5,148.8,223.1,154.2,216.5,154.2z"/>
		<path fill="#951B1E" d="M51.2,154.2H35.8c-6.6,0-12-5.4-12-12V95.8c0-6.6,5.4-12,12-12h15.4c6.6,0,12,5.4,12,12v46.4
			C63.2,148.8,57.8,154.2,51.2,154.2z"/>
		<rect x="63.2" y="105.2" fill="#951B1E" width="125.8" height="4.3"/>
		<rect x="63.2" y="92.3" fill="#B62925" width="125.8" height="10.7"/>
		<rect x="63.2" y="113.2" fill="#B62925" width="125.8" height="22.8"/>
		<rect x="78.8" y="91.8" fill="#DB5726" width="30.9" height="12.8"/>
		<rect x="78.8" y="90" fill="#0071BC" width="7.3" height="1.4"/>
		<rect x="86.7" y="90" fill="#9E005D" width="7.3" height="1.4"/>
		<rect x="94.6" y="90" fill="#F9C116" width="7.3" height="1.4"/>
		<rect x="102.5" y="90" fill="#020202" width="7.3" height="1.4"/>
		<path fill="#9B9BA8" d="M182.4,146.5l7.9,17.7H58.2L70,146.5v-36.9c0,0,1.4-4.3,7.1-4.3c5.6,0,89.8,0,96.9,0s8.5,4.3,8.5,4.3
			V146.5z"/>
		<rect x="79.3" y="92.5" fill="#F07520" width="29.9" height="2.3"/>
		<rect x="70" y="145.1" fill="#848491" width="112.4" height="1.3"/>
		<rect x="70" y="143.7" fill="#7B7B84" width="112.4" height="1.3"/>
		<polygon fill="#898899" points="58.2,164 70,146.4 182.4,146.4 190.3,164 		"/>
	</g>
</g>
</svg>
