<?xml version="1.0" encoding="utf-8"?>
<!-- Generator: Adobe Illustrator 18.0.0, SVG Export Plug-In . SVG Version: 6.00 Build 0)  -->
<!DOCTYPE svg PUBLIC "-//W3C//DTD SVG 1.1//EN" "http://www.w3.org/Graphics/SVG/1.1/DTD/svg11.dtd">
<svg version="1.1" id="Layer_1" xmlns="http://www.w3.org/2000/svg" xmlns:xlink="http://www.w3.org/1999/xlink" x="0px" y="0px"
	 viewBox="0 0 250 250" enable-background="new 0 0 250 250" xml:space="preserve">
<g>
	<path fill="#FED641" d="M226.7,249H25.3C11.9,249,1,238.1,1,224.7V23.3C1,9.9,11.9-1,25.3-1h201.5C240.1-1,251,9.9,251,23.3v201.5
		C251,238.1,240.1,249,226.7,249z"/>
	<path fill="#F5AF1A" d="M178,65.9l-64.9,5.4L90.5,96.4l20,22.3l-42,63.7l74.6,66.6h83.7c13.4,0,24.2-10.9,24.2-24.3v-81.1L178,65.9
		z"/>
	<path fill="#37363B" d="M153.7,176.8h-0.6c-4.8,7.5-11.3,13-19.3,16.3c-8,3.3-16.5,4.9-25.4,4.9c-6.6,0-12.9-0.9-19-2.8
		c-6.1-1.8-11.5-4.6-16.1-8.3c-4.6-3.7-8.3-8.2-11-13.6c-2.7-5.4-4.1-11.7-4.1-18.9c0-8.1,1.5-15,4.5-20.6c3-5.6,7.1-10.3,12.2-13.9
		c5.1-3.7,11-6.5,17.6-8.6c6.6-2,13.4-3.5,20.5-4.5c7.1-1,14.1-1.5,21.2-1.7c7.1-0.2,13.6-0.3,19.6-0.3c0-7.7-2.8-13.9-8.3-18.4
		c-5.5-4.5-12-6.8-19.6-6.8c-7.2,0-13.7,1.5-19.6,4.5c-5.9,3-11.2,7.1-15.8,12.3L67.2,72.6c8.1-7.5,17.6-13.2,28.4-17
		c10.8-3.8,22.1-5.7,33.7-5.7c12.8,0,23.3,1.6,31.5,4.8c8.2,3.2,14.8,7.9,19.7,14.1c4.9,6.2,8.4,13.8,10.3,22.8
		c1.9,9,2.9,19.4,2.9,31.2v71.7h-40.1V176.8z M143,132.7c-3.3,0-7.4,0.1-12.3,0.4c-4.9,0.3-9.7,1.1-14.2,2.5
		c-4.5,1.4-8.4,3.4-11.6,6.1c-3.2,2.7-4.8,6.5-4.8,11.3c0,5.2,2.2,9.1,6.7,11.6c4.4,2.5,9.1,3.8,13.9,3.8c4.3,0,8.4-0.6,12.3-1.7
		c4-1.2,7.5-2.8,10.6-4.9c3.1-2.1,5.6-4.8,7.4-8.1c1.8-3.3,2.8-7.2,2.8-11.6v-9.3H143z"/>
	<path fill="#6B6B70" d="M107.7,193.7c-6.3,0-12.4-0.9-18.1-2.6c-5.7-1.7-10.8-4.3-15.1-7.8c-4.3-3.4-7.7-7.6-10.2-12.6
		c-2.5-5-3.7-10.9-3.7-17.5c0-7.6,1.4-14,4.1-19.2c2.8-5.2,6.6-9.5,11.3-12.9c4.8-3.5,10.5-6.2,16.7-8.1c6.4-2,13.1-3.4,20-4.4
		c6.9-0.9,13.9-1.3,20.9-1.5c7.2-0.2,13.6-0.1,19.5-0.1h3.1v-3.4c0-8.6-3.2-15.6-9.4-20.7c-6-5-13.3-7.5-21.5-7.5
		c-7.6,0-14.7,1.6-21,4.8c-5.3,2.7-10.2,6.3-14.5,10.7L70.8,71.5c7.3-6.2,15.7-11,25.1-14.3c10.5-3.6,21.5-5.5,32.7-5.5
		c12.3,0,22.6,1.5,30.4,4.6c7.7,3,13.9,7.4,18.5,13.2c4.6,5.8,7.9,13,9.7,21.5c1.9,8.8,2.8,19,2.8,30.6V191h-34v-18h-5.3l-0.9,1.2
		c-4.5,7-10.5,11.9-17.9,15C124.3,192.3,116.1,193.7,107.7,193.7z M142.2,129c-3.3,0-7.5-0.1-12.5,0.2c-5.1,0.3-10.1,1-14.9,2.4
		c-4.9,1.5-9.2,3.6-12.7,6.6c-3.9,3.3-5.8,7.8-5.8,13.6c0,6.3,2.8,11.2,8.2,14.2c4.9,2.8,10.1,4.2,15.4,4.2c4.5,0,9-0.6,13.2-1.9
		c4.3-1.2,8.1-3,11.5-5.3c3.5-2.4,6.3-5.5,8.3-9.1c2.1-3.7,3.2-8.1,3.2-13.1V129H142.2z"/>
</g>
</svg>
