<?xml version="1.0" encoding="utf-8"?>
<!-- Generator: Adobe Illustrator 18.0.0, SVG Export Plug-In . SVG Version: 6.00 Build 0)  -->
<!DOCTYPE svg PUBLIC "-//W3C//DTD SVG 1.1//EN" "http://www.w3.org/Graphics/SVG/1.1/DTD/svg11.dtd">
<svg version="1.1" id="Layer_1" xmlns="http://www.w3.org/2000/svg" xmlns:xlink="http://www.w3.org/1999/xlink" x="0px" y="0px"
	 viewBox="0 0 250 250" enable-background="new 0 0 250 250" xml:space="preserve">
<g>
	<path fill="#B62925" d="M226.1,249H24.7c-13.4,0-24.3-10.9-24.3-24.3V23.3C0.4,9.9,11.3-1,24.7-1h201.5c13.4,0,24.3,10.9,24.3,24.3
		v201.5C250.4,238.1,239.5,249,226.1,249z"/>
	<path fill="#951B1E" d="M202.3,92.4L48.9,138.3L131,249h95.6c13.4,0,23.3-10.9,23.3-24.3v-82.4L202.3,92.4z"/>
	<g>
		<polygon fill="#F5AF1A" points="202.3,165.5 59.1,132.1 59.1,47.7 202.3,92.4 		"/>
		<polygon fill="#FED641" points="202.3,165.5 59.1,132.1 59.1,47.7 48.5,54.8 48.5,138.2 186.4,168.3 		"/>
		<polygon fill="#FED641" points="202.3,165.5 59.1,132.1 59.1,47.7 48.5,54.8 48.5,138.2 186.4,168.3 		"/>
		<polygon fill="#E26C25" points="202.3,165.5 59.1,132.2 48.5,138.3 186.4,168.4 		"/>
		<path fill="#F5AF1A" d="M133.4,249h-11.9v-97c0,0,2.2-2,7.1-0.9c4.9,1.1,4.9,3.6,4.9,3.6V249z"/>
		<polygon fill="#FED641" points="131,249 129.4,249 129.4,154.8 131,154.8 		"/>
		<polygon fill="#E26C25" points="63,52.1 200,94.6 200,160.7 63,129.6 		"/>
	</g>
</g>
</svg>
