<?xml version="1.0" encoding="utf-8"?>
<!-- Generator: Adobe Illustrator 18.0.0, SVG Export Plug-In . SVG Version: 6.00 Build 0)  -->
<!DOCTYPE svg PUBLIC "-//W3C//DTD SVG 1.1//EN" "http://www.w3.org/Graphics/SVG/1.1/DTD/svg11.dtd">
<svg version="1.1" id="Layer_1" xmlns="http://www.w3.org/2000/svg" xmlns:xlink="http://www.w3.org/1999/xlink" x="0px" y="0px"
	 viewBox="0 0 300 150" enable-background="new 0 0 300 150" xml:space="preserve">
<rect fill="#FFFFFF" width="300" height="150"/>
<g>
	<g>
		<image overflow="visible" width="35" height="28" xlink:href="5DD629610144D0BE.png"  transform="matrix(1 0 0 1 40 61)">
		</image>
		<image overflow="visible" width="17" height="16" xlink:href="5DD629610144D0C2.png"  transform="matrix(1 0 0 1 42 71)">
		</image>
		<image overflow="visible" width="35" height="28" xlink:href="5DD629610144D0C5.png"  transform="matrix(1 0 0 1 27 61)">
		</image>
	</g>
	<g>
		<path fill="#78777C" d="M86.4,66.6c1.6-0.3,3.6-0.5,5.9-0.5c2.3,0,4,0.3,5.5,1.2c1.5,0.8,2.6,2.2,2.6,4.1c0,2.8-2.1,4.6-4.5,5.3
			v0.1c2.2,0.7,3.5,2.4,3.5,4.9c0,2.4-1.3,4.1-3,5.3c-1.9,1.3-4.7,1.8-8.4,1.8c-2.5,0-4.5-0.2-5.6-0.4L86.4,66.6z M87.5,84.9
			c0.6,0.1,1.1,0.1,1.8,0.1c2.6,0,4.9-1,4.9-3.5c0-2.2-1.9-2.9-4.1-2.9h-1.5L87.5,84.9z M89.5,75.1h1.6c2.6,0,4.4-1.1,4.4-3
			c0-1.6-1.3-2.3-3.1-2.3c-0.8,0-1.5,0.1-1.9,0.2L89.5,75.1z"/>
		<path fill="#78777C" d="M111.9,88.5c0-1,0.1-2.1,0.2-3.2H112c-1.5,2.7-3.5,3.6-5.4,3.6c-2.9,0-4.9-2.3-4.9-5.6
			c0-5.5,3.6-11.3,11.6-11.3c1.9,0,4,0.4,5.4,0.8l-1.7,8.5c-0.4,2.1-0.7,5.3-0.6,7.3H111.9z M113.3,75.7c-0.4-0.1-0.8-0.1-1.3-0.1
			c-3.1,0-5.3,3.8-5.3,6.8c0,1.6,0.6,2.7,2,2.7c1.4,0,3.2-1.6,3.9-5.6L113.3,75.7z"/>
		<path fill="#78777C" d="M119.8,88.5l2.1-10.9c0.4-2.1,0.7-3.8,0.9-5.3h4.2l-0.3,2.7h0.1c1.5-2.1,3.5-3,5.7-3
			c2.6,0,4.1,1.6,4.1,4.4c0,0.7-0.1,2-0.3,2.7l-1.8,9.4h-4.8l1.7-9c0.1-0.6,0.2-1.2,0.2-1.8c0-1.1-0.4-1.9-1.6-1.9
			c-1.6,0-3.4,2-4,5.5l-1.4,7.2H119.8z"/>
		<path fill="#78777C" d="M150.4,88c-1,0.5-2.7,0.8-4.6,0.8c-4,0-6.8-2.4-6.8-6.6c0-5.8,4.4-10.3,10.6-10.3c1.4,0,2.6,0.3,3.3,0.6
			l-1.2,3.6c-0.6-0.2-1.2-0.4-2.2-0.4c-3.4,0-5.5,2.9-5.5,5.9c0,2.2,1.4,3.3,3.2,3.3c1.4,0,2.4-0.3,3.2-0.7L150.4,88z"/>
		<path fill="#78777C" d="M169.6,78.6c0,5.9-4,10.3-9.7,10.3c-4.1,0-6.9-2.7-6.9-6.7c0-5.6,3.9-10.2,9.7-10.2
			C167,72,169.6,75,169.6,78.6z M158,82.1c0,1.9,0.9,3.1,2.6,3.1c2.6,0,4.1-3.8,4.1-6.6c0-1.5-0.6-3.1-2.5-3.1
			C159.3,75.6,157.9,79.6,158,82.1z"/>
		<path fill="#78777C" d="M183.4,82.7l-2.6,5.8h-5.1l10.9-22.3h6.1l2.6,22.3h-5l-0.5-5.8H183.4z M189.7,79.1l-0.4-4.8
			c-0.1-1.2-0.2-3-0.3-4.4h-0.1c-0.6,1.4-1.2,3.1-1.8,4.4l-2.2,4.8H189.7z"/>
		<path fill="#78777C" d="M197.2,85.6l5.3-5.7c1.4-1.4,2.4-2.4,4-3.7l0-0.1h-6.9l0.7-3.8H213l-0.5,3l-5.2,5.5
			c-1.4,1.5-2.5,2.5-3.9,3.7v0.1h7.6l-0.8,3.9h-13.4L197.2,85.6z"/>
		<path fill="#78777C" d="M222.3,67.8l-0.9,4.5h3.4l-0.7,3.6h-3.4l-1.1,5.5c-0.1,0.7-0.3,1.5-0.3,2.1c0,0.8,0.3,1.4,1.4,1.4
			c0.4,0,0.9,0,1.3-0.1l-0.6,3.7c-0.6,0.2-1.8,0.4-2.8,0.4c-2.8,0-4.2-1.5-4.2-3.5c0-0.9,0.1-1.8,0.3-3l1.3-6.5H214l0.7-3.6h2.1
			l0.7-3.4L222.3,67.8z"/>
		<path fill="#78777C" d="M238,87.6c-1.9,1-4.2,1.3-6,1.3c-4.6,0-7-2.6-7-6.8c0-4.9,3.6-10.1,9.4-10.1c3.3,0,5.6,1.8,5.6,4.8
			c0,4.1-4,5.6-10.5,5.5c0,0.5,0.2,1.2,0.5,1.7c0.6,0.8,1.7,1.3,3.1,1.3c1.8,0,3.2-0.4,4.5-1L238,87.6z M233.8,75.5
			c-2.2,0-3.5,1.8-3.8,3.3c3.7,0,5.6-0.5,5.6-2C235.5,76,234.9,75.5,233.8,75.5z"/>
		<path fill="#78777C" d="M253.1,88c-1,0.5-2.7,0.8-4.6,0.8c-4,0-6.8-2.4-6.8-6.6c0-5.8,4.4-10.3,10.6-10.3c1.4,0,2.6,0.3,3.3,0.6
			l-1.2,3.6c-0.6-0.2-1.2-0.4-2.2-0.4c-3.4,0-5.5,2.9-5.5,5.9c0,2.2,1.4,3.3,3.2,3.3c1.4,0,2.4-0.3,3.2-0.7L253.1,88z"/>
		<path fill="#78777C" d="M265.7,88.5c0-1,0.1-2.1,0.2-3.2h-0.1c-1.5,2.7-3.5,3.6-5.4,3.6c-2.9,0-4.9-2.3-4.9-5.6
			c0-5.5,3.6-11.3,11.6-11.3c1.9,0,4,0.4,5.4,0.8l-1.7,8.5c-0.4,2.1-0.7,5.3-0.6,7.3H265.7z M267.1,75.7c-0.4-0.1-0.8-0.1-1.3-0.1
			c-3.1,0-5.3,3.8-5.3,6.8c0,1.6,0.6,2.7,2,2.7c1.4,0,3.2-1.6,3.9-5.6L267.1,75.7z"/>
	</g>
</g>
</svg>
