<?xml version="1.0" encoding="utf-8"?>
<!-- Generator: Adobe Illustrator 18.0.0, SVG Export Plug-In . SVG Version: 6.00 Build 0)  -->
<!DOCTYPE svg PUBLIC "-//W3C//DTD SVG 1.1//EN" "http://www.w3.org/Graphics/SVG/1.1/DTD/svg11.dtd">
<svg version="1.1" id="Layer_1" xmlns="http://www.w3.org/2000/svg" xmlns:xlink="http://www.w3.org/1999/xlink" x="0px" y="0px"
	 viewBox="0 0 300 150" enable-background="new 0 0 300 150" xml:space="preserve">
<rect fill="#FFFFFF" width="300" height="150"/>
<g>
	<path fill="#EC1C24" d="M114.7,84.7H93.4c0.1,2.4,1,4.2,2.5,5.6c1.5,1.3,3.5,2,6.1,2c3.2,0,5.6-0.8,7.2-2.5l2.7,5.3
		c-2.4,2-6.1,3-11,3c-4.6,0-8.2-1.3-10.8-4c-2.6-2.7-4-6.4-4-11.2c0-4.7,1.5-8.5,4.4-11.4c2.9-2.9,6.4-4.4,10.5-4.4
		c4.3,0,7.8,1.3,10.4,3.9c2.6,2.6,3.9,5.9,3.9,9.9C115.3,81.6,115.1,82.9,114.7,84.7L114.7,84.7z M93.6,79.4h14.7
		c-0.5-4.4-2.9-6.6-7.2-6.6C97.1,72.9,94.6,75,93.6,79.4L93.6,79.4z M122.1,53.6l7-1.7v36.4c0,3.7,1.1,5.9,3.3,6.6
		c-1.1,2-2.9,3.1-5.5,3.1c-3.2,0-4.8-2.2-4.8-6.6V53.6L122.1,53.6z M164.4,84.7h-21.3c0.1,2.4,1,4.2,2.5,5.6c1.5,1.3,3.5,2,6.1,2
		c3.2,0,5.6-0.8,7.2-2.5l2.7,5.3c-2.4,2-6.1,3-11,3c-4.6,0-8.2-1.3-10.8-4c-2.6-2.7-4-6.4-4-11.2c0-4.7,1.5-8.5,4.4-11.4
		c2.9-2.9,6.4-4.4,10.5-4.4c4.3,0,7.8,1.3,10.4,3.9c2.6,2.6,3.9,5.9,3.9,9.9C165,81.6,164.8,82.9,164.4,84.7L164.4,84.7z
		 M143.3,79.4H158c-0.5-4.4-2.9-6.6-7.2-6.6C146.8,72.9,144.3,75,143.3,79.4L143.3,79.4z M189.7,97.5l-8.8-13.5l-3.4,3.5v10h-7V53.6
		l7-1.7V79l10-11.5h8.4l-10.1,11.3L198,97.5H189.7L189.7,97.5z M203,73.2h-8.3l4.8-5.6h3.5v-6.1l7-2.6v8.6h8.2v5.6h-8.2v13.1
		c0,2.1,0.3,3.6,1,4.5c0.7,0.9,1.8,1.3,3.5,1.3c1.7,0,3.2-0.4,4.7-1.4v6.4c-1.6,0.6-3.9,0.8-6.9,0.8c-3,0-5.3-0.8-6.9-2.5
		c-1.6-1.7-2.4-4.1-2.4-7.2V73.2L203,73.2z M241.8,74.1c-1.2-0.8-2.6-1.2-4.1-1.2c-1.6,0-3,0.7-4.3,2.2c-1.3,1.5-1.9,3.3-1.9,5.4v17
		h-7V67.6h7v2.7c2-2.2,4.5-3.3,7.8-3.3c2.4,0,4.2,0.4,5.5,1.1L241.8,74.1L241.8,74.1z M263.8,94.5c-0.6,1-1.7,1.9-3.3,2.6
		c-1.6,0.7-3.2,1-4.9,1c-3.2,0-5.7-0.8-7.6-2.4c-1.8-1.6-2.8-3.9-2.8-6.8c0-3.5,1.3-6.2,3.9-8.1c2.6-2,6.3-2.9,11.1-2.9
		c0.8,0,1.8,0.1,2.9,0.4c0-3.5-2.2-5.3-6.7-5.3c-2.6,0-4.8,0.4-6.6,1.3l-1.5-5.4c2.4-1.2,5.2-1.7,8.6-1.7c4.6,0,7.9,1,10,3.1
		c2.1,2.1,3.2,6,3.2,11.8v6.4c0,4,0.8,6.5,2.4,7.5c-0.6,1-1.2,1.6-1.9,1.9c-0.7,0.2-1.5,0.4-2.4,0.4c-1,0-1.9-0.4-2.7-1.1
		C264.6,96.2,264.1,95.4,263.8,94.5L263.8,94.5z M263.1,83.4c-1.2-0.2-2.1-0.4-2.7-0.4c-5.5,0-8.3,1.8-8.3,5.4c0,2.7,1.6,4,4.7,4
		c4.2,0,6.3-2.1,6.3-6.3V83.4L263.1,83.4z"/>
	<path fill-rule="evenodd" clip-rule="evenodd" fill="#EC1C24" d="M37,54.4l4.9,6.3c7.9-5.9,17.5,2.4,11.9,13.1
		C63.6,62.3,49.9,43.3,37,54.4L37,54.4z"/>
	<path fill-rule="evenodd" clip-rule="evenodd" fill="#EC1C24" d="M48.5,68.8c-3.2-6.6-14.4-7.1-17.6,1.7l5.7,4.8
		C39.2,69.4,43.3,68.1,48.5,68.8L48.5,68.8z"/>
	<path fill-rule="evenodd" clip-rule="evenodd" fill="#EC1C24" d="M50.7,74.1C37.1,74,31,92.8,44.8,99l2.3-7.4
		C39.2,86.8,40.5,76,50.7,74.1L50.7,74.1z"/>
	<path fill-rule="evenodd" clip-rule="evenodd" fill="#EC1C24" d="M51.6,83.8c2.3,4.2,6.5,5.6,12.5,4.1l0.3,6.5
		C54.5,96.1,50.5,92.5,51.6,83.8L51.6,83.8z"/>
	<path fill-rule="evenodd" clip-rule="evenodd" fill="#EC1C24" d="M52.3,74.3c2.8,9.2,16.5,8.9,16.1-1.8l7.3-0.9l1.4-0.2
		C80,84.1,57.9,92.7,52.3,74.3L52.3,74.3z"/>
	<path fill-rule="evenodd" clip-rule="evenodd" fill="#EC1C24" d="M27.5,71.3l3.4-0.8c2.4-6.7,9.5-8,14.1-5.4l0,0
		C41,62.4,31.7,63.2,27.5,71.3L27.5,71.3z"/>
	<polygon fill-rule="evenodd" clip-rule="evenodd" fill="#EC1C24" points="27.5,71.3 33.3,76.2 36.6,75.3 30.9,70.5 27.5,71.3 	"/>
	<path fill-rule="evenodd" clip-rule="evenodd" fill="#EC1C24" d="M48.5,68.8l-3.9,1.7c-0.6-0.7-1.5-1-2.6-1.1
		C43.9,68.6,46.1,68.5,48.5,68.8L48.5,68.8z"/>
	<path fill-rule="evenodd" clip-rule="evenodd" fill="#EC1C24" d="M42,60.6l3.5,1.3c1.6-2,4.1-2.6,6.4-1.9
		C49.2,58.2,45.4,58.1,42,60.6L42,60.6z"/>
	<path fill-rule="evenodd" clip-rule="evenodd" fill="#EC1C24" d="M53.8,73.8l1.8,0.1c5.8-7.2,3.8-19.4-7.2-22.2
		C56.1,54.3,60.6,65.8,53.8,73.8L53.8,73.8z"/>
	<path fill-rule="evenodd" clip-rule="evenodd" fill="#EC1C24" d="M68.8,52.6l-6.3,3.2l-1.8,2.6c4.3,5.4,4.5,10.1,0.9,13.9
		c3.4-0.3,6-1.8,7.5-4.1c0,0,0,0,0,0C72.5,63.9,73.4,56.8,68.8,52.6z"/>
	<path fill-rule="evenodd" clip-rule="evenodd" fill="#EC1C24" d="M52.3,74.3l3.4,0c2,4.3,4.6,6.1,7.5,6.3
		c-3.8,1.1-8.6-0.7-10.5-5.3C52.5,75,52.4,74.6,52.3,74.3L52.3,74.3z"/>
	<path fill-rule="evenodd" clip-rule="evenodd" fill="#EC1C24" d="M78.4,71.8L77,71.4c1.1,4.8-1.4,9.1-5.3,11.4
		c-1.2,0.8-2.5,1.3-4,1.7C73.3,83.7,79.7,79.9,78.4,71.8L78.4,71.8z"/>
	<polygon fill-rule="evenodd" clip-rule="evenodd" fill="#EC1C24" points="64.1,87.9 66.3,90.5 66.5,97.5 64.5,94.4 64.1,87.9 	"/>
	<path fill-rule="evenodd" clip-rule="evenodd" fill="#EC1C24" d="M52.8,91.8c2.2,4.7,8.1,8.4,13.7,5.8l-2-3.1
		C58.5,95.4,54.6,94.5,52.8,91.8L52.8,91.8z"/>
	<polygon fill-rule="evenodd" clip-rule="evenodd" fill="#EC1C24" points="49.1,89.2 47.1,91.5 44.8,99 47.2,96.4 49.1,89.2 	"/>
	<path fill-rule="evenodd" clip-rule="evenodd" fill="#EC1C24" d="M50.7,74.1c-6.8,3.4-9.1,9.7-1.5,15.1l-2.1,2.3
		C39.2,86.8,40.5,76,50.7,74.1L50.7,74.1z"/>
</g>
</svg>
