<?xml version="1.0" encoding="utf-8"?>
<!-- Generator: Adobe Illustrator 18.0.0, SVG Export Plug-In . SVG Version: 6.00 Build 0)  -->
<!DOCTYPE svg PUBLIC "-//W3C//DTD SVG 1.1//EN" "http://www.w3.org/Graphics/SVG/1.1/DTD/svg11.dtd">
<svg version="1.1" xmlns="http://www.w3.org/2000/svg" xmlns:xlink="http://www.w3.org/1999/xlink" x="0px" y="0px"
	 viewBox="0 0 30 30" enable-background="new 0 0 30 30" xml:space="preserve">
<g id="Layer_1" display="none">
	<path display="inline" fill="#3E4543" d="M30,20.3c0,4.1-3.6,9.2-7.8,9.2h-15c-4.1,0-7.3-5-7.3-9.2v-15c0-4.1,3.1-5.9,7.3-5.9h15
		c4.1,0,7.8,1.7,7.8,5.9V20.3z M23.6,5.7c-0.7,0.4-1.6,0.7-2.4,0.9c-0.7-0.7-1.7-1.2-2.8-1.2c-2.1,0-3.8,1.7-3.8,3.8
		c0,0.3,0,0.6,0.1,0.9c-3.2-0.2-6-1.7-7.9-3.9C6.4,6.6,6.2,7.3,6.2,8c0,1.3,0.6,2.5,1.6,3.1c-0.6,0-0.8-0.2-1.8-0.5c0,0,0,0,0,0
		c0,1.8,1.4,3.4,3.2,3.7c-0.3,0.1-0.6,0.1-1,0.1c-0.2,0-0.5,0-0.7-0.1c0.5,1.5,1.9,2.6,3.6,2.6c-1.3,1-3,1.6-4.8,1.6
		c-0.3,0-0.6,0-0.9-0.1c1.7,1.1,3.7,1.7,5.9,1.7c7.1,0,10.9-5.8,10.9-10.7c0-0.2,0-0.3,0-0.5c0.7-0.5,1.4-1.2,1.9-2
		c-0.7,0.3-1.4,0.5-2.2,0.6C22.7,7.3,23.3,6.5,23.6,5.7z"/>
</g>
<g id="Layer_2">
	<path fill="#3E4543" d="M30,22.5c0,4.1-3.4,7.5-7.5,7.5h-15C3.4,30,0,26.6,0,22.5v-15C0,3.4,3.4,0,7.5,0h15C26.6,0,30,3.4,30,7.5
		V22.5z M12.5,24.4h3.7c0,0,0-5.2,0-9.4H19l0.3-3.7h-3V9.8c0-0.7,0.5-0.9,0.8-0.9c0.3,0,2.1,0,2.1,0V5.7l-2.9,0
		c-3.2,0-3.9,2.4-3.9,3.9v1.7h-1.9V15h1.9C12.5,19.2,12.5,24.4,12.5,24.4z"/>
</g>
</svg>
