<?xml version="1.0" encoding="utf-8"?>
<!-- Generator: Adobe Illustrator 18.0.0, SVG Export Plug-In . SVG Version: 6.00 Build 0)  -->
<!DOCTYPE svg PUBLIC "-//W3C//DTD SVG 1.1//EN" "http://www.w3.org/Graphics/SVG/1.1/DTD/svg11.dtd">
<svg version="1.1" xmlns="http://www.w3.org/2000/svg" xmlns:xlink="http://www.w3.org/1999/xlink" x="0px" y="0px"
	 viewBox="0 0 120 120" enable-background="new 0 0 120 120" xml:space="preserve">
<g id="Layer_1" display="none">
</g>
<g id="Layer_2">
	<g>
		<circle fill-rule="evenodd" clip-rule="evenodd" fill="#FFFFFF" cx="60" cy="60" r="60"/>
		<g>
			<path fill="#95D600" d="M81.2,89.3h-45c-0.6,0-1-0.4-1-1v-57c0-0.6,0.4-1,1-1h45c0.6,0,1,0.4,1,1v24c0,0.6-0.4,1-1,1
				c-0.6,0-1-0.4-1-1v-23h-43v55h43v-5c0-0.6,0.4-1,1-1c0.6,0,1,0.4,1,1v6C82.2,88.8,81.8,89.3,81.2,89.3z"/>
			<path fill="#95D600" d="M64.2,74.3h-23c-0.6,0-1-0.4-1-1v-37c0-0.6,0.4-1,1-1h35c0.6,0,1,0.4,1,1v21c0,0.6-0.4,1-1,1
				c-0.6,0-1-0.4-1-1v-20h-33v35h22c0.6,0,1,0.4,1,1C65.2,73.8,64.8,74.3,64.2,74.3z"/>
			<path fill="#95D600" d="M59.2,84.7c-1.9,0-3.5-1.6-3.5-3.5c0-1.9,1.6-3.5,3.5-3.5c1.9,0,3.5,1.6,3.5,3.5
				C62.7,83.1,61.1,84.7,59.2,84.7z M59.2,79.7c-0.8,0-1.5,0.7-1.5,1.5c0,0.8,0.7,1.5,1.5,1.5c0.8,0,1.5-0.7,1.5-1.5
				C60.7,80.3,60,79.7,59.2,79.7z"/>
			<path fill="#95D600" d="M84.4,82.1c-3.4,0-7.9-1.7-11.9-3.1c-2.2-0.8-4.3-1.6-5.7-1.8c-2-0.4-3.2-1.6-3.2-3.5c0-1,0.4-2,1.1-2.7
				c0.7-0.7,1.5-1,2.5-1l3.4,0.1L60,59.6c-1.5-1.5-1.5-3.7-0.1-5.1c1.4-1.4,3.6-1.3,5,0.1l5.5,5.5c0.2-0.5,0.4-0.9,0.8-1.3
				c1-1,2.6-1.3,3.9-0.7c0.1-0.6,0.5-1.1,0.9-1.6c1-1,2.7-1.3,4-0.7c0.2-0.6,0.5-1.1,0.9-1.6c1.4-1.4,3.7-1.3,5.1,0.1l7.4,7.4
				c0.9,0.9,1.9,1.9,1.9,3.1v6.3c0,2.3-1.1,4.5-1.1,4.6c-0.1,0.1-0.2,0.3-0.3,0.4c0,0-2.9,2.2-5.3,4.6
				C87.6,81.6,86.2,82.1,84.4,82.1z M67.1,72c-0.4,0-0.8,0.1-1,0.4c-0.3,0.3-0.5,0.7-0.5,1.2c0,0.4,0,1.2,1.6,1.5
				c1.5,0.3,3.6,1,6,1.9c3.8,1.4,8.1,3,11.2,3c1.3,0,2.2-0.3,2.7-0.8c2.2-2.2,4.6-4.1,5.3-4.6c0.2-0.5,0.8-2,0.8-3.5v-6.3
				c0-0.4-0.8-1.2-1.3-1.7l-0.3-0.3l-7-7c-0.6-0.6-1.6-0.7-2.2-0.1c-0.6,0.6-0.6,1.5,0.1,2.2c0.4,0.4,0.4,1,0,1.4
				c-0.4,0.4-1,0.4-1.4,0l0,0c0,0,0,0,0,0l-1.3-1.3C79,57.4,78,57.4,77.4,58c-0.6,0.6-0.6,1.5,0.1,2.2l0,0c0.4,0.4,0.4,1,0,1.4
				c-0.4,0.4-1,0.4-1.4,0c0,0,0,0,0,0l-1.3-1.3c-0.6-0.6-1.6-0.7-2.2-0.1c-0.6,0.6-0.5,1.5,0.2,2.2c0.1,0.1,0.4,0.3,0.4,0.5l0,0
				c0,0,0,0,0,0l0,0c0,0,0,0,0,0l0,0c0,0,0,0,0,0l0,0c0,0,0,0,0,0l0,0c0,0,0,0,0,0l0,0c0,0,0,0,0,0l0,0c0,0,0,0,0,0l0,0c0,0,0,0,0,0
				l0,0c0,0,0,0,0,0c0,0,0,0,0,0c0,0,0,0,0,0v0c0,0,0,0,0,0c0,0,0,0,0,0c0,0,0,0,0,0v0c0,0,0,0,0,0v0c0,0,0,0,0,0v0c0,0,0,0,0,0v0
				c0,0,0,0,0,0v0c0,0,0,0,0,0v0c0,0,0,0,0,0v0c0,0,0,0,0,0v0c0,0,0,0,0,0c0,0,0,0,0,0c0,0,0,0,0,0c0,0,0,0,0,0c0,0,0,0,0,0
				c0,0,0,0,0,0c0,0,0,0,0,0c0,0,0,0,0,0v0c0,0,0,0,0,0c0,0,0,0,0,0v0c0,0,0,0,0,0v0c0,0,0,0,0,0c0,0,0,0,0,0v0c0,0,0,0,0,0v0
				c0,0,0,0,0,0v0c0,0,0,0,0,0v0c0,0,0,0,0,0c0,0,0,0,0,0c0,0,0,0,0,0c0,0,0,0,0,0c0,0,0,0,0,0s0,0,0,0v0c0,0,0,0,0,0v0c0,0,0,0,0,0
				c0,0,0,0,0,0c0,0,0,0,0,0c0,0,0,0,0,0c0,0,0,0,0,0c0,0,0,0,0,0c0,0,0,0,0,0c0,0,0,0,0,0c0,0,0,0,0,0c0,0,0,0,0,0c0,0,0,0,0,0
				c0,0,0,0,0,0c0,0,0,0,0,0c0,0,0,0,0,0c0,0,0,0,0,0v0c0,0,0,0,0,0v0c0,0,0,0,0,0v0c0,0,0,0,0,0v0c0,0,0,0,0,0c0,0,0,0,0,0
				c0,0,0,0,0,0c0,0,0,0,0,0c0,0,0,0,0,0l0,0c0,0,0,0,0,0l0,0c0,0,0,0,0,0v0.2c0,0.3-0.2-0.1-0.4,0.9c0,0-0.1,0-0.1,0s0-0.2,0-0.2
				l0,0c0,0,0-0.1,0-0.1c0,0,0,0.2,0,0.2l0,0c0,0,0,0.2,0,0.2h0h0c0,0,0,0,0,0s0-0.2,0-0.2l0,0c0,0,0-0.1,0-0.1c0,0,0-0.1,0-0.1l0,0
				l0,0l0,0l0,0l0,0c0,0,0,0,0,0c0,0,0,0,0,0c0,0,0,0,0,0l0,0h0c0,0,0,0,0,0c0,0,0,0,0,0c0,0,0,0,0,0c0,0-0.2,0-0.2,0l-0.2,0
				c0,0,0,0,0,0l0.2,0.2c0,0,0.2,0.2,0.2,0.2c0,0-0.5,0-0.5,0v-0.2V64c0,0,0-0.1,0-0.1c0,0,0,0,0,0l0,0c0,0,0,0,0,0v0.4
				c0,0,0.5,0,0.5,0l-0.5-0.2v0.2l0,0v-0.2c0,0,0-0.1,0-0.1c0,0,0-0.1,0-0.1v0c0,0,0,0,0,0v0v0.2l0.4,0.2c0,0-0.4,0-0.4,0v-0.2
				c0,0,0-0.1,0-0.1c0,0,0,0,0,0c0,0,0,0,0,0c0,0,0,0,0,0v0v0.2v0.2l0,0v-0.2V64c0,0,0,0,0,0c0,0,0,0,0,0c0,0,0,0,0,0v0.4
				c0,0,0.4,0,0.4,0l0,0c0,0,0,0,0,0l0,0c0,0,0,0,0,0l0-0.2c-0.1,0.1-0.4,0.1-0.4,0.1v0.1c0,0,0,0,0,0l0,0c-0.2,0-0.4,0-0.6,0l0,0
				c0,0,0,0,0,0c0,0,0,0,0,0l0,0c0,0,0,0,0,0l0,0c0,0,0,0,0,0c0,0,0,0,0,0h0c0,0,0,0,0,0h0c0,0,0,0,0,0h0c0,0,0,0,0,0h0c0,0,0,0,0,0
				c0,0,0,0,0,0h0h0c0,0,0,0,0,0c0,0,0,0,0,0l0,0c0,0,0,0,0,0c0,0,0,0,0,0c0,0,0,0,0,0c0,0-0.3,0-0.3,0v-0.1c0,0,0,0.1,0,0.1v0.1
				c0,0,0.3,0,0.3,0h-0.2c0,0,0.1-0.1,0.1-0.1l0,0c-0.1,0-0.1-0.2-0.2-0.2c0,0,0,0,0,0L63.5,56c-0.6-0.6-1.6-0.7-2.2-0.1
				c-0.6,0.6-0.6,1.6,0.1,2.2l12.3,12.3c0.3,0.3,0.4,0.8,0.2,1.2c-0.2,0.4-0.5,0.7-0.9,0.7c0,0,0,0,0,0L67.1,72z"/>
		</g>
	</g>
</g>
<g id="Layer_3" display="none">
	<g display="inline">
		<circle fill-rule="evenodd" clip-rule="evenodd" fill="#FFFFFF" cx="55.2" cy="-224.9" r="60"/>
		<g>
			<path fill="#95D600" d="M79.2-194.9h-48c-0.6,0-1-0.4-1-1v-24c0-0.6,0.4-1,1-1s1,0.4,1,1v23h46v-23c0-0.6,0.4-1,1-1
				c0.6,0,1,0.4,1,1v24C80.2-195.3,79.7-194.9,79.2-194.9z"/>
			<path fill="#95D600" d="M74.2-199.9h-38c-0.6,0-1-0.4-1-1v-20c0-0.6,0.4-1,1-1s1,0.4,1,1v19h36v-19c0-0.6,0.4-1,1-1
				c0.6,0,1,0.4,1,1v20C75.2-200.3,74.7-199.9,74.2-199.9z"/>
			<path fill="#95D600" d="M80.1-219.6c-1.9,0-3.4-0.9-4.3-2.5c-1.1,1.5-2.9,2.5-4.9,2.5c-2.1,0-3.9-1.1-5-2.7
				c-1.1,1.6-2.9,2.7-5,2.7c-2.1,0-3.9-1.1-5-2.7c-1.1,1.6-2.9,2.7-5,2.7c-2.1,0-4-1.1-5-2.7c-1.1,1.6-2.9,2.7-5.1,2.7
				c-2.2,0-4.1-1.1-5.1-2.8c-1.1,1.6-3.1,2.8-5.2,2.8c-2.8,0-5.2-2.8-5.2-6v-1.3c0-0.2,0.1-0.4,0.2-0.6l7.1-9
				c0.2-0.2,0.5-0.4,0.8-0.4h45.1c0.3,0,0.7,0.2,0.8,0.5l5.8,9c0.1,0.2,0.2,0.3,0.2,0.5v1.3C85.2-222,83.1-219.6,80.1-219.6z
				 M76.9-225.6c0,0.9,0.2,4,3.1,4c2.9,0,3.1-3.1,3.1-4v-1l-5.3-8.3H33.8l-6.6,8.4v0.9c0,2.3,1.7,4,3.2,4c2.3,0,4.2-1.9,4.2-4
				c0-0.6,0.4-1,1-1s1,0.4,1,1c0,2.2,1.9,4,4.1,4c2.2,0,4.1-1.8,4.1-4c0-0.6,0.4-1,1-1c0.6,0,1,0.4,1,1c0,2.2,1.8,4,4,4
				c2.2,0,4-1.8,4-4c0-0.6,0.4-1,1-1c0.6,0,1,0.4,1,1c0,2.2,1.8,4,4,4c2.2,0,4-1.8,4-4c0-0.6,0.4-1,1-1c0.6,0,1,0.4,1,1
				c0,2.2,1.8,4,4,4c2.2,0,4-1.8,4-4c0-0.6,0.4-1,1-1C76.5-226.6,76.9-226.1,76.9-225.6z"/>
			<path fill="#95D600" d="M71.2-242.9h-32c-0.6,0-1-0.4-1-1v-10c0-0.6,0.4-1,1-1h32c0.6,0,1,0.4,1,1v10
				C72.2-243.3,71.7-242.9,71.2-242.9z M40.2-244.9h30v-8h-30V-244.9z"/>
			<rect x="46.2" y="-243.9" fill="#95D600" width="3" height="7"/>
			<rect x="64.2" y="-243.9" fill="#95D600" width="2" height="7"/>
		</g>
	</g>
</g>
</svg>
