<?xml version="1.0" encoding="utf-8"?>
<!-- Generator: Adobe Illustrator 18.0.0, SVG Export Plug-In . SVG Version: 6.00 Build 0)  -->
<!DOCTYPE svg PUBLIC "-//W3C//DTD SVG 1.1//EN" "http://www.w3.org/Graphics/SVG/1.1/DTD/svg11.dtd">
<svg version="1.1" id="Layer_1" xmlns="http://www.w3.org/2000/svg" xmlns:xlink="http://www.w3.org/1999/xlink" x="0px" y="0px"
	 viewBox="0 0 300 150" enable-background="new 0 0 300 150" xml:space="preserve">
<rect fill="#FFFFFF" width="300" height="150"/>
<g>
	<path fill="#553107" d="M232.3,88.4c-0.5-1.3-1.2-2.4-2.3-3.5c-1.1-1.1-2-1.8-3.3-2.3v0c-0.4-0.3-1.7-0.5-2.5-0.5
		c-4.2,0-6.2,3.3-8.5,7.6c-1.1-0.7-2.5-1.4-4.3-1.4c-0.6,0-1.2,0.1-1.7,0.2c0,0,0,0-0.1,0c-0.8,0.2-2,0.7-3.2,1.7
		c-1.2,0-2.3,0.2-3.3,0.5c-0.9,0.3-1.7,0.6-2.5,1c-1.2-0.8-2.6-1.3-4.2-1.4c-0.2-0.1-0.3-0.3-0.5-0.4c-1.4-1.1-3.2-1.8-5-1.8
		c-1.4,0-2.8,0.3-4,1c-1.2-0.7-2.5-0.9-3.4-0.9c-2.2,0-3.9,0.9-5.1,2.1c-0.2,0-0.4,0-0.6,0c-1.9,0-3.8,0.6-5.7,1.7
		c-1.6-1.1-3.5-1.8-5.6-1.8c-0.9,0-1.9,0.1-2.8,0.4c-0.2-0.5-0.5-0.9-0.8-1.3c-0.1-0.1-0.2-0.2-0.3-0.3c-0.3-0.4-0.6-0.8-0.9-1.1
		c0,0,0,0-0.1-0.1c-2-2.3-4.3-2.8-5.8-2.8c-2.6,0-4.9,1.4-6.4,3.8c-0.5,0.8-0.8,1.4-1.1,1.9c-0.3,0.1-0.6,0.2-0.9,0.4
		c-1.4-0.7-2.6-0.8-3.5-0.8c-0.8,0-1.5,0.1-2.3,0.3c0.7-0.6,1.5-1.3,2.6-2.2c0.8-0.7,1.8-1.6,2.2-1.9c2.2-1.7,6.6-6.9,6.7-6.9
		c1.6-1.9,2.3-3.8,2-5.7c-0.1-0.7-0.4-1.4-0.7-2.1c1.1-1.7,2.1-3.7,2.6-5.7c0.3-1.5-0.1-3.1-1-4.3c1.1-2.5,2.1-5.3,2.3-7.3
		c0.3-2.7-1.4-5.2-4-5.8c-0.3-0.1-0.6-0.1-0.9-0.1c0-0.7-0.1-1.4-0.2-2c2.3-4.8,6.3-12.9,6.8-14.5c1.1-3,0.1-5.1-0.6-6.1
		c-1.1-1.6-3-2.5-5-2.5c-0.3,0-0.5,0-0.5,0c-1.8,0.2-3.5,1.4-4.3,3l-0.5,1c-3.4,7.3-6,12.9-6.8,14.6c-0.2,0.1-0.4,0.3-0.5,0.4
		c-1.4,1.1-3.2,2.5-4.2,4.8c-0.1,0.2-0.1,0.3-0.2,0.5c-0.7-2.2-2.7-3.8-5-3.8c0,0,0,0,0,0c-2.4,0-4.5,1.7-5.1,4
		c-0.5,2-0.7,4.2-0.7,6.1c-1.8,0.3-3.3,1.6-4,3.4c0,0.1-0.1,0.2-0.1,0.3c-1.2,0.5-2.2,1.4-2.8,2.6c-2.8,5.9-3.2,13-3.4,17.2
		c0,0.9-0.1,2-0.2,2.4c-0.8,4.2,1.8,7.1,4.7,9.2c-0.5,1.2-0.9,2.4-1.4,3.7c-0.3,0.9-0.6,1.8-1,2.6c-1,2.7-1.7,5.6-2.2,8.4
		c-0.1-0.9-0.4-2-1.2-3.1c0.4-1,0.7-2.1,0.7-3.3c0-1.6-0.4-3.9-2.6-6.2c0,0,0,0,0,0c-0.7-0.8-2.9-3.1-6.2-3.1
		c-0.6,0-1.2,0.1-1.7,0.2c0,0,0,0-0.1,0c-0.7,0.2-1.8,0.6-2.8,1.4c0-1.2-0.3-2.4-0.7-3.5c-1.4-3.5-4.7-5.5-8.8-5.5
		c-1.7,0-3.4,0.3-5,0.9c-1.6-0.8-3.5-1.2-5.7-1.2c-3.2,0-6.2,1.2-8.9,3.5c-3.4,2.8-5.1,6.6-5.1,10.8c0,1.4,0.2,2.6,0.6,3.8
		c-2.2,0.5-3.7,1.6-4.7,2.5c-2,1.8-3,4.4-3,7.1c0,3.1,1.4,5.9,4.1,7.8c2.2,1.6,5,2.5,8.3,2.5c2.2,0,4.3-0.5,6.3-1.4
		c2.2,0.8,4.2,1.2,6.1,1.2c1.9,0,3.8-0.5,5.5-1.5c1.1,0.5,2.3,0.7,3.6,0.7c1.2,0,2.4-0.2,3.6-0.6c1.1,0.5,2.3,0.7,3.5,0.7
		c1.9,0,3.7-0.6,5.5-1.6c0,0,0,0,0.1,0c0.5-0.3,1.2-0.8,3-2.4c1.4-1.2,2.3-2,2.9-2.7c0.3-0.3,0.5-0.5,0.7-0.8
		c0.7-0.7,1.2-1.4,1.5-2.1c0,0,0,0,0,0c-0.4,2.9,0.5,5.8,2.5,8.2c2.3,2.7,6.1,4.6,9.2,4.6c3,0,6.1-1.4,8.6-3.6
		c0.9,0.3,1.8,0.4,2.8,0.4c1.4,0,2.9-0.3,4.2-0.9c0.3-0.1,0.7-0.3,1.1-0.5c1.5,1,3.2,1.5,5,1.5c1.7,0,3.5-0.5,5.5-1.6
		c0.3,0.2,0.6,0.4,0.9,0.6c1.2,0.7,2.4,1.1,3.8,1.2c0.1,2.6,1.3,5,3.2,6.6c1.3,1.1,3.6,2.4,7.1,2.4c1.3,0,2.6-0.2,4-0.5
		c5-1.2,8.3-5.9,10.7-10.6c1.6,1.3,3.5,1.9,5.6,1.9c1.5,0,3.1-0.4,4.6-1.1c0.1,0,0.2-0.1,0.2-0.1c1.4,0.7,2.9,1.1,4.5,1.1
		c1.2,0,2.4-0.2,3.6-0.6c1.1,0.5,2.3,0.7,3.5,0.7c1.8,0,3.5-0.5,5.1-1.4c1.4,0.8,3,1.3,4.7,1.3c2.3,0,4.5-0.8,6.9-2.3
		c1.1-0.7,2.3-1.8,3.9-3.5c0,0,0.1-0.1,0.1-0.1c0.6-0.7,1.2-1.3,1.8-2c0.1-0.1,0.2-0.2,0.3-0.3c1.1-1.3,1.7-3,1.7-4.7
		c0-1.5-0.5-2.9-1.2-4.1c0.8-1.6,1.6-3.2,2.3-4.7c0,0,0-0.1,0-0.1c0.7-1.4,1-2.8,1-4.1C233,90.5,232.6,89.3,232.3,88.4z
		 M163.1,104.4l-0.2-0.3c0.1-0.1,0.3-0.2,0.4-0.3C163.2,103.9,163.2,104.1,163.1,104.4z"/>
	<g>
		<path fill="#FFFFFF" d="M227,86c-0.5-1.2-1.2-2.3-2.3-3.4c-1-1-2.1-1.7-3.2-2.2v0c-0.8-0.3-1.6-0.5-2.4-0.5c-4.1,0-6,3.2-8.3,7.3
			c-1-0.7-2.4-1.3-4.1-1.3c-0.6,0-1.1,0.1-1.7,0.2c0,0,0,0-0.1,0c-0.8,0.2-2,0.7-3.1,1.7c-1.1,0-2.2,0.2-3.2,0.5
			c-0.8,0.2-1.7,0.6-2.4,1c-1.2-0.8-2.6-1.3-4.1-1.3c-0.2-0.1-0.3-0.3-0.5-0.4c-1.4-1.1-3.1-1.7-4.9-1.7c-1.4,0-2.7,0.3-3.9,0.9
			c-1.2-0.7-2.4-0.8-3.3-0.8c-2.1,0-3.8,0.9-5,2.1c-0.2,0-0.4,0-0.5,0c-1.8,0-3.7,0.6-5.5,1.7c-1.5-1.1-3.4-1.7-5.4-1.7
			c-0.9,0-1.8,0.1-2.8,0.4c-0.2-0.4-0.5-0.9-0.7-1.3c-0.1-0.1-0.2-0.2-0.2-0.3c-0.3-0.4-0.6-0.7-0.9-1.1c0,0,0,0-0.1-0.1
			c-2-2.2-4.1-2.7-5.6-2.7c-2.5,0-4.8,1.3-6.2,3.6c-0.5,0.7-0.8,1.3-1.1,1.8c-0.3,0.1-0.6,0.2-0.9,0.4c-1.3-0.6-2.6-0.8-3.4-0.8
			c-0.7,0-1.5,0.1-2.2,0.3c0.7-0.6,1.5-1.2,2.5-2.1c0.8-0.7,1.7-1.5,2.2-1.8c2.1-1.6,6.4-6.6,6.5-6.7c1.6-1.9,2.2-3.7,1.9-5.5
			c-0.1-0.7-0.3-1.4-0.7-2c1.1-1.6,2.1-3.5,2.5-5.5c0.3-1.5-0.1-3-0.9-4.1c1.1-2.4,2-5.1,2.3-7.1c0.3-2.6-1.3-5-3.9-5.6
			c-0.3-0.1-0.6-0.1-0.8-0.1c0-0.7-0.1-1.4-0.2-1.9c2.3-4.6,6.1-12.5,6.6-14c1-2.9,0.1-4.9-0.6-5.9c-1.1-1.5-2.9-2.5-4.8-2.5
			c-0.3,0-0.5,0-0.5,0c-1.8,0.2-3.4,1.3-4.2,2.9l-0.4,0.9c-3.3,7-5.8,12.4-6.7,14.1c-0.2,0.1-0.4,0.3-0.5,0.4
			c-1.3,1-3.1,2.4-4.1,4.6c-0.1,0.2-0.1,0.2-0.2,0.3c-0.7-2.1-2.6-3.7-4.9-3.7c0,0,0,0,0,0c-2.3,0-4.4,1.7-4.9,4
			c-0.5,1.9-0.7,4.1-0.7,6c-1.7,0.3-3.2,1.6-3.8,3.3c0,0.1-0.1,0.2-0.1,0.3c-1.2,0.5-2.1,1.4-2.7,2.5c-2.7,5.7-3.1,12.6-3.4,16.7
			c0,0.9-0.1,2-0.2,2.3c-0.8,4.1,1.8,6.9,4.6,8.9c-0.4,1.1-0.9,2.3-1.3,3.6c-0.3,0.9-0.6,1.8-0.9,2.5c-1,2.6-1.6,5.4-2.2,8.1
			c-0.1-0.9-0.4-1.9-1.1-3c0.4-0.9,0.6-2,0.6-3.2c0-1.5-0.4-3.8-2.5-6c0,0,0,0,0,0c-0.7-0.7-2.8-3-6.1-3c-0.6,0-1.1,0.1-1.7,0.2
			c0,0,0,0-0.1,0c-0.7,0.2-1.7,0.6-2.7,1.3c0-1.2-0.3-2.3-0.7-3.4c-1.4-3.3-4.6-5.3-8.6-5.3c-1.7,0-3.3,0.3-4.8,0.9
			c-1.6-0.8-3.4-1.1-5.6-1.1c-3.1,0-6,1.2-8.7,3.4c-3.3,2.7-5,6.3-5,10.4c0,1.3,0.2,2.6,0.5,3.7c-2.1,0.5-3.6,1.5-4.6,2.4
			c-1.9,1.8-3,4.2-3,6.9c0,3,1.4,5.7,4,7.5c2.2,1.6,4.9,2.4,8,2.4c2.1,0,4.2-0.4,6.1-1.3c2.1,0.8,4.1,1.2,6,1.2
			c1.9,0,3.7-0.5,5.4-1.5c1.1,0.4,2.3,0.7,3.5,0.7c1.2,0,2.3-0.2,3.5-0.6c1.1,0.4,2.2,0.7,3.4,0.7c1.8,0,3.6-0.5,5.3-1.6
			c0,0,0,0,0,0c0.5-0.3,1.2-0.8,3-2.3c1.3-1.1,2.2-1.9,2.8-2.6c0.2-0.3,0.5-0.5,0.7-0.8c0.7-0.7,1.1-1.4,1.5-2.1c0,0,0,0,0,0
			c-0.4,2.8,0.4,5.6,2.4,7.9c2.2,2.6,5.9,4.4,9,4.4c2.9,0,5.9-1.3,8.4-3.5c0.9,0.3,1.8,0.4,2.8,0.4c1.4,0,2.8-0.3,4.1-0.8
			c0.3-0.1,0.7-0.3,1-0.5c1.4,0.9,3.1,1.5,4.9,1.5c1.7,0,3.4-0.5,5.4-1.6c0.3,0.2,0.6,0.4,0.9,0.6c1.1,0.6,2.4,1,3.7,1.2
			c0.1,2.5,1.2,4.8,3.1,6.4c1.3,1.1,3.5,2.3,6.9,2.3c1.2,0,2.5-0.2,3.9-0.5c4.9-1.2,8.1-5.7,10.4-10.2c1.5,1.2,3.4,1.9,5.5,1.9
			c1.5,0,3-0.4,4.4-1.1c0.1,0,0.2-0.1,0.2-0.1c1.3,0.7,2.8,1.1,4.4,1.1c1.2,0,2.3-0.2,3.5-0.6c1.1,0.4,2.2,0.7,3.4,0.7
			c1.7,0,3.4-0.5,5-1.4c1.3,0.8,2.9,1.2,4.5,1.2c2.2,0,4.4-0.7,6.7-2.2c1.1-0.7,2.2-1.7,3.8-3.4c0,0,0.1-0.1,0.1-0.1
			c0.6-0.6,1.2-1.3,1.7-1.9c0.1-0.1,0.2-0.2,0.2-0.3c1.1-1.3,1.6-2.9,1.6-4.5c0-1.5-0.4-2.8-1.2-3.9c0.8-1.6,1.5-3.1,2.3-4.6
			c0,0,0-0.1,0-0.1c0.7-1.4,1-2.7,1-4C227.7,88.1,227.3,86.9,227,86z M159.6,101.5l-0.2-0.3c0.1-0.1,0.3-0.2,0.4-0.3
			C159.8,101,159.7,101.2,159.6,101.5z"/>
		<path fill="#553107" d="M166.2,123.8c-3.5,0-5.8-1.3-7.2-2.4c-1.9-1.6-3-3.8-3.3-6.3c-1.2-0.2-2.4-0.6-3.5-1.2
			c-0.2-0.1-0.5-0.3-0.7-0.4c-1.9,1-3.6,1.5-5.3,1.5c-1.8,0-3.5-0.5-4.9-1.4c-0.3,0.2-0.6,0.3-0.8,0.4c-1.3,0.6-2.8,0.9-4.2,0.9
			c-0.9,0-1.8-0.1-2.7-0.4c-2.6,2.2-5.7,3.5-8.5,3.5c-3.2,0-7-1.9-9.3-4.5c-1.7-1.9-2.6-4.2-2.6-6.6c-0.2,0.2-0.4,0.5-0.6,0.7
			c-0.2,0.2-0.5,0.5-0.7,0.8c-0.6,0.7-1.5,1.5-2.9,2.6c-1.8,1.5-2.5,2-3,2.3l-0.1,0c-1.8,1.1-3.6,1.7-5.6,1.7
			c-1.2,0-2.3-0.2-3.4-0.7c-2.3,0.8-4.8,0.8-6.9-0.1c-1.7,1-3.5,1.4-5.4,1.4c-1.9,0-3.8-0.4-6-1.1c-2,0.9-4.1,1.3-6.2,1.3
			c-3.3,0-6.1-0.8-8.3-2.5c-2.7-2-4.1-4.8-4.1-7.9c0-2.8,1.1-5.3,3.1-7.2c0.8-0.8,2.3-1.8,4.3-2.4c-0.3-1.1-0.4-2.2-0.4-3.4
			c0-4.2,1.8-8,5.2-10.8c2.8-2.3,5.8-3.5,9-3.5c2.2,0,4,0.4,5.6,1.1c1.6-0.6,3.2-0.9,4.8-0.9c4.2,0,7.5,2.1,9,5.6
			c0.4,0.9,0.6,1.8,0.7,2.7c0.9-0.5,1.7-0.8,2.2-1l0.1,0c0.6-0.1,1.2-0.2,1.8-0.2c3.4,0,5.6,2.4,6.4,3.1l0,0
			c2.2,2.3,2.6,4.7,2.6,6.3c0,1-0.2,2-0.6,3.1c0.2,0.4,0.4,0.8,0.6,1.2c0.5-2.5,1.1-4.5,1.8-6.4c0.3-0.8,0.6-1.7,0.9-2.5
			c0.4-1.1,0.8-2.2,1.2-3.3c-3.7-2.7-5.1-5.7-4.5-9.1c0.1-0.3,0.1-1.4,0.2-2.2c0.2-4.1,0.6-11,3.4-16.8c0.6-1.2,1.5-2.1,2.8-2.6
			l0-0.1c0.6-1.7,2-3,3.8-3.4c0.1-2.2,0.3-4,0.7-5.6c0.6-2.3,2.8-3.9,5.4-3.9c2.1,0,3.9,1,4.8,2.6c1-2.1,2.7-3.4,4-4.4
			c0.1-0.1,0.3-0.2,0.4-0.3c0.9-1.7,3.4-7.2,6.6-14l0.4-0.9c0.8-1.7,2.6-2.9,4.5-3.2c0,0,0.2,0,0.6,0c2.1,0,4,1,5.2,2.6
			c0.7,1,1.8,3.2,0.7,6.3c-0.5,1.5-4.3,9.3-6.6,13.9c0.1,0.5,0.1,1,0.2,1.5c0.2,0,0.4,0.1,0.5,0.1c2.7,0.7,4.6,3.3,4.2,6.1
			c-0.2,1.8-1,4.3-2.2,7c0.9,1.2,1.2,2.8,0.9,4.3c-0.4,1.7-1.2,3.5-2.4,5.4c0.3,0.6,0.5,1.2,0.6,1.9c0.3,2-0.4,3.9-2,5.9
			c0,0-4.4,5.1-6.6,6.7c-0.4,0.3-1.4,1.1-2.2,1.8c-0.4,0.4-0.9,0.7-1.3,1.1c0.2,0,0.4,0,0.7,0c0.8,0,2.1,0.1,3.4,0.7
			c0.2-0.1,0.4-0.2,0.6-0.2l1-1.7c1.5-2.4,3.9-3.8,6.6-3.8c1.6,0,3.9,0.5,5.9,2.8l0,0.1c0.3,0.4,0.6,0.8,0.9,1.1
			c0.1,0.1,0.2,0.2,0.3,0.3c0.2,0.3,0.4,0.7,0.6,1c2.9-0.7,5.8-0.2,8,1.3c1.8-1.1,3.6-1.6,5.5-1.6c0.1,0,0.3,0,0.4,0
			c1.5-1.4,3.2-2.1,5.1-2.1c1.2,0,2.3,0.3,3.4,0.8c1.2-0.6,2.5-0.9,3.9-0.9c1.9,0,3.7,0.6,5.2,1.8c0.1,0.1,0.3,0.2,0.4,0.3
			c1.5,0.1,2.8,0.5,4,1.3c0.7-0.3,1.5-0.6,2.3-0.9c1-0.3,2.1-0.5,3.2-0.5c1.2-1,2.4-1.4,3.2-1.7l0.1,0c0.6-0.1,1.2-0.2,1.8-0.2
			c1.4,0,2.7,0.4,4,1.1c2.2-4.1,4.3-7.1,8.4-7.1c0.9,0,1.8,0.2,2.6,0.5c1.2,0.5,2.3,1.2,3.3,2.3c1.1,1.1,1.9,2.3,2.4,3.5
			c0.4,0.9,0.8,2.1,0.8,3.5c0,1.3-0.3,2.7-1,4.2l0,0.1c-0.7,1.4-1.4,2.9-2.2,4.4c0.8,1.2,1.1,2.5,1.1,4c0,1.8-0.6,3.5-1.7,4.8
			c-0.1,0.1-0.2,0.2-0.3,0.3c-0.6,0.6-1.2,1.2-1.7,1.9c0,0.1-0.1,0.1-0.1,0.2c-1.6,1.7-2.8,2.7-3.9,3.4c-2.4,1.5-4.7,2.3-6.9,2.3
			c-1.6,0-3.2-0.4-4.5-1.2c-1.6,0.9-3.3,1.3-5,1.3c-1.2,0-2.3-0.2-3.4-0.7c-2.6,0.9-5.5,0.7-7.8-0.5l0,0c-1.5,0.7-3.1,1.1-4.6,1.1
			c-2,0-3.8-0.6-5.3-1.7c-2,3.8-5.2,8.7-10.4,10C168.8,123.6,167.4,123.8,166.2,123.8z M151.6,112.4l0.2,0.2
			c0.3,0.2,0.6,0.4,0.8,0.5c1.1,0.6,2.3,1,3.5,1.1l0.4,0l0,0.4c0.1,2.4,1.2,4.6,3,6.1c1.2,1,3.3,2.2,6.6,2.2c1.2,0,2.5-0.2,3.8-0.5
			c3.9-0.9,7.1-4.1,10.1-10l0.2-0.5l0.4,0.3c1.5,1.2,3.3,1.8,5.2,1.8c1.4,0,2.9-0.3,4.3-1l0.4-0.2l0.2,0.1c2.2,1.2,5,1.4,7.5,0.5
			l0.2-0.1l0.2,0.1c1,0.4,2.1,0.6,3.2,0.6c1.6,0,3.2-0.4,4.8-1.3l0.2-0.1l0.2,0.1c1.3,0.8,2.8,1.2,4.3,1.2c2.1,0,4.2-0.7,6.5-2.2
			c1-0.7,2.2-1.7,3.8-3.3c0,0,0.1-0.1,0.1-0.1c0.6-0.6,1.2-1.3,1.7-1.9c0.1-0.1,0.2-0.2,0.2-0.3c1-1.2,1.5-2.7,1.5-4.3
			c0-1.3-0.4-2.6-1.1-3.7l-0.1-0.2l0.1-0.2c0.8-1.6,1.5-3.1,2.3-4.6l0-0.1c0.6-1.3,0.9-2.6,0.9-3.8c0-1.3-0.4-2.4-0.7-3.2
			c-0.4-1.2-1.2-2.2-2.2-3.2c-1-1-2-1.7-3-2.1c-0.7-0.3-1.5-0.4-2.3-0.4c-3.8,0-5.7,2.9-7.9,7.1l-0.2,0.4l-0.4-0.3
			c-1.2-0.8-2.5-1.3-3.9-1.3c-0.5,0-1.1,0.1-1.6,0.2l-0.1,0c-0.7,0.2-1.9,0.6-2.9,1.6l-0.1,0.1l-0.2,0c-1.1,0-2.1,0.2-3.1,0.5
			c-0.8,0.2-1.6,0.6-2.4,0.9l-0.2,0.1l-0.2-0.1c-1.1-0.8-2.5-1.2-3.9-1.3l-0.2,0l-0.1-0.1c-0.1-0.1-0.3-0.3-0.4-0.4
			c-1.3-1-2.9-1.6-4.6-1.6c-1.3,0-2.6,0.3-3.7,0.9l-0.2,0.1l-0.2-0.1c-1-0.5-2-0.8-3.1-0.8c-1.8,0-3.3,0.7-4.7,1.9l-0.1,0.1l-0.2,0
			c-0.2,0-0.4,0-0.5,0c-1.8,0-3.5,0.5-5.3,1.6l-0.2,0.1l-0.2-0.2c-2.2-1.5-5-2-7.8-1.3l-0.3,0.1l-0.2-0.3c-0.2-0.4-0.4-0.8-0.7-1.2
			c-0.1-0.1-0.1-0.2-0.2-0.3c-0.3-0.4-0.6-0.7-0.9-1.1l-0.1-0.1c-1.9-2.1-3.9-2.5-5.3-2.5c-2.4,0-4.5,1.2-5.8,3.4l-1.2,2l-0.1,0
			c-0.3,0.1-0.6,0.2-0.9,0.3l-0.2,0.1l-0.2-0.1c-1.3-0.6-2.4-0.7-3.2-0.7c-0.7,0-1.4,0.1-2.1,0.3l-0.4-0.7c0.7-0.6,1.5-1.3,2.5-2.1
			c0.8-0.7,1.8-1.5,2.2-1.9c2.1-1.6,6.4-6.6,6.4-6.6c1.5-1.8,2.1-3.5,1.8-5.2c-0.1-0.7-0.3-1.3-0.7-1.8l-0.1-0.2l0.2-0.2
			c1.3-1.9,2.1-3.6,2.4-5.3c0.3-1.3,0-2.7-0.9-3.8l-0.2-0.2l0.1-0.2c1.2-2.6,2-5.2,2.2-7c0.3-2.4-1.2-4.6-3.6-5.2
			c-0.3-0.1-0.5-0.1-0.8-0.1l-0.4,0l0-0.4c0-0.6-0.1-1.3-0.2-1.9l0-0.1l0.1-0.1c2.2-4.6,6.1-12.4,6.6-13.9c1-2.7,0.1-4.6-0.6-5.5
			c-1-1.4-2.7-2.3-4.5-2.3c-0.3,0-0.5,0-0.5,0c-1.7,0.2-3.2,1.3-3.8,2.7l-0.4,0.9c-3.3,7-5.8,12.4-6.7,14.1l0,0.1l-0.1,0.1
			c-0.2,0.1-0.4,0.3-0.5,0.4c-1.3,1-3,2.4-3.9,4.4c0,0.1-0.1,0.2-0.1,0.3c0,0.1-0.1,0.3-0.1,0.4l-0.4,1.2l-0.4-1.2
			c-0.6-1.9-2.3-3.1-4.4-3.1c-2.3,0-4,1.3-4.6,3.3c-0.4,1.6-0.6,3.4-0.7,5.7l0,0.3l-0.3,0.1c-1.7,0.3-3,1.4-3.5,3
			c0,0.1,0,0.1-0.1,0.1c0,0,0,0.1-0.1,0.1l-0.1,0.2l-0.2,0.1c-1.1,0.4-2,1.3-2.5,2.3c-2.7,5.6-3.1,12.4-3.3,16.5
			c-0.1,1.1-0.1,2-0.2,2.3c-0.6,3.2,0.8,5.9,4.4,8.5l0.3,0.2l-0.1,0.3c-0.4,1.1-0.9,2.4-1.3,3.6c-0.3,0.9-0.6,1.8-0.9,2.6
			c-0.9,2.3-1.5,4.8-2.1,8l-0.8,0c-0.1-1-0.5-2-1.1-2.8l-0.1-0.2l0.1-0.2c0.4-1.1,0.6-2.1,0.6-3c0-1.4-0.4-3.6-2.4-5.7l0.3-0.3
			l-0.3,0.3c-0.7-0.7-2.7-2.9-5.7-2.9c-0.5,0-1.1,0.1-1.6,0.2l-0.1,0c-0.6,0.2-1.6,0.5-2.6,1.3l-0.7,0.5l0-0.8
			c0-1.1-0.3-2.2-0.7-3.2c-1.3-3.2-4.4-5.1-8.2-5.1c-1.6,0-3.2,0.3-4.7,0.9l-0.2,0.1l-0.2-0.1c-1.5-0.7-3.3-1.1-5.4-1.1
			c-3,0-5.8,1.1-8.4,3.3c-3.2,2.6-4.9,6.1-4.9,10.1c0,1.3,0.2,2.5,0.5,3.6l0.1,0.4L68,96.6c-2.1,0.5-3.6,1.5-4.4,2.3
			c-1.8,1.7-2.8,4-2.8,6.6c0,2.8,1.3,5.4,3.8,7.2c2.1,1.5,4.7,2.3,7.8,2.3c2,0,4.1-0.4,6-1.3l0.2-0.1l0.2,0.1c2.1,0.8,4,1.2,5.8,1.2
			c1.8,0,3.5-0.5,5.2-1.4l0.2-0.1l0.2,0.1c2.1,0.8,4.5,0.8,6.7,0.1l0.2-0.1l0.2,0.1c1,0.4,2.1,0.6,3.2,0.6c1.8,0,3.5-0.5,5.1-1.5
			l0,0c0.5-0.3,1.2-0.8,2.9-2.3c1.3-1.1,2.2-1.9,2.8-2.6c0.3-0.3,0.5-0.5,0.7-0.8c0.6-0.6,1-1.3,1.4-2l0.8,0.2l0,0
			c-0.4,2.7,0.4,5.4,2.3,7.5c2.2,2.5,5.7,4.3,8.6,4.3c2.7,0,5.7-1.2,8.1-3.4l0.2-0.2l0.2,0.1c0.8,0.3,1.7,0.4,2.6,0.4
			c1.4,0,2.7-0.3,3.9-0.8c0.3-0.1,0.6-0.3,1-0.5l0.2-0.1l0.2,0.1c1.4,0.9,3,1.4,4.7,1.4c1.6,0,3.3-0.5,5.2-1.5L151.6,112.4z
			 M159.7,102.5l-0.8-1.4l0.3-0.2c0.1-0.1,0.3-0.2,0.4-0.3l0.7,0.5c-0.1,0.2-0.2,0.4-0.2,0.6L159.7,102.5z"/>
	</g>
	<path fill="#553107" d="M107.8,101.6c-0.2-0.2-0.3-0.3-0.4-0.3c-0.1,0-0.2,0.1-0.5,0.4c-0.4,0.5-0.9,1-1.6,1.5
		c-0.7,0.6-1.2,0.9-1.3,0.8c-0.1-0.1-0.2-0.3-0.2-0.6c0-0.5,0.2-1.2,0.6-1.9c1.1-2,1.9-3.5,2.4-4.5c0.5-0.9,0.7-1.5,0.7-1.9
		c0-0.5-0.3-1.1-0.8-1.7c-0.7-0.7-1.2-1-1.5-1c-0.5,0.1-0.8,0.5-1.1,1.2c0,0-0.2,0.4-0.6,1.2c-0.7-0.4-1.5-0.6-2.7-0.6
		c-0.6,0-1.2,0.1-1.7,0.2c-1.2,0.3-2.2,0.9-3.1,1.7c-0.5,0.5-1,1.1-1.7,2c-1,1.2-1.8,2-2.3,2.4c-0.3,0.3-0.7,0.6-1,0.9
		c-0.3,0-0.5,0.2-0.8,0.6c-1.2,1.6-2.5,2.6-4.1,2.9c-0.5,0.1-1.2,0.2-1.9,0.2c-1.2,0-2.5-0.2-3.8-0.5c1.6-1.8,2.9-4,3.9-6.7
		c2.2-0.7,4.2-1.8,6.1-3.5c2.1-1.8,3.4-3.8,3.9-5.8c0.2-0.8,0.2-1.6-0.1-2.2c-0.4-0.9-1.3-1.4-2.7-1.4c-2.3,0-4.6,1.2-6.9,3.6
		c-1.7,1.7-3.1,3.8-4.3,6.3c-0.3,0.6-0.5,1.1-0.7,1.5c-1.6-0.2-2.7-0.8-3.4-1.6c-0.6-0.7-0.9-1.8-0.8-3.2c0.1-1.5,0.8-2.8,2.1-3.9
		c1.2-1,2.4-1.4,3.7-1.4c0.8,0,1.5,0.1,2,0.2c0.1,0.1,0.2,0.1,0.4,0.1c0.6,0,0.8-0.2,0.8-0.7c0-0.2-0.1-0.4-0.4-0.6
		c-0.7-0.4-1.7-0.6-2.9-0.6c-1.5,0-3.1,0.6-4.6,1.9c-1.8,1.5-2.7,3.4-2.7,5.5c0,2.9,1.7,4.8,5,5.7c-0.9,2-1.9,3.7-3,5.1
		c-2.1-0.7-3.8-1-5-1c-1.3,0-2.3,0.3-3,1c-0.6,0.6-0.9,1.3-0.9,2.2c0,0.9,0.5,1.7,1.4,2.4c1,0.8,2.5,1.1,4.3,1.1
		c2,0,3.9-0.7,5.8-2.1c2.5,1.3,4.6,2,6.4,2c1.3,0,2.7-0.8,4.2-2.3c0.5-0.5,1.4-1.6,2.5-3.3c0.1,0,0.1,0,0.2,0
		c-0.4,0.8-0.6,1.5-0.6,2.3c0,0.7,0.2,1.3,0.7,1.8s1.1,0.7,1.8,0.7c0.7,0,1.5-0.2,2.2-0.6c0.7-0.4,1.7-1.1,2.8-2
		c-0.1,0.4-0.2,0.7-0.2,1c0,0.6,0.2,1,0.6,1.3c0.4,0.3,0.9,0.4,1.4,0.4c0.6,0,1.3-0.2,2-0.6c0.4-0.2,1.1-0.8,2.2-1.8
		c1.1-0.9,1.9-1.6,2.3-2.1c0.3-0.3,0.6-0.6,0.8-0.9c0.3-0.3,0.4-0.5,0.4-0.7C108,102,107.9,101.8,107.8,101.6z M88.4,88.4
		c0.5-0.7,1.1-1.2,1.8-1.6c0.3-0.2,0.6-0.2,1.1-0.2c0.4,0,0.7,0.1,0.9,0.4c0.2,0.3,0.3,0.6,0.3,1c0,1.3-1,2.9-2.9,4.8
		c-1.7,1.7-3.3,2.9-4.7,3.4C86.2,92.6,87.4,90,88.4,88.4z M70.8,106.8c-0.5,0-1-0.2-1.5-0.5c-0.4-0.3-0.6-0.8-0.6-1.3
		c0-0.9,0.6-1.4,1.7-1.4c1,0,2.3,0.4,3.9,1.2C73.1,106.2,71.9,106.8,70.8,106.8z M100.3,101c-0.4,0.6-0.9,1.3-1.5,1.9
		c-0.8,0.8-1.4,1.2-1.8,1.2c-0.4,0-0.5-0.2-0.5-0.7c0-0.7,0.6-1.8,1.7-3.4c1.5-2.1,2.5-3.1,3-3.1c0.4,0,0.6,0.2,0.6,0.7
		C101.8,98.4,101.3,99.5,100.3,101z"/>
	<path d="M159.1,99.8c0.1,0.2,0.2,0.3,0.4,0.4c0.2-0.2,0.4-0.3,0.5-0.5c0.5-0.5,0.9-1,1.3-1.3c0.4-0.5,0.9-1.1,1.6-1.9
		c-0.4-0.3-0.9-0.5-1.4-0.6c-0.1,0.6-0.4,1.3-0.8,1.9c0,0.1-0.1,0.1-0.1,0.2l-0.5,0.8C159.7,99.2,159.5,99.5,159.1,99.8
		C159.1,99.8,159.1,99.8,159.1,99.8z"/>
	<path fill="#553107" d="M221,90.6c0.2-0.5,0.4-0.9,0.4-1.2c0-0.2-0.1-0.6-0.3-1.1c-0.1-0.4-0.4-0.8-0.8-1.2
		c-0.4-0.4-0.8-0.7-1.1-0.8c-0.3-0.1-1.4,1.5-3.2,4.9c-0.4,0.8-1.3,2.2-2.6,4.2c-1.3,2-2.3,3.3-2.8,4c-0.7,0.8-1.3,1.4-1.7,1.9
		c-0.1,0-0.2,0.1-0.4,0.4c-0.4,0.5-0.9,1-1.6,1.5c-0.7,0.6-1.2,0.9-1.3,0.8c-0.1-0.1-0.2-0.3-0.2-0.6c0-0.5,0.2-1.2,0.6-1.9
		c1.1-2,1.9-3.5,2.4-4.5c0.5-0.9,0.7-1.5,0.7-1.9c0-0.5-0.3-1.1-0.8-1.7c-0.7-0.7-1.2-1-1.5-1c-0.5,0.1-0.8,0.5-1.1,1.2
		c0,0-0.2,0.4-0.6,1.2c-0.7-0.4-1.5-0.6-2.7-0.6c-0.6,0-1.2,0.1-1.7,0.2c-1.2,0.3-2.2,0.9-3.1,1.7c-0.5,0.5-1,1.1-1.7,2
		c-1,1.2-1.8,2-2.3,2.4c-0.3,0.3-0.7,0.6-1,0.9c-0.3,0.3-0.5,0.5-0.5,0.7c-0.5,0.5-0.9,0.9-1.2,1.2c-0.3,0.3-0.6,0.5-0.9,0.5
		c-0.2-0.1-0.2-0.5,0-1.2c0.8-1.8,1.6-3.5,2.2-4.9c0.2-0.4,0.4-0.8,0.6-1.2c0.2-0.4,0.3-0.8,0.3-1.1c0-0.2,0-0.3-0.1-0.5
		c-0.1-0.5-0.4-0.7-1-0.7c-0.4,0-1,0.2-1.9,0.5c-1,0.3-1.8,0.4-2.3,0.1c0.2-0.5,0.4-1,0.4-1.4s-0.1-0.7-0.4-0.9
		c-0.3-0.2-0.6-0.3-0.9-0.3c-1,0-1.7,0.5-2.2,1.4c-0.3,0.6-0.5,1.1-0.5,1.6c0,0.6,0.2,1,0.7,1.4c-0.6,1-1.3,2-2.1,3
		c-0.4,0.5-0.9,1.1-1.6,1.9c-0.2,0.1-0.3,0.3-0.5,0.5c-0.1,0.1-0.9,0.8-2.3,2.2c-0.4,0.4-0.9,0.8-1.6,1.2c2.3-4.8,3.9-8.2,4.8-10.2
		c0.1-0.3,0-0.6-0.3-1c-0.2-0.3-0.4-0.6-0.6-0.9c-0.5-0.7-0.9-1.1-1.2-1.1c-0.6,0-1.3,1-2.1,3.1c0-0.7-1.1-1.1-3.4-1.1
		c-1.1,0-2.5,0.7-4.1,2.2c-0.4,0.3-1.3,1.3-2.8,2.9c-1,1.1-1.7,2-2.1,2.5c-0.3,0.3-0.7,0.7-1.3,1.3c-0.6,0.6-1.3,1.1-2,1.6
		c-0.9,0.5-1.6,0.7-2.1,0.7c-0.9,0-1.3-0.6-1.2-1.7c2.2-0.7,4.1-1.9,5.8-3.7c1.2-1.3,1.8-2.4,1.8-3.4c0-0.6-0.3-1.2-0.8-1.8
		c-0.5-0.5-1.2-0.8-2-0.8c-1.3,0-2.7,0.6-4.4,1.9c-1.2,0.9-2.3,2-3.4,3.3c-1.1,1.3-1.8,2.1-2,2.2c-0.2,0.1-0.3,0.2-0.4,0.4
		c-0.8,0.7-1.5,1.3-2.1,1.7c-0.2,0.2-0.4,0.3-0.7,0.4c-0.3,0.1-0.5,0.1-0.6,0c-0.3-0.2-0.4-0.6-0.1-1.3c0.1-0.2,0.9-1.8,2.3-4.6
		c0.2-0.4,0.7-0.4,1.4-2.4c0.3,0,0.6,0,1.1,0c0.4,0,0.7,0,0.9,0c0.4,0,0.7,0,0.9-0.1l0.5-0.8c0.1-0.2,0.2-0.3,0.2-0.4
		c0-0.3-0.8-0.5-2.5-0.5c0.2-0.4,0.3-0.6,0.3-0.6c0.3-0.6,0.4-1.1,0.4-1.6c0-0.4-0.1-0.9-0.4-1.3c-0.2-0.3-0.5-0.6-0.8-0.9
		c-0.3-0.4-0.6-0.5-0.8-0.5c-0.3,0-0.5,0.2-0.7,0.5c-1.3,2.2-2.1,3.5-2.2,3.7c-0.1,0.2-0.3,0.4-0.5,0.7c-1.3,0-2.1,0.2-2.3,0.6
		c-0.1,0.2-0.2,0.4-0.2,0.5c0,0.5,0.3,0.8,1,0.8c-1.8,2.1-3.4,3.9-4.7,5.4c-0.1,0.1-0.2,0.2-0.3,0.3c-0.4,0.5-0.6,0.8-0.7,0.8
		c-1.1,0.9-1.9,1.4-2.4,1.4c-0.2,0-0.2-0.1-0.2-0.3c0-0.4,0.7-1.9,2-4.5c0.9-1.8,1.4-3,1.4-3.4c0-0.2,0-0.3-0.1-0.5
		c-0.5-0.7-1-1-1.6-1c-0.3,0-0.7,0.1-1.2,0.4c-0.5,0.3-0.9,0.6-1.4,0.8c-0.7,0.4-1.7,1.3-3.2,2.6c-0.6,0.5-1.3,1.2-2,1.8
		c0.6-0.9,1-1.6,1.1-2c0.2-0.6,0.2-1.3,0-2.1c-0.1-0.4-0.3-0.7-0.7-1.1c-0.4-0.4-0.7-0.6-1.1-0.7c-0.5-0.1-1.5,1-3,3.3
		c-1.5,2-2.8,3.7-3.9,5c-0.2,0.3-0.3,0.6-0.3,0.7c0,0.2,0.1,0.2,0.4,0.2c0.4,0,1.8-1.4,4.1-4.2c-1.4,2.8-2.3,4.6-2.6,5.3
		c0,0.1-0.3,0.5-0.8,1.3c-0.3,0.5-0.5,1-0.5,1.3c0,0.7,0.4,1.1,1.1,1.1c0.5,0,1.2-0.3,1.9-0.8c0.7-0.5,1.3-1.1,1.8-1.8
		c0.5-0.7,1.4-1.8,2.6-3.2c1.1-1.3,1.9-2.1,2.2-2.5c0.4-0.4,0.8-0.6,1.1-0.6c0.1,0,0.2,0.1,0.2,0.2c0,0.1,0,0.2-0.1,0.4
		c-2,3.7-2.9,6-2.7,6.8c0.1,0.9,0.8,1.4,2,1.4c0.5,0,1.1-0.1,1.6-0.3c0.5-0.2,1.4-0.9,2.8-2.1c1.2-1,2.1-1.8,2.5-2.3
		c0.1-0.1,0.1-0.1,0.2-0.2c0.1-0.1,0.2-0.1,0.3-0.2c1.2-1.4,2.2-2.5,3-3.6c-1.7,2.9-2.6,5-2.8,6.4c-0.1,0.6,0.1,1.1,0.5,1.6
		c0.5,0.6,1.1,0.9,1.9,0.9c1,0,2.4-0.7,4.4-2.1c1.5-1.1,2.6-2,3.4-2.9c-0.1,0.1-0.1,0.2-0.2,0.4c0,0.2-0.1,0.5-0.2,1
		c-0.1,0.5,0,1,0.4,1.7c0.4,0.8,0.9,1.4,1.6,1.8c0.5,0.3,1.1,0.4,1.7,0.4c2.1,0,4.5-1.2,7.1-3.6c0.6-0.5,1-1,1.4-1.4
		c-0.3,0.5-0.4,1.2-0.4,2.1c0,0.7,0.1,1.2,0.3,1.5c0.5,0.7,1.3,1.1,2.5,1.1c0.9,0,1.9-0.2,2.9-0.7c0,0.1-0.1,0.3-0.3,0.8
		c-1.2,0.4-2,0.8-2.5,1c-1.2,0.6-2.5,1.2-3.7,1.8c-1.3,0.8-2,1.7-2.1,2.7c-0.1,1,0.2,1.8,0.8,2.4c0.7,0.6,1.6,0.8,2.8,0.8
		c0.7,0,1.5-0.1,2.4-0.3c2.3-0.6,4.7-3.6,7.3-9c2.4-1.3,4.4-2.8,5.9-4.5c0.3-0.3,0.5-0.6,0.6-0.9c0.9-1,2.3-2.7,4.1-5.1
		c0.9,0,1.3,0.3,1.3,0.8c0,0.5-0.4,1.2-1.1,2.2c-1.9,2.4-2.9,4.2-3.1,5.5c-0.1,0.6,0.1,1.1,0.6,1.7c0.5,0.5,1.1,0.8,1.8,0.8
		c0.5,0,1.1,0.2,1.6-0.1c1.9-0.9,3.7-2.1,5.4-4.1c0,0,0,0,0,0c-0.4,0-0.6,1.2-0.6,1.9c0,0.7,0.2,1.1,0.7,1.6
		c0.5,0.5,1.1,0.6,1.8,0.6c0.7,0,1.5-0.3,2.2-0.7c0.7-0.4,1.7-1.1,2.8-2.1c-0.1,0.4-0.2,0.7-0.2,1c0,0.6,0.2,1,0.6,1.3
		c0.4,0.3,0.9,0.4,1.4,0.4c0.6,0,1.3-0.2,2-0.6c0.4-0.2,1.1-0.8,2.2-1.8c1.1-0.9,1.9-1.6,2.3-2.1c0.2-0.2,0.4-0.4,0.5-0.6
		c0.7-0.5,1.9-2,3.6-4.4c-2.2,3.7-3.3,6.1-3.3,7.5c0,0.2,0,0.4,0.1,0.6c0.4,0.9,1.1,1.3,2.1,1.3c0.9,0,2-0.4,3.3-1.2
		c0.6-0.4,1.5-1.2,2.7-2.4c0.6-0.7,1.2-1.3,1.8-2c0.1-0.1,0.2-0.3,0.2-0.5c0-0.4-0.2-0.5-0.7-0.5c-0.3,0-0.8,0.4-1.5,1.1
		c-0.7,0.8-1.3,1.2-1.6,1.2c-0.4,0.1-0.6,0-0.6-0.4c0-0.2,0.1-0.6,0.3-1.2C217.3,98.1,219.2,94.2,221,90.6z M161,98.7
		c1-1.3,1.7-2,2-2c0.2,0,0.4,0.2,0.4,0.5c0,0.7-0.3,1.4-0.9,2.1c-1,1.1-1.7,1.7-2,1.7c-0.3,0-0.5-0.1-0.5-0.4
		C159.9,100.1,160.3,99.5,161,98.7z M168.1,113.6c-0.6,1-1.1,1.5-1.7,1.5c-0.4,0-0.5-0.3-0.5-0.8c0-0.4,0.1-0.9,0.4-1.4
		c0.6-1.1,1.7-2,3.6-2.7C169.3,111.5,168.7,112.6,168.1,113.6z M174.5,101.1c-1,1.8-2,2.8-2.8,2.8c-0.2,0-0.3,0-0.5-0.1
		c-0.3-0.1-0.4-0.3-0.4-0.5c0-0.5,0.6-1.7,1.9-3.7c1.1-1.7,2-2.6,2.7-2.6c0.1,0,0.3,0,0.4,0.1c0.2,0.1,0.3,0.2,0.3,0.5
		C176,98.1,175.5,99.3,174.5,101.1z M201.8,101c-0.4,0.6-0.9,1.3-1.5,1.9c-0.8,0.8-1.4,1.2-1.8,1.2c-0.4,0-0.5-0.2-0.5-0.7
		c0-0.7,0.6-1.8,1.7-3.4c1.5-2.1,2.5-3.1,3-3.1c0.4,0,0.6,0.2,0.6,0.7C203.3,98.4,202.8,99.5,201.8,101z"/>
	<path fill="#553107" d="M131.9,108c-1.8,2.7-4.7,4.3-6.9,4.3s-6.9-2.5-6.3-6.4c0.6-3.9,1.3-7.7,2.5-11c1.3-3.3,2.7-8,4.1-9.9
		c-2.8-1.6-6.6-3.5-6.1-6c0.5-2.4,0-11.3,3.1-17.7c-0.1,4.1-1.1,12.3-0.3,13.4c0.8,1.1,4.6,2.8,6.3,3.1c0.9-2.1,2.6-5.2,2.6-5.2
		c-2.1-1.6-4.6-2.9-5.3-5.4s-1.4-6.1-0.3-9.2c0.8,2.6,0.7,5.3,1.5,5.9c0.8,0.6,6,3.3,7.4,3.1c0.8-1.6,1.5-4,1.5-4l-4.9-3.3
		c0,0-1.1-1.5-1.1-2.5s-0.3-5.6,0.5-8.7c0.8,3.2,1,5.7,1.4,6.2s2.8,1.6,2.8,1.6l1.5,0.5c0,0,2.1,0.8,2.5,0.8c0.7-1,1.6-3.2,1.6-3.2
		s-0.7-4.2,0-5.9c0.7-1.6,3.4-3,4.1-4c0.5-0.9,5.6-11.6,7.1-14.9c0.3-0.6,0.4-0.9,0.4-0.9s1.3-0.1,0.7,1.5c-0.6,1.6-7.2,15-7.2,15
		s1.2,3.7,0,6.7c-1.2,3-2.2,2.9-3.6,3.6c-1.4,0.7-1.1,1.5-1.1,1.5s-0.3,0.7-0.2,1.1s1.3,1.8,2.4,2.1c1.1,0.2,2.2,0.6,3.1,0
		c0.9-0.6,4.1-5.6,4.7-7.2c-0.3,2.8-3,8.4-4,9.5s-2.1,1.5-3.2,1.6c-1.1,0.1-4.4-0.3-5.1-0.3c-0.6,1.6-1.4,3.4-1.4,3.4s2.2,1,2.9,1
		s2.1,0.1,2.9,0.2c0.8,0.1,4.9-2,6.6-4.7c-0.6,2.8-3.6,6.2-5,7.4c-1.4,1.1-4.7,2.1-6.3,2.1c-1.6,0-3.7-0.1-4.2,0
		c-1.6,2.5-2.5,5.3-2.8,5.7c1.1,0.7,4,1.4,6.5,0.6c2.5-0.8,4.1-2.2,5.7-3.6c1.6-1.4,3.7-3.3,4-3.1s-0.1,1-0.7,1.7
		c-0.6,0.7-4.2,4.8-5.6,5.9c-1.4,1-4.7,4.1-5.8,4.8c-1.2,0.7-5.1,1.8-7.1,1.4c-2,4.7-4.4,10.5-5.1,13c-0.7,2.5-1.6,7.9,0.2,8.9
		S127.9,110.2,131.9,108z"/>
	<path fill="#553107" d="M235.3,90.9c-2.6,0-4.7-2.1-4.7-4.7c0-2.6,2.1-4.7,4.7-4.7c2.6,0,4.7,2.1,4.7,4.7
		C240,88.7,237.9,90.9,235.3,90.9z"/>
	<path fill="#FFFFFF" d="M235.3,82.2c-2.1,0-3.9,1.7-3.9,3.9c0,2.1,1.7,3.9,3.9,3.9c2.1,0,3.9-1.7,3.9-3.9
		C239.1,84,237.4,82.2,235.3,82.2z"/>
	<g>
		<path fill="#553107" d="M233.4,88.2v-4.4h2.3c0.4,0,0.7,0,1,0.1c0.2,0.1,0.4,0.2,0.5,0.4s0.2,0.4,0.2,0.7c0,0.2-0.1,0.5-0.2,0.6
			c-0.1,0.2-0.2,0.3-0.4,0.4c-0.1,0.1-0.3,0.1-0.5,0.2c0.2,0.1,0.3,0.1,0.4,0.2c0,0,0.1,0.1,0.2,0.2c0.1,0.1,0.2,0.2,0.2,0.3
			l0.7,1.3h-1.5l-0.7-1.3c-0.1-0.2-0.2-0.3-0.2-0.3c-0.1-0.1-0.2-0.1-0.3-0.1h-0.1v1.8H233.4z M234.7,85.6h0.6c0.1,0,0.2,0,0.4-0.1
			c0.1,0,0.2-0.1,0.2-0.1c0.1-0.1,0.1-0.2,0.1-0.3c0-0.1,0-0.3-0.1-0.3c-0.1-0.1-0.3-0.1-0.5-0.1h-0.6V85.6z"/>
	</g>
</g>
</svg>
