<?xml version="1.0" encoding="utf-8"?>
<!-- Generator: Adobe Illustrator 18.0.0, SVG Export Plug-In . SVG Version: 6.00 Build 0)  -->
<!DOCTYPE svg PUBLIC "-//W3C//DTD SVG 1.1//EN" "http://www.w3.org/Graphics/SVG/1.1/DTD/svg11.dtd">
<svg version="1.1" id="Layer_1" xmlns="http://www.w3.org/2000/svg" xmlns:xlink="http://www.w3.org/1999/xlink" x="0px" y="0px"
	 viewBox="0 0 323.2 70" enable-background="new 0 0 323.2 70" xml:space="preserve">
<g>
	<g>
		<g>
			
				<linearGradient id="SVGID_1_" gradientUnits="userSpaceOnUse" x1="-2423.5442" y1="3033.4744" x2="-2026.9366" y2="3033.4744" gradientTransform="matrix(9.407338e-02 0 0 -9.407338e-02 246.6256 311.1975)">
				<stop  offset="0" style="stop-color:#000000"/>
				<stop  offset="1" style="stop-color:#BCBEC0"/>
			</linearGradient>
			<path fill="url(#SVGID_1_)" d="M26.7,30.1c0-15.4,12.5-27.9,27.9-27.9c0.5,0,0.9,0,1.3,0.1C52.6,0.9,49,0,45.1,0
				C30.5,0,18.6,11.9,18.6,26.5c0,11.7,7.7,21.7,18.3,25.2C30.7,46.5,26.7,38.8,26.7,30.1z"/>
			<path fill="#ED1C24" d="M21.6,44.2C11.8,32.4,13.5,14.8,25.4,5c0.3-0.3,0.7-0.5,1.1-0.8c-3.5,1-6.9,2.6-9.8,5.1
				c-11.3,9.3-12.9,26-3.6,37.3c7.5,9.1,19.7,11.9,30.1,7.8C35.1,54.3,27.1,50.9,21.6,44.2z"/>
			
				<linearGradient id="SVGID_2_" gradientUnits="userSpaceOnUse" x1="-2621.6299" y1="2836.7107" x2="-2096.1895" y2="2836.7107" gradientTransform="matrix(9.407338e-02 0 0 -9.407338e-02 246.6256 311.1975)">
				<stop  offset="0" style="stop-color:#000000"/>
				<stop  offset="1" style="stop-color:#BCBEC0"/>
			</linearGradient>
			<path fill="url(#SVGID_2_)" d="M26.3,57.6c-15-3.1-24.7-18-21.6-33c0.1-0.4,0.2-0.9,0.3-1.3c-2.1,2.9-3.7,6.3-4.5,10.1
				c-3,14.3,6.2,28.4,20.5,31.4c11.5,2.4,22.8-3,28.4-12.7C43.2,57.1,34.8,59.4,26.3,57.6z"/>
			<path fill="#ED1C24" d="M55.6,39.9c0,15.4-12.5,27.9-27.9,27.9c-0.5,0-0.9,0-1.3-0.1c3.3,1.5,7,2.3,10.8,2.3
				c14.6,0,26.5-11.9,26.5-26.5c0-11.7-7.7-21.7-18.3-25.2C51.6,23.4,55.6,31.2,55.6,39.9z"/>
			
				<linearGradient id="SVGID_3_" gradientUnits="userSpaceOnUse" x1="-2205.2261" y1="2884.3979" x2="-1820.8918" y2="2884.3979" gradientTransform="matrix(9.407338e-02 0 0 -9.407338e-02 246.6256 311.1975)">
				<stop  offset="0" style="stop-color:#000000"/>
				<stop  offset="1" style="stop-color:#BCBEC0"/>
			</linearGradient>
			<path fill="url(#SVGID_3_)" d="M60.7,25.8C70.5,37.6,68.8,55.2,57,65c-0.3,0.3-0.7,0.5-1.1,0.8c3.5-1,6.9-2.6,9.8-5.1
				c11.3-9.3,12.9-26,3.6-37.3c-7.5-9.1-19.7-11.9-30.1-7.8C47.2,15.7,55.2,19.1,60.7,25.8z"/>
			<path fill="#ED1C24" d="M56,12.4c15,3.1,24.7,18,21.6,33c-0.1,0.4-0.2,0.9-0.3,1.3c2.1-2.9,3.7-6.3,4.5-10.1
				c3-14.3-6.2-28.4-20.5-31.4c-11.5-2.4-22.8,3-28.4,12.7C39.2,12.9,47.6,10.6,56,12.4z"/>
		</g>
		<g>
			
				<linearGradient id="SVGID_4_" gradientUnits="userSpaceOnUse" x1="-2005.4481" y1="2849.5305" x2="-1844.3342" y2="3205.1975" gradientTransform="matrix(9.407338e-02 0 0 -9.407338e-02 246.6256 311.1975)">
				<stop  offset="0" style="stop-color:#000000"/>
				<stop  offset="1" style="stop-color:#BCBEC0"/>
			</linearGradient>
			<path fill="url(#SVGID_4_)" d="M67.2,48.5H38.3l3.9-10.7h15.9L49.3,34c-3.1-1.2-4.2-4.1-2.9-7.6c0.5-1.2,0.8-2.1,1.2-2.7l0.1-0.2
				l0.1-0.2c0.3-0.4,0.7-0.9,1.2-1.6c0.8-1.3,2.3-2.4,4.8-3.4c2.2-0.9,4.6-1.3,7.1-1.3h26l-4,10.9H65.2l10.7,4.7c2,0.9,3,2.7,2.9,5
				c-0.1,1.7-0.4,3.2-1.1,4.7l-0.1,0.2c-0.9,1.4-2.1,2.8-3.9,4C71.9,47.8,69.7,48.5,67.2,48.5L67.2,48.5z M44.8,43.9h22.4
				c1.5,0,2.7-0.4,3.8-1.2c1.2-0.9,2-1.7,2.6-2.6c0.4-0.8,0.6-1.8,0.6-2.8c0-0.5-0.1-0.6-0.3-0.7l-17.2-7.5c-0.4-0.1-0.7-0.4-1-0.7
				c-0.8-0.9-0.5-2-0.5-2.4l0-0.3l0.1-0.3c0.6-1.4,1.8-2.1,3.2-2.1h21.1l0.6-1.8H60.9c-2,0-3.8,0.3-5.5,1c-2.2,0.9-2.6,1.5-2.6,1.5
				c-0.5,0.9-1.1,1.6-1.6,2.2C51.2,26.5,51,27,50.6,28c-0.5,1.5-0.2,1.6,0.3,1.8l0.1,0l15.8,6.8c0.5,0.2,1.6,1,1.5,2.9
				c-0.1,1.4-1.1,2.8-3.3,2.8H45.4L44.8,43.9L44.8,43.9z"/>
			
				<linearGradient id="SVGID_5_" gradientUnits="userSpaceOnUse" x1="-1733.9589" y1="2726.5474" x2="-1572.8452" y2="3082.2139" gradientTransform="matrix(9.407338e-02 0 0 -9.407338e-02 246.6256 311.1975)">
				<stop  offset="0" style="stop-color:#000000"/>
				<stop  offset="1" style="stop-color:#BCBEC0"/>
			</linearGradient>
			<path fill="url(#SVGID_5_)" d="M94.2,48.5H81.2L92.7,17h13l-7.2,19.6L94.2,48.5L94.2,48.5z M87.8,43.9H91l3.3-8.9l4.9-13.4h-3.3
				L87.8,43.9L87.8,43.9z"/>
			
				<linearGradient id="SVGID_6_" gradientUnits="userSpaceOnUse" x1="-1476.5834" y1="2609.9592" x2="-1315.4694" y2="2965.627" gradientTransform="matrix(9.407338e-02 0 0 -9.407338e-02 246.6256 311.1975)">
				<stop  offset="0" style="stop-color:#000000"/>
				<stop  offset="1" style="stop-color:#BCBEC0"/>
			</linearGradient>
			<path fill="url(#SVGID_6_)" d="M112.7,48.5H99.8l3.9-10.8l4.2-11.4l3.4-9.2h23c4.6,0,7.3,1,8.6,3c1.2,2,1.3,4.6,0.1,7.7l-0.8,2.1
				c-1.1,2.9-2.7,5.2-4.9,6.8c-2.2,1.6-5.3,2.4-9.5,2.4h-11.7L112.7,48.5L112.7,48.5z M106.3,43.9h3.3l3.4-9.3h14.9
				c3.1,0,5.4-0.5,6.8-1.5c1.5-1.1,2.5-2.6,3.3-4.7l0.8-2.1c0.6-1.8,0.8-3.1,0.3-3.7c0,0-0.6-0.9-4.8-0.9h-19.8l-2.3,6.3L108,39.3
				L106.3,43.9L106.3,43.9z M126.3,33.1h-12.8l3.6-9.9h11.2c2.1,0,4.7,0.3,5.8,2.2c0.7,1.3,0.9,2.5,0.5,3.5c-0.3,0.9-1,1.7-2.3,2.7
				C130.9,32.6,129,33.1,126.3,33.1L126.3,33.1z M120,28.5h6.3c2.3,0,3-0.4,3.1-0.5c0.1-0.1,0.2-0.2,0.3-0.2c-0.3,0-0.8-0.1-1.4-0.1
				h-8L120,28.5L120,28.5z"/>
		</g>
		<g>
			<path fill="#ED1C24" d="M54.7,20.4c-1.9,0.8-3.2,1.6-3.7,2.4c-0.5,0.9-1,1.5-1.5,2c-0.3,0.5-0.6,1.2-1,2.3
				c-0.9,2.4-0.3,4,1.7,4.7l15.7,6.7c0.2,0.1,0.3,0.3,0.3,0.8c0,0.4-0.4,0.6-1,0.6H43.8l-2.2,6.1h25.7c2,0,3.7-0.5,5.2-1.6
				c1.5-1.1,2.5-2.2,3.3-3.4c0.5-1.2,0.8-2.4,0.9-3.8c0-1.4-0.5-2.3-1.6-2.8L57.6,27c-0.1,0-0.1-0.2,0-0.6c0.3-0.6,0.6-0.8,1.1-0.8
				h16.6h6.1l2.3-6.3H61C58.7,19.3,56.6,19.7,54.7,20.4z"/>
			<polygon fill="#ED1C24" points="84.5,46.2 92.6,46.2 96.4,35.8 102.5,19.3 94.3,19.3 			"/>
			<path fill="#ED1C24" d="M141,21.3c-0.9-1.3-3.1-2-6.7-2h-11.9h-9.5L110,27l-4.2,11.4l-2.8,7.7h8.1l3.4-9.3h5h3.6h4.7
				c3.6,0,6.3-0.7,8.2-2c1.8-1.3,3.2-3.3,4.1-5.8l0.3-1l0.4-1.2C141.8,24.5,141.8,22.6,141,21.3z M132.4,28.1
				c-0.2,0.4-0.7,1-1.5,1.7c-0.9,0.7-2.4,1-4.5,1h-9.6l2-5.4h5h4.6c2.1,0,3.4,0.3,3.8,1C132.4,27.1,132.5,27.7,132.4,28.1z"/>
		</g>
	</g>
	<g>
		<path d="M83.6,58.5c-0.2,0.3-0.5,0.6-0.9,0.9c-0.4,0.3-0.9,0.4-1.4,0.4h-7l0.7-1.7h5.8c0.2,0,0.3,0,0.3-0.1c0,0,0-0.1,0-0.1
			c0-0.1,0-0.2-0.1-0.2l-4.2-1.8c-0.5-0.2-0.7-0.6-0.4-1.3c0.1-0.2,0.1-0.3,0.2-0.4c0-0.1,0.1-0.2,0.1-0.2c0.1-0.1,0.1-0.1,0.2-0.2
			c0.1-0.1,0.1-0.2,0.2-0.3c0.2-0.2,0.5-0.5,1-0.7c0.5-0.2,1.1-0.3,1.7-0.3H86l-0.7,1.7h-6.2c-0.1,0-0.2,0.1-0.3,0.2
			c0,0.1,0,0.2,0,0.2l4.7,2.1c0.3,0.1,0.4,0.4,0.4,0.8c0,0.3-0.1,0.6-0.2,0.8l-0.1,0.1C83.7,58.4,83.6,58.4,83.6,58.5z"/>
		<path d="M87.4,57.4h-0.5c-0.1,0.3-0.1,0.6-0.1,0.7c0.1,0.2,0.4,0.3,0.8,0.3h4.1l-0.6,1.4h-4.9c-0.4,0-0.7,0-1-0.1
			c-0.3-0.1-0.4-0.2-0.5-0.3c-0.1-0.1-0.2-0.3-0.1-0.6c0-0.2,0.1-0.5,0.2-0.8l1.1-2.6c0.1-0.3,0.3-0.6,0.4-0.8
			c0.2-0.2,0.4-0.4,0.6-0.6c0.2-0.1,0.5-0.3,0.8-0.3c0.3-0.1,0.7-0.1,1.1-0.1h4.9L93.1,55H89c-0.4,0-0.8,0.1-1,0.3
			c-0.2,0.2-0.4,0.4-0.5,0.7h5.2l-0.6,1.4H87.4z"/>
		<path d="M99.1,59.8H97l-1.2-2.1h-1.1l-0.9,2.1H92l2.5-6.2h4.9c0.8,0,1.3,0.2,1.5,0.5c0.2,0.3,0.2,0.8-0.1,1.3l-0.2,0.5
			c-0.2,0.6-0.6,1-1,1.3c-0.4,0.3-0.9,0.5-1.4,0.5h-0.3L99.1,59.8z M97.5,56.3c0.5,0,0.8-0.1,1-0.2c0.2-0.2,0.3-0.3,0.4-0.4
			c0-0.1,0-0.2-0.1-0.4C98.7,55.1,98.4,55,98,55h-2.2l-0.5,1.2H97.5z"/>
		<path d="M109.4,53.6c-1.9,2.8-2.9,4.3-3,4.4c-0.2,0.3-0.6,0.7-1.1,1.1c-0.5,0.4-1,0.6-1.4,0.6h-1.1c-0.3,0-0.6-0.2-0.8-0.6
			c-0.2-0.4-0.3-0.8-0.3-1.1c0-0.1,0-0.5,0.1-1.2c0.1-0.7,0.2-1.8,0.5-3.2h1.9l-0.6,3.8c0,0.2,0,0.3,0,0.4c0,0.1,0,0.2,0.1,0.3
			c0,0.1,0.1,0.1,0.1,0.2c0,0,0.1,0.1,0.2,0.1c0.1,0,0.3-0.1,0.5-0.2c0.2-0.1,0.4-0.4,0.6-0.7l2.5-3.8H109.4z"/>
		<path d="M109.6,59.8h-1.9l2.5-6.2h1.8L109.6,59.8z"/>
		<path d="M113.8,56l-0.6,1.4c-0.1,0.3-0.1,0.6-0.1,0.7s0.4,0.3,0.8,0.3h4.1l-0.6,1.4h-4.9c-0.4,0-0.7,0-1-0.1
			c-0.3-0.1-0.4-0.2-0.5-0.3c-0.1-0.1-0.2-0.3-0.1-0.6s0.1-0.5,0.2-0.8l1.1-2.6c0.1-0.3,0.3-0.6,0.4-0.8c0.2-0.2,0.4-0.4,0.6-0.6
			c0.2-0.1,0.5-0.3,0.8-0.3c0.3-0.1,0.7-0.1,1.1-0.1h4.9l-0.6,1.4h-4.1c-0.4,0-0.8,0.1-1,0.3C114.1,55.5,114,55.7,113.8,56z"/>
		<path d="M120.2,59.8h-1.9l2.5-6.2h1.8L120.2,59.8z"/>
		<path d="M128.8,58c-0.2,0.6-0.6,1-1,1.3c-0.4,0.3-1,0.5-1.9,0.5h-2.7c-0.7,0-1.2-0.1-1.5-0.4c-0.3-0.3-0.3-0.7,0-1.4l1.1-2.6
			c0.2-0.6,0.6-1,1.1-1.3c0.5-0.3,1.1-0.4,1.9-0.5h2.7c0.8,0,1.3,0.2,1.5,0.5c0.2,0.3,0.2,0.8-0.1,1.3L128.8,58z M127.2,57.4
			l0.6-1.4c0.1-0.3,0.2-0.6,0.1-0.7c-0.1-0.2-0.4-0.2-0.9-0.2h-1c-0.4,0-0.8,0.1-1,0.3c-0.2,0.2-0.4,0.4-0.5,0.7l-0.6,1.4
			c-0.1,0.3-0.2,0.6-0.1,0.7c0.1,0.2,0.4,0.2,0.8,0.2h1c0.5,0,0.8-0.1,1-0.2C126.9,58,127,57.8,127.2,57.4z"/>
		<path d="M136.8,58.7c-0.2,0.3-0.4,0.5-0.8,0.8c-0.3,0.2-0.7,0.4-1.2,0.4h-5.9l0.6-1.4h4.9c0.1,0,0.2,0,0.2-0.1c0-0.1,0-0.2,0-0.2
			l-3.6-1.5c-0.4-0.2-0.6-0.5-0.3-1.1c0.1-0.1,0.1-0.2,0.1-0.3c0-0.1,0.1-0.2,0.1-0.2c0.1-0.1,0.1-0.1,0.2-0.2
			c0.1-0.1,0.1-0.2,0.2-0.3c0.1-0.2,0.4-0.4,0.9-0.6c0.4-0.2,0.9-0.3,1.5-0.3h5.2l-0.6,1.4H133c-0.1,0-0.2,0.1-0.3,0.2
			c0,0.1,0,0.1,0,0.1l3.9,1.7c0.3,0.1,0.4,0.3,0.3,0.7C137,58.1,136.9,58.4,136.8,58.7z"/>
		<path d="M144.9,59.8h-2.2l3-7.4h2.2L144.9,59.8z"/>
		<path d="M154.7,55.4l-1.8,4.4h-1.9l1.5-3.8c0.1-0.3,0.2-0.6,0.1-0.7c-0.1-0.2-0.4-0.2-0.9-0.2h-1c-0.4,0-0.8,0.1-1,0.3
			c-0.2,0.2-0.4,0.4-0.5,0.7l-1.5,3.8h-1.9l1.8-4.4c0.2-0.6,0.6-1,1.1-1.3c0.5-0.3,1.1-0.5,1.8-0.5h2.7c0.8,0,1.3,0.2,1.5,0.5
			C155,54.4,155,54.9,154.7,55.4z"/>
		<path d="M155.8,55l0.6-1.4h7.1l-0.6,1.4h-2.7l-1.9,4.8h-1.8l1.9-4.8H155.8z"/>
		<path d="M165.2,57.4h-0.5c-0.1,0.3-0.1,0.6-0.1,0.7c0.1,0.2,0.4,0.3,0.8,0.3h4.1l-0.6,1.4H164c-0.4,0-0.7,0-1-0.1
			c-0.3-0.1-0.4-0.2-0.5-0.3c-0.1-0.1-0.2-0.3-0.1-0.6s0.1-0.5,0.2-0.8l1.1-2.6c0.1-0.3,0.3-0.6,0.4-0.8c0.2-0.2,0.4-0.4,0.6-0.6
			c0.2-0.1,0.5-0.3,0.8-0.3c0.3-0.1,0.7-0.1,1.1-0.1h4.9l-0.6,1.4h-4.1c-0.4,0-0.8,0.1-1,0.3c-0.2,0.2-0.4,0.4-0.5,0.7h5.2l-0.6,1.4
			H165.2z"/>
		<path d="M176.8,59.8H172c-0.4,0-0.7,0-1-0.1c-0.3-0.1-0.4-0.2-0.5-0.3c-0.1-0.1-0.2-0.3-0.1-0.6s0.1-0.5,0.2-0.8l1.1-2.6
			c0.1-0.3,0.3-0.6,0.4-0.8c0.2-0.2,0.4-0.4,0.6-0.6c0.2-0.1,0.5-0.3,0.8-0.3c0.3-0.1,0.7-0.1,1.1-0.1h4.9l-0.6,1.4h-4.1
			c-0.4,0-0.8,0.1-1,0.3c-0.2,0.2-0.4,0.4-0.5,0.7l-0.6,1.4c-0.1,0.3-0.1,0.6-0.1,0.7c0.1,0.2,0.4,0.2,0.8,0.2h2.2l0.8-2h1.9
			L176.8,59.8z"/>
		<path d="M184.9,59.8h-2.1l-1.2-2.1h-1.1l-0.9,2.1h-1.9l2.5-6.2h4.9c0.8,0,1.3,0.2,1.5,0.5c0.2,0.3,0.2,0.8-0.1,1.3l-0.2,0.5
			c-0.2,0.6-0.6,1-1,1.3c-0.4,0.3-0.9,0.5-1.4,0.5h-0.3L184.9,59.8z M183.2,56.3c0.5,0,0.8-0.1,1-0.2c0.2-0.2,0.3-0.3,0.4-0.4
			c0-0.1,0-0.2-0.1-0.4c-0.1-0.2-0.4-0.2-0.9-0.2h-2.2l-0.5,1.2H183.2z"/>
		<path d="M188.9,57.8l-1.3,2h-1.9c0.9-1.4,1.7-2.5,2.1-3.2c0.5-0.7,0.8-1.1,0.8-1.2c0.1-0.2,0.3-0.4,0.5-0.6
			c0.2-0.2,0.4-0.4,0.7-0.6c0.5-0.4,1-0.6,1.3-0.6h1.1c0.4,0,0.7,0.2,0.9,0.6c0.2,0.4,0.3,0.8,0.2,1.1c0,0.1-0.2,1.6-0.6,4.4h-1.9
			l0.3-2H188.9z M191.4,56.4l0-0.4c0-0.3,0-0.6-0.1-0.7c-0.1-0.1-0.2-0.2-0.3-0.2c-0.1,0-0.3,0.1-0.5,0.2c-0.2,0.1-0.4,0.4-0.6,0.7
			l-0.3,0.4h0.9H191.4z"/>
		<path d="M200.7,59.8h-4.9c-0.4,0-0.7,0-1-0.1c-0.3-0.1-0.4-0.2-0.5-0.3c-0.1-0.1-0.2-0.3-0.1-0.6s0.1-0.5,0.2-0.8l1.8-4.4h1.9
			l-1.5,3.8c-0.1,0.3-0.2,0.6-0.1,0.7c0.1,0.2,0.4,0.2,0.8,0.2h4.1l-0.2,0.5L200.7,59.8z"/>
		<path d="M205,57.4h-0.5c-0.1,0.3-0.1,0.6-0.1,0.7s0.4,0.3,0.8,0.3h4.1l-0.6,1.4h-4.9c-0.4,0-0.7,0-1-0.1c-0.3-0.1-0.4-0.2-0.5-0.3
			c-0.1-0.1-0.2-0.3-0.1-0.6c0-0.2,0.1-0.5,0.2-0.8l1.1-2.6c0.1-0.3,0.3-0.6,0.4-0.8c0.2-0.2,0.4-0.4,0.6-0.6
			c0.2-0.1,0.5-0.3,0.8-0.3c0.3-0.1,0.7-0.1,1.1-0.1h4.9l-0.6,1.4h-4.1c-0.4,0-0.8,0.1-1,0.3c-0.2,0.2-0.4,0.4-0.5,0.7h5.2l-0.6,1.4
			H205z"/>
		<path d="M217.4,58.7c-0.2,0.3-0.4,0.5-0.8,0.8c-0.3,0.2-0.7,0.4-1.2,0.4h-5.9l0.6-1.4h4.9c0.1,0,0.2,0,0.2-0.1c0-0.1,0-0.2,0-0.2
			l-3.6-1.5c-0.4-0.2-0.6-0.5-0.3-1.1c0.1-0.1,0.1-0.2,0.1-0.3c0-0.1,0.1-0.2,0.1-0.2c0.1-0.1,0.1-0.1,0.2-0.2
			c0.1-0.1,0.1-0.2,0.2-0.3c0.1-0.2,0.4-0.4,0.9-0.6c0.4-0.2,0.9-0.3,1.5-0.3h5.2l-0.6,1.4h-5.2c-0.1,0-0.2,0.1-0.3,0.2
			c0,0.1,0,0.1,0,0.1l3.9,1.7c0.3,0.1,0.4,0.3,0.3,0.7C217.6,58.1,217.5,58.4,217.4,58.7z"/>
		<path d="M223.8,53.6h1.9l0.7,2.4l2.6-2.4h1.9l-4.2,3.9l-0.9,2.3h-1.8l0.9-2.3L223.8,53.6z"/>
		<path d="M234.8,59.8h-2.2l3-7.4h5.8c1,0,1.6,0.2,1.8,0.5c0.2,0.4,0.2,0.9-0.1,1.6l-0.2,0.6c-0.3,0.7-0.7,1.2-1.2,1.6
			c-0.5,0.4-1.3,0.5-2.2,0.5h-3.6L234.8,59.8z M239.1,55.6c0.6,0,1-0.1,1.2-0.3c0.2-0.2,0.4-0.3,0.4-0.5c0-0.1,0-0.3-0.1-0.5
			c-0.1-0.2-0.4-0.3-1-0.3h-2.6l-0.6,1.5H239.1z"/>
		<path d="M248.9,59.4c-0.4,0.3-1,0.5-1.9,0.5h-2.7c-0.7,0-1.2-0.2-1.4-0.5c-0.3-0.3-0.3-0.7-0.1-1.3l1.8-4.4h1.9l-1.5,3.8
			c-0.1,0.3-0.2,0.6-0.1,0.7c0.1,0.2,0.4,0.2,0.8,0.2h1c0.5,0,0.8-0.1,1-0.2c0.2-0.2,0.4-0.4,0.5-0.7l1.5-3.8h1.9l-1.8,4.4
			C249.7,58.6,249.3,59,248.9,59.4z"/>
		<path d="M257.1,56.9c0.7,0.2,1,0.5,0.8,0.9l-0.1,0.3c-0.2,0.6-0.6,1-1,1.3c-0.4,0.3-1,0.5-1.9,0.5H250l2.5-6.2h4.9
			c0.8,0,1.3,0.2,1.5,0.5c0.2,0.3,0.2,0.8-0.1,1.3l-0.1,0.3C258.5,56.2,258,56.6,257.1,56.9z M252.8,57.4l-0.4,1h2.2
			c0.5,0,0.8-0.1,1-0.2c0.2-0.2,0.3-0.3,0.4-0.4c0-0.1,0-0.2-0.1-0.3c-0.1-0.1-0.4-0.1-0.9-0.1H252.8z M255.6,56
			c0.5,0,0.8,0,0.9-0.1c0.2-0.1,0.3-0.1,0.3-0.2c0-0.1,0-0.2-0.1-0.4c-0.1-0.2-0.4-0.2-0.9-0.2h-2.2l-0.4,1H255.6z"/>
		<path d="M265,59.8h-4.9c-0.4,0-0.7,0-1-0.1c-0.3-0.1-0.4-0.2-0.5-0.3c-0.1-0.1-0.2-0.3-0.1-0.6c0-0.2,0.1-0.5,0.2-0.8l1.8-4.4h1.9
			l-1.5,3.8c-0.1,0.3-0.2,0.6-0.1,0.7c0.1,0.2,0.4,0.2,0.8,0.2h4.1l-0.2,0.5L265,59.8z"/>
		<path d="M267.6,59.8h-1.9l2.5-6.2h1.8L267.6,59.8z"/>
		<path d="M271.9,56l-0.6,1.4c-0.1,0.3-0.1,0.6-0.1,0.7c0.1,0.2,0.4,0.3,0.8,0.3h4.1l-0.6,1.4h-4.9c-0.4,0-0.7,0-1-0.1
			c-0.3-0.1-0.4-0.2-0.5-0.3c-0.1-0.1-0.2-0.3-0.1-0.6s0.1-0.5,0.2-0.8l1.1-2.6c0.1-0.3,0.3-0.6,0.4-0.8c0.2-0.2,0.4-0.4,0.6-0.6
			c0.2-0.1,0.5-0.3,0.8-0.3c0.3-0.1,0.7-0.1,1.1-0.1h4.9l-0.6,1.4h-4.1c-0.4,0-0.8,0.1-1,0.3C272.2,55.5,272,55.7,271.9,56z"/>
		<path d="M278.2,59.8h-1.9l2.5-6.2h1.8L278.2,59.8z"/>
		<path d="M281,55l0.6-1.4h7.1L288,55h-2.7l-1.9,4.8h-1.8l1.9-4.8H281z"/>
		<path d="M290.1,57.8l-1.3,2h-1.9c0.9-1.4,1.7-2.5,2.1-3.2c0.5-0.7,0.8-1.1,0.8-1.2c0.1-0.2,0.3-0.4,0.5-0.6
			c0.2-0.2,0.4-0.4,0.7-0.6c0.5-0.4,1-0.6,1.3-0.6h1.1c0.4,0,0.7,0.2,0.9,0.6c0.2,0.4,0.3,0.8,0.2,1.1c0,0.1-0.2,1.6-0.6,4.4h-1.9
			l0.3-2H290.1z M292.7,56.4l0-0.4c0-0.3,0-0.6-0.1-0.7c-0.1-0.1-0.2-0.2-0.3-0.2c-0.1,0-0.3,0.1-0.5,0.2c-0.2,0.1-0.4,0.4-0.6,0.7
			l-0.3,0.4h0.9H292.7z"/>
		<path d="M302,59.8h-2.1l-1.2-2.1h-1.1l-0.9,2.1h-1.9l2.5-6.2h4.9c0.8,0,1.3,0.2,1.5,0.5c0.2,0.3,0.2,0.8-0.1,1.3l-0.2,0.5
			c-0.2,0.6-0.6,1-1,1.3c-0.4,0.3-0.9,0.5-1.4,0.5h-0.3L302,59.8z M300.3,56.3c0.5,0,0.8-0.1,1-0.2c0.2-0.2,0.3-0.3,0.4-0.4
			c0-0.1,0-0.2-0.1-0.4c-0.1-0.2-0.4-0.2-0.9-0.2h-2.2l-0.5,1.2H300.3z"/>
		<path d="M304.6,59.8h-1.9l2.5-6.2h1.8L304.6,59.8z"/>
		<path d="M313.2,58c-0.2,0.6-0.6,1-1,1.3c-0.4,0.3-1,0.5-1.9,0.5h-2.7c-0.7,0-1.2-0.1-1.5-0.4c-0.3-0.3-0.3-0.7,0-1.4l1.1-2.6
			c0.2-0.6,0.6-1,1.1-1.3c0.5-0.3,1.1-0.4,1.9-0.5h2.7c0.8,0,1.3,0.2,1.5,0.5c0.2,0.3,0.2,0.8-0.1,1.3L313.2,58z M311.6,57.4
			l0.6-1.4c0.1-0.3,0.2-0.6,0.1-0.7c-0.1-0.2-0.4-0.2-0.9-0.2h-1c-0.4,0-0.8,0.1-1,0.3c-0.2,0.2-0.4,0.4-0.5,0.7l-0.6,1.4
			c-0.1,0.3-0.2,0.6-0.1,0.7c0.1,0.2,0.4,0.2,0.8,0.2h1c0.5,0,0.8-0.1,1-0.2C311.3,58,311.4,57.8,311.6,57.4z"/>
		<path d="M321.2,58.7c-0.2,0.3-0.4,0.5-0.8,0.8c-0.3,0.2-0.7,0.4-1.2,0.4h-5.9l0.6-1.4h4.9c0.1,0,0.2,0,0.2-0.1c0-0.1,0-0.2,0-0.2
			l-3.6-1.5c-0.4-0.2-0.6-0.5-0.3-1.1c0.1-0.1,0.1-0.2,0.1-0.3c0-0.1,0.1-0.2,0.1-0.2c0.1-0.1,0.1-0.1,0.2-0.2
			c0.1-0.1,0.1-0.2,0.2-0.3c0.1-0.2,0.4-0.4,0.9-0.6c0.4-0.2,0.9-0.3,1.5-0.3h5.2l-0.6,1.4h-5.2c-0.1,0-0.2,0.1-0.3,0.2
			c0,0.1,0,0.1,0,0.1l3.9,1.7c0.3,0.1,0.4,0.3,0.3,0.7C321.4,58.1,321.3,58.4,321.2,58.7z"/>
	</g>
</g>
</svg>
