<?xml version="1.0" encoding="utf-8"?>
<!-- Generator: Adobe Illustrator 18.0.0, SVG Export Plug-In . SVG Version: 6.00 Build 0)  -->
<!DOCTYPE svg PUBLIC "-//W3C//DTD SVG 1.1//EN" "http://www.w3.org/Graphics/SVG/1.1/DTD/svg11.dtd">
<svg version="1.1" id="Layer_1" xmlns="http://www.w3.org/2000/svg" xmlns:xlink="http://www.w3.org/1999/xlink" x="0px" y="0px"
	 viewBox="0 0 429.6 211.9" enable-background="new 0 0 429.6 211.9" xml:space="preserve">
<g>
	<g>
		<linearGradient id="SVGID_1_" gradientUnits="userSpaceOnUse" x1="57.2444" y1="78.8724" x2="167.5494" y2="78.8724">
			<stop  offset="0" style="stop-color:#000000"/>
			<stop  offset="1" style="stop-color:#BCBEC0"/>
		</linearGradient>
		<path fill="url(#SVGID_1_)" d="M81.2,91.7c0-45.4,37-82.4,82.4-82.4c1.3,0,2.6,0.1,4,0.2c-9.8-4.4-20.6-6.9-32-6.9
			c-43.2,0-78.3,35.1-78.3,78.3c0,34.7,22.7,64.1,54,74.4C92.9,140.1,81.2,117.2,81.2,91.7z"/>
		<path fill="#ED1C24" d="M66.1,133.2c-28.9-35-24-87.1,11.1-116c1-0.8,2.1-1.6,3.2-2.4c-10.4,2.8-20.3,7.8-29.1,15
			c-33.3,27.5-38,76.9-10.5,110.2c22.1,26.7,58.3,35,89,23C106,163.1,82.4,152.9,66.1,133.2z"/>
		<linearGradient id="SVGID_2_" gradientUnits="userSpaceOnUse" x1="2.2008" y1="133.5951" x2="148.3112" y2="133.5951">
			<stop  offset="0" style="stop-color:#000000"/>
			<stop  offset="1" style="stop-color:#BCBEC0"/>
		</linearGradient>
		<path fill="url(#SVGID_2_)" d="M79.9,172.9c-44.5-9.3-73.1-53.1-63.7-97.6c0.3-1.3,0.7-2.6,1-3.8c-6.3,8.7-11,18.7-13.3,29.9
			c-8.9,42.3,18.3,83.8,60.6,92.7c33.9,7.1,67.4-9,83.9-37.5C129.8,171.4,105,178.1,79.9,172.9z"/>
		<path fill="#ED1C24" d="M166.5,120.3c0,45.4-37,82.4-82.4,82.4c-1.3,0-2.6-0.1-4-0.2c9.8,4.4,20.6,6.9,32,6.9
			c43.2,0,78.3-35.1,78.3-78.3c0-34.7-22.7-64.1-53.9-74.4C154.9,71.9,166.5,94.7,166.5,120.3z"/>
		<linearGradient id="SVGID_3_" gradientUnits="userSpaceOnUse" x1="117.9783" y1="120.2778" x2="224.8208" y2="120.2778">
			<stop  offset="0" style="stop-color:#000000"/>
			<stop  offset="1" style="stop-color:#BCBEC0"/>
		</linearGradient>
		<path fill="url(#SVGID_3_)" d="M181.6,78.7c28.9,35,24,87.1-11.1,116c-1,0.9-2.1,1.6-3.2,2.4c10.3-2.8,20.3-7.8,29.1-15
			c33.3-27.5,38-76.9,10.5-110.2c-22.1-26.7-58.3-35-89-23C141.7,48.8,165.3,59,181.6,78.7z"/>
		<path fill="#ED1C24" d="M167.8,39.1c44.5,9.3,73.1,53.1,63.7,97.6c-0.3,1.3-0.7,2.6-1,3.8c6.3-8.7,11-18.7,13.3-29.9
			c8.9-42.3-18.3-83.8-60.6-92.7c-33.9-7.1-67.4,9-83.9,37.5C118,40.6,142.8,33.8,167.8,39.1z"/>
	</g>
	<g>
		<linearGradient id="SVGID_4_" gradientUnits="userSpaceOnUse" x1="173.557" y1="130.0415" x2="218.3574" y2="31.1424">
			<stop  offset="0" style="stop-color:#000000"/>
			<stop  offset="1" style="stop-color:#BCBEC0"/>
		</linearGradient>
		<path fill="url(#SVGID_4_)" d="M200.9,145.8h-85.6l11.5-31.5H174l-26.2-11.2c-9.2-3.7-12.5-12.1-8.6-22.5c1.3-3.6,2.5-6.2,3.6-8
			l0.3-0.5l0.4-0.5c1-1.1,2.2-2.8,3.5-4.9c2.3-3.9,6.8-7.1,14.1-10c6.5-2.6,13.6-3.9,21.1-3.9h76.8l-11.7,32.1h-52.4l31.5,13.8
			c5.9,2.7,9,8,8.7,14.8c-0.2,5-1.3,9.6-3.3,13.8l-0.3,0.6c-2.5,4.2-6.4,8.2-11.4,11.9C214.6,143.8,208.2,145.8,200.9,145.8
			L200.9,145.8z M134.6,132.4h66.3c4.4,0,8.1-1.1,11.3-3.4c3.4-2.5,6-5.1,7.6-7.7c1.1-2.5,1.7-5.2,1.9-8.3c0.1-1.6-0.2-1.8-0.8-2
			l-51-22.3c-1.2-0.4-2.2-1.1-3-2.1c-2.2-2.7-1.6-5.9-1.3-7.2l0.2-0.8l0.4-0.8c1.9-4,5.3-6.3,9.4-6.3h62.5l1.9-5.2h-57.6
			c-5.8,0-11.2,1-16.1,2.9c-6.4,2.6-7.5,4.3-7.6,4.4c-1.6,2.6-3.1,4.8-4.6,6.5c-0.4,0.7-1.1,2.2-2.1,5c-1.6,4.4-0.6,4.8,1,5.4
			l0.2,0.1l46.9,20.1c1.4,0.7,4.6,3,4.4,8.6c-0.2,4.1-3.3,8.3-9.8,8.3h-58.2L134.6,132.4L134.6,132.4z"/>
		<linearGradient id="SVGID_5_" gradientUnits="userSpaceOnUse" x1="249.0217" y1="164.2265" x2="293.822" y2="65.3276">
			<stop  offset="0" style="stop-color:#000000"/>
			<stop  offset="1" style="stop-color:#BCBEC0"/>
		</linearGradient>
		<path fill="url(#SVGID_5_)" d="M280.5,145.8h-38.1l34-92.9h38.3l-21.2,57.8L280.5,145.8L280.5,145.8z M261.6,132.4h9.6l9.7-26.3
			l14.5-39.7h-9.7L261.6,132.4L261.6,132.4z"/>
		<linearGradient id="SVGID_6_" gradientUnits="userSpaceOnUse" x1="320.5327" y1="196.6202" x2="365.3332" y2="97.721">
			<stop  offset="0" style="stop-color:#000000"/>
			<stop  offset="1" style="stop-color:#BCBEC0"/>
		</linearGradient>
		<path fill="url(#SVGID_6_)" d="M335.4,145.8h-38.1l11.5-31.9l12.3-33.8l10.2-27.3h67.9c13.5,0,21.5,2.9,25.4,9
			c3.7,5.8,3.8,13.5,0.3,22.9l-2.3,6.3c-3.2,8.6-8,15.4-14.5,20.1c-6.6,4.8-15.8,7.2-28.1,7.2h-34.6L335.4,145.8L335.4,145.8z
			 M316.4,132.4h9.6l10-27.4h44c9.2,0,16-1.5,20.1-4.6c4.3-3.2,7.5-7.7,9.8-13.9l2.3-6.3c1.9-5.2,2.2-9.1,1-11.1
			c0,0-1.9-2.8-14.1-2.8h-58.5l-6.9,18.5l-12.3,33.7L316.4,132.4L316.4,132.4z M375.6,100.3h-37.9l10.7-29.3h32.9
			c6.3,0,13.8,0.7,17,6.5c2.1,3.8,2.5,7.3,1.3,10.5c-0.9,2.6-3,5-6.7,7.9C389.2,98.8,383.5,100.3,375.6,100.3L375.6,100.3z
			 M357,86.8h18.6c6.8,0,8.8-1.3,9.2-1.6c0.3-0.2,0.6-0.5,0.8-0.7c-1-0.1-2.3-0.2-4.2-0.2h-23.5L357,86.8L357,86.8z"/>
	</g>
	<g>
		<path fill="#ED1C24" d="M163.7,63c-5.7,2.3-9.3,4.7-10.9,7.2c-1.5,2.5-2.9,4.5-4.3,6c-0.9,1.4-1.9,3.6-3,6.7
			c-2.6,7-0.9,11.7,4.9,14l46.5,19.9c0.5,0.3,0.8,1.1,0.7,2.3c-0.1,1.3-1.1,1.9-3.1,1.9h-62.9L125,139h75.9c5.8,0,10.9-1.6,15.2-4.7
			c4.3-3.2,7.5-6.5,9.6-9.9c1.6-3.4,2.5-7.1,2.6-11.2c0.2-4.1-1.4-6.9-4.8-8.4l-51.4-22.5c-0.3,0-0.3-0.6-0.1-1.6
			c0.8-1.6,1.9-2.5,3.4-2.5h49.1h18.1l6.8-18.6h-67.2C175.6,59.5,169.4,60.7,163.7,63z"/>
		<polygon fill="#ED1C24" points="252,139 275.8,139 287.2,108.3 305,59.5 281,59.5 		"/>
		<path fill="#ED1C24" d="M418.9,65.4c-2.5-3.9-9.1-5.9-19.8-5.9H364h-28.1l-8.5,22.9l-12.3,33.7l-8.2,22.9h23.9l10-27.4h14.8h10.7
			h13.8c10.7,0,18.7-2,24.1-5.9c5.4-3.9,9.4-9.6,12.1-17l1.1-2.9l1.3-3.4C421.3,75,421.4,69.4,418.9,65.4z M393.4,85.6
			c-0.5,1.3-2,2.9-4.5,4.9c-2.6,2-7,3-13.3,3h-28.2l5.8-15.9H368h13.4c6.3,0,10,1,11.1,3C393.6,82.7,393.9,84.3,393.4,85.6z"/>
	</g>
</g>
</svg>
