<?xml version="1.0" encoding="utf-8"?>
<!-- Generator: Adobe Illustrator 18.0.0, SVG Export Plug-In . SVG Version: 6.00 Build 0)  -->
<!DOCTYPE svg PUBLIC "-//W3C//DTD SVG 1.1//EN" "http://www.w3.org/Graphics/SVG/1.1/DTD/svg11.dtd">
<svg version="1.1" id="Layer_1" xmlns="http://www.w3.org/2000/svg" xmlns:xlink="http://www.w3.org/1999/xlink" x="0px" y="0px"
	 viewBox="0 0 400 227.2" enable-background="new 0 0 400 227.2" xml:space="preserve">
<g>
	<g>
		<g>
			
				<linearGradient id="SVGID_1_" gradientUnits="userSpaceOnUse" x1="-1798.485" y1="2669.0295" x2="-886.612" y2="2669.0295" gradientTransform="matrix(9.407338e-02 0 0 -9.407338e-02 246.6256 311.1975)">
				<stop  offset="0" style="stop-color:#000000"/>
				<stop  offset="1" style="stop-color:#BCBEC0"/>
			</linearGradient>
			<path fill="url(#SVGID_1_)" d="M96,70c0-35.3,28.8-64.1,64.1-64.1c1.1,0,2.1,0.1,3.1,0.2c-7.6-3.4-16-5.4-24.9-5.4
				c-33.6,0-60.9,27.3-60.9,60.9c0,27,17.6,49.9,42,57.8C105.2,107.7,96,89.9,96,70z"/>
			<path fill="#ED1C24" d="M84.3,102.4c-22.5-27.2-18.6-67.7,8.6-90.2c0.8-0.6,1.6-1.2,2.5-1.9c-8.1,2.2-15.8,6.1-22.6,11.7
				c-25.9,21.4-29.6,59.9-8.2,85.7c17.2,20.8,45.4,27.2,69.2,17.9C115.4,125.7,97,117.7,84.3,102.4z"/>
			
				<linearGradient id="SVGID_2_" gradientUnits="userSpaceOnUse" x1="-2253.9199" y1="2216.6343" x2="-1045.837" y2="2216.6343" gradientTransform="matrix(9.407338e-02 0 0 -9.407338e-02 246.6256 311.1975)">
				<stop  offset="0" style="stop-color:#000000"/>
				<stop  offset="1" style="stop-color:#BCBEC0"/>
			</linearGradient>
			<path fill="url(#SVGID_2_)" d="M95.1,133.2C60.5,126,38.2,91.9,45.5,57.3c0.2-1,0.5-2,0.8-3c-4.9,6.7-8.6,14.6-10.4,23.3
				C29,110.5,50.1,142.8,83,149.7c26.4,5.5,52.4-7,65.2-29.2C133.8,132,114.6,137.3,95.1,133.2z"/>
			<path fill="#ED1C24" d="M162.4,92.4c0,35.3-28.7,64.1-64.1,64.1c-1.1,0-2.1-0.1-3.1-0.2c7.6,3.4,16,5.4,24.9,5.4
				c33.6,0,60.9-27.3,60.9-60.9c0-27-17.6-49.9-42-57.8C153.3,54.6,162.4,72.4,162.4,92.4z"/>
			
				<linearGradient id="SVGID_3_" gradientUnits="userSpaceOnUse" x1="-1296.5316" y1="2326.2759" x2="-412.8776" y2="2326.2759" gradientTransform="matrix(9.407338e-02 0 0 -9.407338e-02 246.6256 311.1975)">
				<stop  offset="0" style="stop-color:#000000"/>
				<stop  offset="1" style="stop-color:#BCBEC0"/>
			</linearGradient>
			<path fill="url(#SVGID_3_)" d="M174.2,60c22.5,27.2,18.6,67.7-8.6,90.2c-0.8,0.7-1.6,1.2-2.5,1.9c8.1-2.2,15.8-6.1,22.6-11.7
				c25.9-21.4,29.6-59.9,8.2-85.7c-17.2-20.8-45.4-27.2-69.2-17.9C143.1,36.7,161.5,44.7,174.2,60z"/>
			<path fill="#ED1C24" d="M163.4,29.1C198,36.4,220.3,70.4,213,105c-0.2,1-0.5,2-0.8,3c4.9-6.7,8.6-14.6,10.4-23.3
				c6.9-32.9-14.2-65.2-47.1-72.1c-26.4-5.5-52.4,7-65.2,29.2C124.7,30.3,143.9,25.1,163.4,29.1z"/>
		</g>
		<g>
			
				<linearGradient id="SVGID_4_" gradientUnits="userSpaceOnUse" x1="-837.2061" y1="2246.1091" x2="-466.776" y2="3063.8523" gradientTransform="matrix(9.407338e-02 0 0 -9.407338e-02 246.6256 311.1975)">
				<stop  offset="0" style="stop-color:#000000"/>
				<stop  offset="1" style="stop-color:#BCBEC0"/>
			</linearGradient>
			<path fill="url(#SVGID_4_)" d="M189.1,112.2h-66.5l9-24.5h36.7l-20.3-8.7c-7.2-2.9-9.7-9.4-6.7-17.5c1.1-2.8,1.9-4.8,2.8-6.2
				l0.3-0.4l0.3-0.4c0.8-0.8,1.7-2.1,2.7-3.8c1.8-3,5.3-5.5,11-7.8c5-2,10.6-3,16.4-3h59.7l-9.1,25h-40.8L209,75.5
				c4.6,2.1,7,6.2,6.7,11.5c-0.2,3.9-1,7.4-2.5,10.7l-0.3,0.5c-2,3.3-4.9,6.4-8.9,9.2C199.9,110.6,194.8,112.2,189.1,112.2
				L189.1,112.2z M137.6,101.7h51.6c3.5,0,6.3-0.8,8.8-2.7c2.7-2,4.7-4,5.9-6c0.8-1.9,1.4-4.1,1.4-6.4c0.1-1.2-0.2-1.4-0.6-1.6
				L165,67.7c-0.9-0.3-1.7-0.9-2.3-1.6c-1.8-2.1-1.2-4.6-1.1-5.6l0.1-0.6l0.3-0.6c1.5-3.1,4.1-4.9,7.3-4.9h48.6l1.5-4h-44.8
				c-4.5,0-8.7,0.8-12.5,2.3c-5,2-5.9,3.4-5.9,3.5c-1.2,2.1-2.4,3.7-3.6,5c-0.3,0.5-0.8,1.7-1.6,3.9c-1.2,3.4-0.5,3.7,0.8,4.2
				l0.2,0.1l36.4,15.6c1.1,0.5,3.6,2.3,3.4,6.7c-0.2,3.2-2.5,6.5-7.6,6.5h-45.2L137.6,101.7L137.6,101.7z"/>
			
				<linearGradient id="SVGID_5_" gradientUnits="userSpaceOnUse" x1="-213.003" y1="1963.3491" x2="157.4265" y2="2781.0903" gradientTransform="matrix(9.407338e-02 0 0 -9.407338e-02 246.6256 311.1975)">
				<stop  offset="0" style="stop-color:#000000"/>
				<stop  offset="1" style="stop-color:#BCBEC0"/>
			</linearGradient>
			<path fill="url(#SVGID_5_)" d="M251.1,112.2h-29.7l26.5-72.3h29.8l-16.5,45L251.1,112.2L251.1,112.2z M236.4,101.7h7.4l7.6-20.4
				l11.3-30.9h-7.5L236.4,101.7L236.4,101.7z"/>
			
				<linearGradient id="SVGID_6_" gradientUnits="userSpaceOnUse" x1="378.7498" y1="1695.2915" x2="749.1803" y2="2513.0361" gradientTransform="matrix(9.407338e-02 0 0 -9.407338e-02 246.6256 311.1975)">
				<stop  offset="0" style="stop-color:#000000"/>
				<stop  offset="1" style="stop-color:#BCBEC0"/>
			</linearGradient>
			<path fill="url(#SVGID_6_)" d="M293.8,112.2h-29.6l8.9-24.8l9.6-26.2l7.9-21.2h52.8c10.5,0,16.8,2.2,19.8,7
				c2.9,4.5,2.9,10.5,0.3,17.8l-1.8,4.9c-2.4,6.7-6.2,12-11.3,15.6c-5.2,3.8-12.3,5.6-21.8,5.6h-26.9L293.8,112.2L293.8,112.2z
				 M279,101.7h7.5l7.8-21.3h34.2c7.1,0,12.4-1.2,15.7-3.6c3.3-2.4,5.8-6,7.6-10.8l1.8-4.9c1.5-4,1.8-7.1,0.7-8.6
				c0,0-1.5-2.2-10.9-2.2h-45.5l-5.4,14.4L282.9,91L279,101.7L279,101.7z M325.1,76.8h-29.5l8.3-22.8h25.7c4.9,0,10.8,0.6,13.2,5.1
				c1.6,2.9,2,5.7,1.1,8.1c-0.7,2-2.3,3.9-5.2,6.2C335.6,75.6,331.2,76.8,325.1,76.8L325.1,76.8z M310.6,66.3h14.5
				c5.3,0,6.9-1,7.1-1.2c0.2-0.2,0.4-0.4,0.6-0.5c-0.7-0.1-1.8-0.2-3.2-0.2h-18.3L310.6,66.3L310.6,66.3z"/>
		</g>
		<g>
			<path fill="#ED1C24" d="M160.2,47.7c-4.5,1.8-7.3,3.7-8.4,5.6c-1.2,2-2.3,3.5-3.3,4.6c-0.7,1.1-1.4,2.8-2.3,5.2
				c-2,5.5-0.7,9.1,3.8,10.9l36.1,15.5c0.4,0.2,0.6,0.8,0.6,1.8c-0.1,1-0.8,1.5-2.4,1.5h-48.9l-5.2,14.1h59.1
				c4.6,0,8.5-1.2,11.8-3.7c3.3-2.4,5.8-5,7.5-7.8c1.2-2.7,1.9-5.5,2.1-8.7c0.1-3.2-1.1-5.4-3.7-6.5l-40-17.5
				c-0.2,0-0.2-0.4-0.1-1.3c0.6-1.3,1.5-1.9,2.6-1.9h38.2h14.1l5.3-14.5h-52.3C169.5,45.1,164.7,46,160.2,47.7z"/>
			<polygon fill="#ED1C24" points="228.9,106.9 247.5,106.9 256.3,83 270.2,45.1 251.5,45.1 			"/>
			<path fill="#ED1C24" d="M358.7,49.6c-2-3.1-7.1-4.6-15.4-4.6H316h-21.9l-6.6,17.8L278,89.1l-6.4,17.8h18.5l7.8-21.3h11.5h8.3
				h10.8c8.3,0,14.6-1.5,18.8-4.6c4.2-3.1,7.3-7.5,9.4-13.2l0.8-2.2l1-2.7C360.6,57.1,360.7,52.7,358.7,49.6z M338.9,65.3
				c-0.4,1-1.5,2.3-3.6,3.8c-2,1.5-5.4,2.3-10.4,2.3h-22l4.5-12.4h11.5h10.5c4.9,0,7.8,0.8,8.7,2.3C339,63,339.3,64.3,338.9,65.3z"
				/>
		</g>
	</g>
	<g>
		<g>
			<path d="M25.8,190.2c-0.6,0.9-1.4,1.7-2.6,2.6c-1.1,0.8-2.4,1.2-3.9,1.2H0l1.9-4.6h16c0.4,0,0.7-0.1,0.8-0.3c0-0.1,0.1-0.2,0-0.2
				c0-0.3,0-0.5-0.1-0.6l-11.7-5.1c-1.5-0.6-1.8-1.8-1.1-3.6c0.2-0.4,0.3-0.8,0.4-1c0.1-0.3,0.2-0.5,0.4-0.7
				c0.2-0.2,0.4-0.4,0.6-0.7c0.2-0.3,0.4-0.5,0.6-0.8c0.4-0.7,1.4-1.3,2.8-1.9c1.4-0.6,3-0.9,4.8-0.9h17.1l-1.9,4.7H13.5
				c-0.4,0-0.7,0.2-0.9,0.6c-0.1,0.3-0.1,0.4,0,0.4l12.9,5.7c0.8,0.4,1.2,1.1,1.1,2.2c0,0.8-0.2,1.5-0.5,2.2L26,190
				C25.9,190,25.9,190.1,25.8,190.2z"/>
			<path d="M36.4,187.3h-1.5c-0.4,0.9-0.4,1.6-0.2,2.1c0.2,0.5,1,0.7,2.2,0.7h11.2l-1.6,3.9H33.1c-1.1,0-2-0.1-2.7-0.3
				c-0.7-0.2-1.2-0.5-1.5-0.9c-0.3-0.4-0.4-0.9-0.4-1.5c0-0.6,0.2-1.3,0.6-2.2l2.9-7.2c0.3-0.8,0.7-1.5,1.2-2.2
				c0.4-0.6,1-1.1,1.6-1.5c0.6-0.4,1.4-0.7,2.2-0.9c0.9-0.2,1.8-0.3,3-0.3h13.5l-1.6,3.9H40.7c-1.2,0-2.2,0.2-2.8,0.7
				c-0.6,0.5-1.1,1.1-1.4,1.9h14.4l-1.6,3.9H36.4z"/>
			<path d="M68.6,194h-5.7l-3.3-5.9h-3.2L54,194h-5.1l6.9-17h13.5c2.3,0,3.7,0.4,4.2,1.3c0.5,0.9,0.4,2.1-0.2,3.6l-0.6,1.4
				c-0.6,1.6-1.5,2.8-2.7,3.6c-1.2,0.8-2.5,1.3-4,1.3h-0.8L68.6,194z M63.9,184.2c1.4,0,2.3-0.2,2.9-0.6c0.6-0.5,0.9-0.8,1-1.1
				c0.1-0.3,0-0.6-0.2-1.1c-0.2-0.4-1-0.6-2.3-0.6h-6l-1.4,3.4H63.9z"/>
			<path d="M96.9,177c-5.2,7.8-8,11.9-8.3,12.2c-0.7,1-1.7,2-3.1,3.1c-1.4,1.1-2.6,1.7-3.7,1.7h-2.9c-0.9,0-1.7-0.6-2.3-1.7
				c-0.6-1.2-0.8-2.2-0.7-3c0-0.2,0.1-1.3,0.3-3.3c0.3-2,0.7-5,1.2-8.9h5.2L81,187.4c0,0.4,0,0.8,0,1.1c0,0.3,0.1,0.6,0.2,0.8
				c0.1,0.2,0.2,0.3,0.3,0.4c0.1,0.1,0.3,0.2,0.4,0.2c0.3,0,0.7-0.2,1.3-0.6c0.5-0.4,1.1-1,1.7-1.9l6.8-10.4H96.9z"/>
			<path d="M97.5,194h-5.1l6.9-17h5.1L97.5,194z"/>
			<path d="M109.1,183.5l-1.6,3.9c-0.3,0.9-0.4,1.6-0.2,2.1c0.2,0.5,1,0.7,2.2,0.7h11.2l-1.6,3.9h-13.5c-1.1,0-2-0.1-2.7-0.3
				c-0.7-0.2-1.2-0.5-1.5-0.9c-0.3-0.4-0.4-0.9-0.4-1.5c0-0.6,0.2-1.3,0.6-2.2l2.9-7.2c0.3-0.8,0.7-1.5,1.2-2.2
				c0.4-0.6,1-1.1,1.6-1.5c0.6-0.4,1.4-0.7,2.2-0.9c0.8-0.2,1.8-0.3,3-0.3h13.5l-1.6,3.9h-11.2c-1.2,0-2.2,0.2-2.8,0.7
				C109.9,182,109.4,182.7,109.1,183.5z"/>
			<path d="M126.6,194h-5.1l6.9-17h5.1L126.6,194z"/>
			<path d="M150.3,189.1c-0.6,1.6-1.5,2.8-2.7,3.6c-1.2,0.8-2.9,1.3-5.2,1.3h-7.5c-2,0-3.3-0.4-4-1.1c-0.7-0.7-0.7-2,0-3.8l2.9-7.2
				c0.7-1.6,1.6-2.9,2.9-3.7c1.3-0.8,3-1.2,5.1-1.2h7.5c2.3,0,3.7,0.4,4.2,1.3c0.5,0.9,0.4,2.1-0.2,3.6L150.3,189.1z M145.8,187.4
				l1.6-3.9c0.4-0.9,0.4-1.6,0.2-2.1c-0.2-0.4-1-0.6-2.3-0.6h-2.9c-1.2,0-2.2,0.2-2.8,0.7c-0.6,0.5-1.1,1.1-1.5,2l-1.5,3.9
				c-0.4,0.9-0.4,1.5-0.2,2c0.2,0.5,1,0.7,2.2,0.7h2.9c1.4,0,2.3-0.2,2.8-0.6C145,189,145.5,188.3,145.8,187.4z"/>
			<path d="M172.3,190.8c-0.5,0.7-1.2,1.5-2.1,2.1c-1,0.7-2.1,1-3.3,1h-16.2l1.6-3.9h13.4c0.4,0,0.6-0.1,0.7-0.4
				c0-0.3,0-0.5-0.1-0.5l-9.8-4.3c-1.2-0.5-1.5-1.5-0.9-3c0.1-0.4,0.3-0.6,0.4-0.9c0.1-0.2,0.2-0.4,0.3-0.6c0.2-0.2,0.3-0.3,0.5-0.6
				c0.2-0.2,0.3-0.5,0.5-0.7c0.4-0.5,1.1-1.1,2.4-1.6c1.2-0.5,2.6-0.7,4-0.7h14.4l-1.6,4h-14.4c-0.3,0-0.6,0.2-0.7,0.5
				c-0.1,0.2-0.1,0.4,0,0.4l10.8,4.8c0.7,0.3,1,0.9,0.9,1.8C172.9,189.4,172.6,190.1,172.3,190.8z"/>
			<path d="M194.6,194h-6.1l8.2-20.3h6.1L194.6,194z"/>
			<path d="M221.7,181.9l-4.9,12.1h-5.1l4.2-10.4c0.4-0.9,0.4-1.6,0.2-2.1c-0.2-0.4-1-0.6-2.3-0.6H211c-1.2,0-2.2,0.2-2.8,0.7
				c-0.6,0.5-1.1,1.1-1.5,2l-4.2,10.4h-5.2l4.9-12.1c0.6-1.5,1.6-2.7,3-3.6c1.4-0.9,3.1-1.3,5-1.3h7.5c2.3,0,3.7,0.4,4.2,1.3
				C222.5,179.1,222.4,180.3,221.7,181.9z"/>
			<path d="M224.6,180.8l1.6-3.9h19.5l-1.6,3.9h-7.3l-5.3,13.1h-5.1l5.3-13.1H224.6z"/>
			<path d="M250.5,187.3H249c-0.3,0.9-0.4,1.6-0.2,2.1c0.2,0.5,1,0.7,2.2,0.7h11.2l-1.6,3.9h-13.5c-1.1,0-2-0.1-2.7-0.3
				c-0.7-0.2-1.2-0.5-1.5-0.9c-0.3-0.4-0.4-0.9-0.4-1.5c0-0.6,0.2-1.3,0.6-2.2l2.9-7.2c0.3-0.8,0.7-1.5,1.2-2.2
				c0.4-0.6,1-1.1,1.6-1.5c0.6-0.4,1.4-0.7,2.2-0.9c0.8-0.2,1.8-0.3,3-0.3h13.5l-1.6,3.9h-11.2c-1.2,0-2.2,0.2-2.8,0.7
				c-0.6,0.5-1.1,1.1-1.4,1.9h14.4l-1.6,3.9H250.5z"/>
			<path d="M282.6,194h-13.4c-1.1,0-2-0.1-2.7-0.3c-0.7-0.2-1.2-0.5-1.5-0.9c-0.3-0.4-0.4-0.9-0.4-1.5c0-0.6,0.2-1.3,0.6-2.2
				l2.9-7.2c0.3-0.8,0.7-1.5,1.2-2.2c0.5-0.6,1-1.1,1.6-1.5c0.6-0.4,1.4-0.7,2.2-0.9c0.8-0.2,1.8-0.3,3-0.3h13.4l-1.6,3.9h-11.2
				c-1.2,0-2.2,0.2-2.8,0.7c-0.6,0.5-1.1,1.1-1.5,2l-1.6,3.9c-0.4,0.9-0.4,1.5-0.2,2c0.2,0.5,1,0.7,2.2,0.7h6.1l2.3-5.6h5.1
				L282.6,194z"/>
			<path d="M304.7,194H299l-3.3-5.9h-3.2l-2.4,5.9H285l6.9-17h13.5c2.3,0,3.7,0.4,4.2,1.3c0.5,0.9,0.4,2.1-0.2,3.6l-0.6,1.4
				c-0.6,1.6-1.5,2.8-2.7,3.6c-1.2,0.8-2.5,1.3-4,1.3h-0.8L304.7,194z M300.1,184.2c1.4,0,2.3-0.2,2.9-0.6c0.6-0.5,0.9-0.8,1-1.1
				c0.1-0.3,0-0.6-0.2-1.1c-0.2-0.4-1-0.6-2.3-0.6h-6l-1.4,3.4H300.1z"/>
			<path d="M315.8,188.4l-3.7,5.6h-5.2c2.6-3.9,4.6-6.9,5.9-8.9c1.4-2,2.1-3.1,2.2-3.3c0.4-0.5,0.9-1,1.4-1.5
				c0.5-0.5,1.2-1.1,1.9-1.6c1.4-1.1,2.7-1.7,3.7-1.7h2.9c1.1,0,1.9,0.6,2.4,1.7c0.5,1.2,0.7,2.2,0.6,3.2c0,0.3-0.5,4.3-1.6,12.1
				h-5.2l0.8-5.6H315.8z M322.8,184.5l0.1-1c0.1-0.9,0-1.5-0.2-1.9c-0.2-0.4-0.5-0.6-0.7-0.6c-0.3,0-0.7,0.2-1.2,0.6
				c-0.6,0.4-1.1,1-1.8,1.9l-0.7,1h2.5H322.8z"/>
			<path d="M348.4,194h-13.5c-1.1,0-2-0.1-2.7-0.3c-0.7-0.2-1.2-0.5-1.5-0.9c-0.3-0.4-0.4-0.9-0.4-1.5c0-0.6,0.2-1.3,0.6-2.2
				l4.9-12.1h5.2l-4.2,10.4c-0.4,0.9-0.4,1.5-0.2,2c0.2,0.5,1,0.7,2.2,0.7h11.2l-0.5,1.4L348.4,194z"/>
			<path d="M360.2,187.3h-1.5c-0.3,0.9-0.4,1.6-0.2,2.1c0.2,0.5,1,0.7,2.2,0.7H372l-1.6,3.9H357c-1.1,0-2-0.1-2.7-0.3
				c-0.7-0.2-1.2-0.5-1.5-0.9c-0.3-0.4-0.4-0.9-0.4-1.5c0-0.6,0.2-1.3,0.6-2.2l2.9-7.2c0.3-0.8,0.7-1.5,1.2-2.2
				c0.4-0.6,1-1.1,1.6-1.5c0.6-0.4,1.4-0.7,2.2-0.9c0.8-0.2,1.8-0.3,3-0.3h13.5l-1.6,3.9h-11.2c-1.2,0-2.2,0.2-2.8,0.7
				c-0.6,0.5-1.1,1.1-1.4,1.9h14.4l-1.6,3.9H360.2z"/>
			<path d="M394.4,190.8c-0.5,0.7-1.2,1.5-2.1,2.1c-1,0.7-2.1,1-3.3,1h-16.2l1.6-3.9h13.4c0.4,0,0.6-0.1,0.7-0.4
				c0-0.3,0-0.5-0.1-0.5l-9.8-4.3c-1.2-0.5-1.5-1.5-0.9-3c0.1-0.4,0.3-0.6,0.4-0.9c0.1-0.2,0.2-0.4,0.3-0.6c0.2-0.2,0.3-0.3,0.5-0.6
				c0.2-0.2,0.3-0.5,0.5-0.7c0.4-0.5,1.1-1.1,2.4-1.6c1.2-0.5,2.6-0.7,4-0.7H400l-1.6,4H384c-0.3,0-0.6,0.2-0.7,0.5
				c-0.1,0.2-0.1,0.4,0,0.4l10.8,4.8c0.7,0.3,1,0.9,0.9,1.8C395,189.4,394.8,190.1,394.4,190.8z"/>
		</g>
		<g>
			<path d="M63.1,209.5h5.2l2,6.5l7.2-6.5h5.2l-11.6,10.7l-2.6,6.3h-5.1l2.5-6.3L63.1,209.5z"/>
			<path d="M93.5,226.5h-6.1l8.2-20.3h16.1c2.7,0,4.4,0.5,5,1.5c0.6,1,0.5,2.5-0.2,4.3l-0.7,1.6c-0.8,1.9-1.8,3.4-3.2,4.3
				c-1.4,1-3.5,1.5-6.2,1.5h-10L93.5,226.5z M105.4,214.9c1.6,0,2.8-0.3,3.4-0.8c0.7-0.5,1.1-1,1.2-1.3c0.1-0.3,0-0.7-0.2-1.3
				c-0.2-0.5-1.2-0.8-2.8-0.8h-7.2l-1.6,4.1H105.4z"/>
			<path d="M132.3,225.2c-1.2,0.8-2.9,1.3-5.2,1.3h-7.5c-1.9,0-3.2-0.4-3.9-1.3c-0.7-0.9-0.8-2.1-0.2-3.6l4.9-12.1h5.2l-4.2,10.4
				c-0.4,0.9-0.4,1.5-0.2,2c0.2,0.5,1,0.7,2.2,0.7h2.9c1.4,0,2.3-0.2,2.9-0.6c0.6-0.5,1-1.1,1.4-2.1l4.2-10.4h5.1l-4.9,12.1
				C134.4,223.2,133.5,224.4,132.3,225.2z"/>
			<path d="M154.8,218.4c1.9,0.5,2.7,1.3,2.2,2.5l-0.3,0.7c-0.6,1.6-1.5,2.8-2.7,3.6c-1.2,0.8-2.9,1.3-5.2,1.3h-13.5l6.9-17h13.5
				c2.3,0,3.7,0.4,4.2,1.3c0.5,0.9,0.4,2.1-0.2,3.6l-0.3,0.7C158.8,216.5,157.3,217.6,154.8,218.4z M143.1,219.9l-1.1,2.8h6
				c1.4,0,2.3-0.2,2.9-0.6c0.6-0.5,0.9-0.8,1-1.1c0.1-0.3,0-0.5-0.3-0.7c-0.3-0.2-1.1-0.3-2.4-0.3H143.1z M150.8,216
				c1.3,0,2.2-0.1,2.6-0.3c0.5-0.2,0.7-0.4,0.9-0.7c0.1-0.3,0-0.6-0.2-1.1c-0.2-0.4-1-0.6-2.3-0.6h-6l-1.1,2.6H150.8z"/>
			<path d="M176.5,226.5h-13.5c-1.1,0-2-0.1-2.7-0.3c-0.7-0.2-1.2-0.5-1.5-0.9c-0.3-0.4-0.4-0.9-0.4-1.5c0-0.6,0.2-1.3,0.6-2.2
				l4.9-12.1h5.2l-4.2,10.4c-0.4,0.9-0.4,1.5-0.2,2c0.2,0.5,1,0.7,2.2,0.7h11.2l-0.5,1.4L176.5,226.5z"/>
			<path d="M183.9,226.5h-5.1l6.9-17h5.1L183.9,226.5z"/>
			<path d="M195.5,216l-1.6,3.9c-0.3,0.9-0.4,1.6-0.2,2.1c0.2,0.5,1,0.7,2.2,0.7h11.2l-1.6,3.9h-13.5c-1.1,0-2-0.1-2.7-0.3
				c-0.7-0.2-1.2-0.5-1.5-0.9c-0.3-0.4-0.4-0.9-0.4-1.5c0-0.6,0.2-1.3,0.6-2.2l2.9-7.2c0.3-0.8,0.7-1.5,1.2-2.2
				c0.4-0.6,1-1.1,1.6-1.5c0.6-0.4,1.4-0.7,2.2-0.9c0.8-0.2,1.8-0.3,3-0.3h13.5l-1.6,3.9h-11.2c-1.2,0-2.2,0.2-2.8,0.7
				C196.4,214.6,195.9,215.2,195.5,216z"/>
			<path d="M213,226.5h-5.1l6.9-17h5.1L213,226.5z"/>
			<path d="M220.6,213.4l1.6-3.9h19.5l-1.6,3.9h-7.3l-5.3,13.1h-5.1l5.3-13.1H220.6z"/>
			<path d="M245.9,220.9l-3.7,5.6H237c2.6-3.9,4.6-6.9,5.9-8.9c1.4-2,2.1-3.1,2.2-3.3c0.4-0.5,0.9-1,1.4-1.5
				c0.5-0.5,1.2-1.1,1.9-1.6c1.4-1.1,2.7-1.7,3.7-1.7h2.9c1.1,0,1.9,0.6,2.4,1.7c0.5,1.2,0.7,2.2,0.6,3.2c0,0.3-0.5,4.3-1.6,12.1
				h-5.2l0.8-5.6H245.9z M252.9,217.1l0.1-1c0.1-0.9,0-1.5-0.2-1.9c-0.2-0.4-0.5-0.6-0.7-0.6c-0.3,0-0.7,0.2-1.2,0.6
				c-0.6,0.4-1.1,1-1.8,1.9l-0.7,1h2.5H252.9z"/>
			<path d="M278.5,226.5h-5.7l-3.3-5.9h-3.2l-2.4,5.9h-5.1l6.9-17h13.5c2.3,0,3.7,0.4,4.2,1.3c0.5,0.9,0.4,2.1-0.2,3.6l-0.6,1.4
				c-0.6,1.6-1.5,2.8-2.7,3.6c-1.2,0.8-2.5,1.3-4,1.3h-0.8L278.5,226.5z M273.9,216.8c1.4,0,2.3-0.2,2.9-0.6c0.6-0.5,0.9-0.8,1-1.1
				c0.1-0.3,0-0.6-0.2-1.1c-0.2-0.4-1-0.6-2.3-0.6h-6l-1.4,3.4H273.9z"/>
			<path d="M285.7,226.5h-5.1l6.9-17h5.1L285.7,226.5z"/>
			<path d="M309.4,221.6c-0.6,1.6-1.5,2.8-2.7,3.6c-1.2,0.8-2.9,1.3-5.2,1.3h-7.5c-2,0-3.3-0.4-4-1.1c-0.7-0.7-0.7-2,0-3.8l2.9-7.2
				c0.7-1.6,1.6-2.9,2.9-3.7c1.3-0.8,3-1.2,5.1-1.2h7.5c2.3,0,3.7,0.4,4.2,1.3c0.5,0.9,0.4,2.1-0.2,3.6L309.4,221.6z M304.9,220
				l1.6-3.9c0.4-0.9,0.4-1.6,0.2-2.1c-0.2-0.4-1-0.6-2.3-0.6h-2.9c-1.2,0-2.2,0.2-2.8,0.7c-0.6,0.5-1.1,1.1-1.5,2l-1.5,3.9
				c-0.4,0.9-0.4,1.5-0.2,2c0.2,0.5,1,0.7,2.2,0.7h2.9c1.4,0,2.3-0.2,2.8-0.6C304.1,221.5,304.5,220.9,304.9,220z"/>
			<path d="M331.3,223.4c-0.5,0.7-1.2,1.5-2.1,2.1c-1,0.7-2.1,1-3.3,1h-16.2l1.6-3.9h13.4c0.4,0,0.6-0.1,0.7-0.4
				c0-0.3,0-0.5-0.1-0.5l-9.8-4.3c-1.2-0.5-1.5-1.5-0.9-3c0.1-0.4,0.3-0.6,0.4-0.9c0.1-0.2,0.2-0.4,0.3-0.6c0.2-0.2,0.3-0.3,0.5-0.6
				s0.3-0.5,0.5-0.7c0.4-0.5,1.1-1.1,2.4-1.6c1.2-0.5,2.6-0.7,4-0.7h14.4l-1.6,4H321c-0.3,0-0.6,0.2-0.7,0.5c-0.1,0.2-0.1,0.4,0,0.4
				l10.8,4.8c0.7,0.3,1,0.9,0.9,1.8C331.9,221.9,331.7,222.7,331.3,223.4z"/>
		</g>
	</g>
</g>
</svg>
