<?xml version="1.0" encoding="utf-8"?>
<!-- Generator: Adobe Illustrator 18.0.0, SVG Export Plug-In . SVG Version: 6.00 Build 0)  -->
<!DOCTYPE svg PUBLIC "-//W3C//DTD SVG 1.1//EN" "http://www.w3.org/Graphics/SVG/1.1/DTD/svg11.dtd">
<svg version="1.1" id="Layer_1" xmlns="http://www.w3.org/2000/svg" xmlns:xlink="http://www.w3.org/1999/xlink" x="0px" y="0px"
	 viewBox="0 0 195 70" enable-background="new 0 0 195 70" xml:space="preserve">
<g>
	<path fill="#95D600" d="M62.6,57.6L26.4,69.4c-5.8,1.9-12-1.2-13.9-7L0.6,26.3c-1.9-5.8,1.3-12,7.1-13.9L43.8,0.6
		c5.8-1.9,12,1.2,13.9,7l11.9,36.1C71.6,49.5,68.4,55.7,62.6,57.6z M55.1,42.5l-8.4-25.3c-0.6-1.7-2.4-2.6-4.1-2.1l-25.4,8.3
		c-1.7,0.6-2.6,2.4-2.1,4.1l8.4,25.3c0.6,1.7,2.4,2.6,4.1,2.1L53,46.6C54.7,46,55.6,44.2,55.1,42.5z"/>
	<path fill="#3E4543" d="M92.9,33h6v0.9l-0.4,3.8c-0.7,3.4-4.3,5.2-10.7,5.2c-4.7,0-7.8-0.8-9.4-2.5c-1.6-1.7-2.3-5.1-2.3-10.2
		c0-5,0.8-8.4,2.3-10.1c1.6-1.7,4.6-2.6,9.1-2.6c4.3,0,7.3,0.6,8.8,1.9c1.5,1.3,2.3,3.7,2.3,7.2h-5.9c0-2.9-1.7-4.4-5.1-4.4
		c-2.4,0-3.9,0.5-4.5,1.4c-0.6,0.9-0.9,3.2-0.9,6.8c0,3.5,0.3,5.7,1,6.6c0.7,0.9,2.3,1.3,4.9,1.3c2.1,0,3.4-0.3,4-0.9
		C92.7,36.5,92.9,35.1,92.9,33z"/>
	<path fill="#3E4543" d="M125.6,17.6v25h-6l0.3-4.3l-0.1,0c-1.2,3.1-3.9,4.6-8.1,4.6c-5.7,0-8.5-2.8-8.5-8.5V17.6h6v15.3
		c0,2.1,0.3,3.5,0.9,4.2c0.6,0.7,1.8,1,3.7,1c3.8,0,5.8-2.3,5.8-6.9V17.6H125.6z"/>
	<path fill="#3E4543" d="M131.6,42.5V9.4h6v11.8l0.1,0.1c1-2.6,3.6-3.9,7.8-3.9c3.6,0,6.1,0.9,7.4,2.6c1.3,1.7,2,5,2,9.7
		c0,5.2-0.7,8.7-2,10.5c-1.4,1.8-4,2.7-7.8,2.7c-3.9,0-6.5-1.4-7.7-4.2h-0.1l0.3,3.9H131.6z M143.6,22c-3.9,0-5.8,2.4-5.8,7.2
		c0,3.8,0.3,6.2,1,7.3c0.7,1.1,2.2,1.6,4.5,1.6c2.4,0,4-0.5,4.7-1.5c0.7-1,1-3.2,1-6.7c0-3.3-0.3-5.4-1-6.4
		C147.2,22.5,145.8,22,143.6,22z"/>
	<rect x="160" y="9.4" fill="#95D600" width="6" height="5"/>
	<rect x="160" y="17.6" fill="#3E4543" width="6" height="25"/>
	<path fill="#3E4543" d="M177.9,9.4v17.9h1.5l6.8-9.7h7l-8.7,11.7L195,42.5h-7.4l-8.1-11.1h-1.5v11.1h-6V9.4H177.9z"/>
	<text transform="matrix(1.0034 0 0 1 76.3671 54.0723)" fill="#3E4543" font-family="'EurostileRegular'" font-size="12.6119">comunicación impresa</text>
</g>
</svg>
