<?xml version="1.0" encoding="utf-8"?>
<!-- Generator: Adobe Illustrator 18.0.0, SVG Export Plug-In . SVG Version: 6.00 Build 0)  -->
<!DOCTYPE svg PUBLIC "-//W3C//DTD SVG 1.1//EN" "http://www.w3.org/Graphics/SVG/1.1/DTD/svg11.dtd">
<svg version="1.1" id="Layer_1" xmlns="http://www.w3.org/2000/svg" xmlns:xlink="http://www.w3.org/1999/xlink" x="0px" y="0px"
	 viewBox="0 63 250 122.2" enable-background="new 0 63 250 122.2" xml:space="preserve">
<g>
	<g>
		
			<linearGradient id="SVGID_1_" gradientUnits="userSpaceOnUse" x1="57.2676" y1="172.6704" x2="167.5676" y2="172.6704" gradientTransform="matrix(0.5819 0 0 -0.5819 7.629395e-06 208.828)">
			<stop  offset="0" style="stop-color:#000000"/>
			<stop  offset="1" style="stop-color:#BCBEC0"/>
		</linearGradient>
		<path fill="url(#SVGID_1_)" d="M47.2,115.8c0-26.4,21.5-48,48-48c0.8,0,1.5,0.1,2.3,0.1c-5.7-2.6-12-4-18.6-4
			c-25.1,0-45.6,20.4-45.6,45.6c0,20.2,13.2,37.3,31.4,43.3C54,143.9,47.2,130.6,47.2,115.8z"/>
		<path fill="#ED1C24" d="M38.4,139.9c-16.8-20.4-14-50.7,6.5-67.5c0.6-0.5,1.2-0.9,1.9-1.4c-6.1,1.6-11.8,4.5-16.9,8.7
			c-19.4,16-22.1,44.8-6.1,64.1c12.9,15.5,33.9,20.4,51.8,13.4C61.7,157.3,47.9,151.4,38.4,139.9z"/>
		
			<linearGradient id="SVGID_2_" gradientUnits="userSpaceOnUse" x1="2.1803" y1="117.9851" x2="148.3676" y2="117.9851" gradientTransform="matrix(0.5819 0 0 -0.5819 7.629395e-06 208.828)">
			<stop  offset="0" style="stop-color:#000000"/>
			<stop  offset="1" style="stop-color:#BCBEC0"/>
		</linearGradient>
		<path fill="url(#SVGID_2_)" d="M46.5,163c-25.9-5.4-42.5-30.9-37.1-56.8c0.2-0.8,0.4-1.5,0.6-2.2c-3.7,5.1-6.4,10.9-7.7,17.4
			c-5.2,24.6,10.6,48.8,35.3,53.9c19.7,4.1,39.2-5.2,48.8-21.8C75.5,162.1,61.1,166,46.5,163z"/>
		<path fill="#ED1C24" d="M96.9,132.4c0,26.4-21.5,48-48,48c-0.8,0-1.5-0.1-2.3-0.1c5.7,2.6,12,4,18.6,4c25.1,0,45.6-20.4,45.6-45.6
			c0-20.2-13.2-37.3-31.4-43.3C90.1,104.2,96.9,117.5,96.9,132.4z"/>
		
			<linearGradient id="SVGID_3_" gradientUnits="userSpaceOnUse" x1="117.8676" y1="131.3056" x2="224.773" y2="131.3056" gradientTransform="matrix(0.5819 0 0 -0.5819 7.629395e-06 208.828)">
			<stop  offset="0" style="stop-color:#000000"/>
			<stop  offset="1" style="stop-color:#BCBEC0"/>
		</linearGradient>
		<path fill="url(#SVGID_3_)" d="M105.7,108.2c16.8,20.4,14,50.7-6.5,67.5c-0.6,0.5-1.2,0.9-1.9,1.4c6-1.6,11.8-4.5,16.9-8.7
			c19.4-16,22.1-44.8,6.1-64.1c-12.9-15.5-33.9-20.4-51.8-13.4C82.4,90.8,96.2,96.7,105.7,108.2z"/>
		<path fill="#ED1C24" d="M97.6,85.2c25.9,5.4,42.5,30.9,37.1,56.8c-0.2,0.8-0.4,1.5-0.6,2.2c3.7-5.1,6.4-10.9,7.7-17.4
			c5.2-24.6-10.6-48.8-35.3-53.9c-19.7-4.1-39.2,5.2-48.8,21.8C68.6,86,83.1,82.1,97.6,85.2z"/>
	</g>
	<g>
		
			<linearGradient id="SVGID_4_" gradientUnits="userSpaceOnUse" x1="173.5293" y1="121.5768" x2="218.3297" y2="220.4759" gradientTransform="matrix(0.5819 0 0 -0.5819 7.629395e-06 208.828)">
			<stop  offset="0" style="stop-color:#000000"/>
			<stop  offset="1" style="stop-color:#BCBEC0"/>
		</linearGradient>
		<path fill="url(#SVGID_4_)" d="M116.9,147.2H67.1l6.7-18.3h27.5L86,122.4c-5.4-2.2-7.3-7-5-13.1c0.8-2.1,1.5-3.6,2.1-4.7l0.2-0.3
			l0.2-0.3c0.6-0.6,1.3-1.6,2-2.9c1.3-2.3,4-4.1,8.2-5.8c3.8-1.5,7.9-2.3,12.3-2.3h44.7l-6.8,18.7h-30.5l18.3,8
			c3.4,1.6,5.2,4.7,5.1,8.6c-0.1,2.9-0.8,5.6-1.9,8l-0.2,0.3c-1.5,2.4-3.7,4.8-6.6,6.9C124.9,146.1,121.1,147.2,116.9,147.2
			L116.9,147.2z M78.3,139.4h38.6c2.6,0,4.7-0.6,6.6-2c2-1.5,3.5-3,4.4-4.5c0.6-1.5,1-3,1.1-4.8c0.1-0.9-0.1-1-0.5-1.2l-29.7-13
			c-0.7-0.2-1.3-0.6-1.7-1.2c-1.3-1.6-0.9-3.4-0.8-4.2l0.1-0.5l0.2-0.5c1.1-2.3,3.1-3.7,5.5-3.7h36.4l1.1-3h-33.5
			c-3.4,0-6.5,0.6-9.4,1.7c-3.7,1.5-4.4,2.5-4.4,2.6c-0.9,1.5-1.8,2.8-2.7,3.8c-0.2,0.4-0.6,1.3-1.2,2.9c-0.9,2.6-0.3,2.8,0.6,3.1
			l0.1,0.1l27.3,11.7c0.8,0.4,2.7,1.7,2.6,5c-0.1,2.4-1.9,4.8-5.7,4.8H79.4L78.3,139.4L78.3,139.4z"/>
		
			<linearGradient id="SVGID_5_" gradientUnits="userSpaceOnUse" x1="249.0224" y1="87.3789" x2="293.8226" y2="186.2778" gradientTransform="matrix(0.5819 0 0 -0.5819 7.629395e-06 208.828)">
			<stop  offset="0" style="stop-color:#000000"/>
			<stop  offset="1" style="stop-color:#BCBEC0"/>
		</linearGradient>
		<path fill="url(#SVGID_5_)" d="M163.2,147.2H141l19.8-54.1h22.3l-12.3,33.6L163.2,147.2L163.2,147.2z M152.2,139.4h5.6l5.6-15.3
			l8.4-23.1h-5.6L152.2,139.4L152.2,139.4z"/>
		
			<linearGradient id="SVGID_6_" gradientUnits="userSpaceOnUse" x1="320.4961" y1="55.0021" x2="365.2966" y2="153.9013" gradientTransform="matrix(0.5819 0 0 -0.5819 7.629395e-06 208.828)">
			<stop  offset="0" style="stop-color:#000000"/>
			<stop  offset="1" style="stop-color:#BCBEC0"/>
		</linearGradient>
		<path fill="url(#SVGID_6_)" d="M195.2,147.2H173l6.7-18.6l7.2-19.7l5.9-15.9h39.5c7.9,0,12.5,1.7,14.8,5.2
			c2.2,3.4,2.2,7.9,0.2,13.3l-1.3,3.7c-1.9,5-4.7,9-8.4,11.7c-3.8,2.8-9.2,4.2-16.4,4.2H201L195.2,147.2L195.2,147.2z M184.1,139.4
			h5.6l5.8-15.9h25.6c5.4,0,9.3-0.9,11.7-2.7c2.5-1.9,4.4-4.5,5.7-8.1l1.3-3.7c1.1-3,1.3-5.3,0.6-6.5c0,0-1.1-1.6-8.2-1.6h-34
			l-4,10.8l-7.2,19.6L184.1,139.4L184.1,139.4z M218.6,120.8h-22.1l6.2-17.1h19.1c3.7,0,8,0.4,9.9,3.8c1.2,2.2,1.5,4.2,0.8,6.1
			c-0.5,1.5-1.7,2.9-3.9,4.6C226.5,119.9,223.2,120.8,218.6,120.8L218.6,120.8z M207.7,112.9h10.8c4,0,5.1-0.8,5.4-0.9
			c0.2-0.1,0.3-0.3,0.5-0.4c-0.6-0.1-1.3-0.1-2.4-0.1h-13.7L207.7,112.9L207.7,112.9z"/>
	</g>
	<g>
		<path fill="#ED1C24" d="M95.2,99.1c-3.3,1.3-5.4,2.7-6.3,4.2c-0.9,1.5-1.7,2.6-2.5,3.5c-0.5,0.8-1.1,2.1-1.7,3.9
			c-1.5,4.1-0.5,6.8,2.9,8.1l27.1,11.6c0.3,0.2,0.5,0.6,0.4,1.3c-0.1,0.8-0.6,1.1-1.8,1.1H76.6l-3.8,10.5h44.2
			c3.4,0,6.3-0.9,8.8-2.7c2.5-1.9,4.4-3.8,5.6-5.8c0.9-2,1.5-4.1,1.5-6.5c0.1-2.4-0.8-4-2.8-4.9l-29.9-13.1c-0.2,0-0.2-0.3-0.1-0.9
			c0.5-0.9,1.1-1.5,2-1.5h28.6h10.5l4-10.8H106C102.2,97,98.6,97.7,95.2,99.1z"/>
		<polygon fill="#ED1C24" points="146.6,143.3 160.5,143.3 167.1,125.4 177.5,97 163.5,97 		"/>
		<path fill="#ED1C24" d="M243.8,100.5c-1.5-2.3-5.3-3.4-11.5-3.4h-20.4h-16.4l-4.9,13.3l-7.2,19.6l-4.8,13.3h13.9l5.8-15.9h8.6h6.2
			h8c6.2,0,10.9-1.2,14-3.4s5.5-5.6,7-9.9l0.6-1.7l0.8-2C245.2,106,245.2,102.8,243.8,100.5z M228.9,112.2c-0.3,0.8-1.2,1.7-2.6,2.9
			c-1.5,1.2-4.1,1.7-7.7,1.7h-16.4l3.4-9.3h8.6h7.8c3.7,0,5.8,0.6,6.5,1.7C229,110.5,229.2,111.5,228.9,112.2z"/>
	</g>
</g>
</svg>
