<?xml version="1.0" encoding="utf-8"?>
<!-- Generator: Adobe Illustrator 18.0.0, SVG Export Plug-In . SVG Version: 6.00 Build 0)  -->
<!DOCTYPE svg PUBLIC "-//W3C//DTD SVG 1.1//EN" "http://www.w3.org/Graphics/SVG/1.1/DTD/svg11.dtd">
<svg version="1.1" id="Layer_1" xmlns="http://www.w3.org/2000/svg" xmlns:xlink="http://www.w3.org/1999/xlink" x="0px" y="0px"
	 viewBox="0 0 250 125" enable-background="new 0 0 250 125" xml:space="preserve">
<g>
	<rect x="-0.2" y="-0.3" fill="#CC0000" width="250" height="125"/>
	<g>
		<path fill-rule="evenodd" clip-rule="evenodd" fill="#FFCC00" d="M35.3,49.8l31.2-16.9c10.8-5.2,21.2-10.4,33-13
			c7.4-1.7,15.6-1.7,22.1,1.7c5.6,3.5,10.8,7.8,13.4,15.2c6.9,0.9,15.2,1.3,22.5,0.4c6.1-0.9,12.1-3.5,18.2-6.1l13.4-5.6
			c14.7-6.1,31.7,0.9,37.7,15.6c6.1,14.7-0.4,33-15.2,39c-9.1,3.9-18.2,7.4-27.8,10c-10.8,3-24.3,5.6-37.3,6.1
			c-13.9,0.9-33.4,0.9-46-5.6c-3-1.7-5.6-3.5-8.2-6.1l-0.9,0.4l-13.4,7.4L63,100.1c-13.9,7.8-31.7,2.6-39-11.3
			C16.2,74.5,21.4,57.2,35.3,49.8L35.3,49.8z"/>
	</g>
	<path fill-rule="evenodd" clip-rule="evenodd" fill="#CC0000" d="M70.9,61.9c0,3.5,1.3,6.1,3.5,7.8c2.6,2.2,5.6,3,9.5,3
		c3.5,0,6.9-0.9,9.1-3c2.2-1.7,3.5-4.3,3.5-7.8c0-3-1.3-5.6-3.5-7.4c-2.6-2.2-5.6-3-9.5-3c-3.5,0-6.5,0.9-9.1,3
		C72.2,56.3,70.9,58.9,70.9,61.9L70.9,61.9z"/>
	<path fill-rule="evenodd" clip-rule="evenodd" fill="#CC0000" d="M125.5,50.6h-10.8v9.1h11.3c3.5,0,5.6-0.4,7.4-1.3
		c1.7-0.9,2.2-1.7,2.2-3.5c0-1.3-0.4-2.6-2.2-3.5C132,51.1,129.4,50.6,125.5,50.6L125.5,50.6z"/>
	<polygon fill-rule="evenodd" clip-rule="evenodd" fill="#CC0000" points="194.9,57.6 182.7,78.4 194.4,65.8 207.9,78.4 	"/>
	<g>
		<path fill-rule="evenodd" clip-rule="evenodd" d="M172.3,78.4l0.9-1.3c-3.5,1.3-7.4,2.2-12.1,2.2c-6.1,0-14.3-1.7-19.1-3.5
			l3.5-8.2c4.8,2.2,8.2,2.6,14.3,3.5c3,0.4,4.8,0,6.9-0.4c0.9-0.4,3.5-2.2,3.5-3.5c-0.9-2.2-4.8-2.2-8.2-2.6c-2.2,0-4.3,0-5.6,0
			c-4.3-0.4-7.8-1.3-10.4-3c-0.9-0.9-1.3-1.3-2.2-2.2c-0.4,0.9-1.3,1.3-2.2,2.2c-2.6,1.7-6.5,3-10.8,3h-12.6l-0.4,13.9H106
			c0-2.6,0-5.6,0-8.7c-1.3,1.7-2.6,3-3.9,4.3c-4.3,3.5-9.5,5.2-16,5.2c-6.5,0-11.7-1.7-16-5.2c-4.3-3.5-6.1-7.8-6.1-13
			c0-3.5,0.9-6.9,3-9.5H56.1v26.9H44.4V51.5H31v-6.9c10,0,28.6,0,38.6,0v3.9c0,0,0.4,0,0.4-0.4c4.3-3,9.5-4.8,16-4.8
			c6.5,0,11.7,1.7,16,4.8c1.3,1.3,2.6,2.6,3.9,4.3c0-3,0-5.6,0-8.7h23.4c5.2,0,9.1,0.9,11.7,2.6c1.3,0.9,2.6,2.2,3,3
			c0.9-0.9,2.2-2.2,3.5-3c3-2.2,7.4-3,13-3c6.5-0.4,12.1,0.9,19.1,3.5l-3.9,7.4c-5.6-3.5-7.8-3.9-15.6-4.3c-2.6,0-4.3,0-6.1,0.9
			c-1.7,0.9-2.2,1.3-2.2,2.6c0,2.2,1.7,2.6,7.4,3c2.6,0,5.2,0.4,6.9,0.4c4.3,0.4,7.8,2.2,10.4,3.9c1.3,0.9,2.2,1.7,2.6,3l9.1-19.9
			h13.4l16.9,34.7h-10.8l-13-25.6l-12.1,25.6H172.3z M73.5,61.1c0,3.5,0.9,6.1,3.5,7.8c2.2,2.2,5.2,3,9.1,3c3.9,0,6.9-0.9,9.1-3
			c2.6-1.7,3.5-4.3,3.5-7.8c0-3-0.9-5.6-3.5-7.8c-2.2-1.7-5.2-2.6-9.1-2.6c-3.9,0-6.9,0.9-9.1,2.6C74.3,55.4,73.5,58,73.5,61.1
			L73.5,61.1z M127.2,49.8H116v8.7h11.3c3.5,0,6.1-0.4,7.8-1.3c1.3-0.4,2.2-1.7,2.2-3.5c0-1.3-0.9-2.6-2.2-3
			C133.3,49.8,130.7,49.8,127.2,49.8L127.2,49.8z"/>
	</g>
</g>
</svg>
