<?xml version="1.0" encoding="utf-8"?>
<!-- Generator: Adobe Illustrator 18.0.0, SVG Export Plug-In . SVG Version: 6.00 Build 0)  -->
<!DOCTYPE svg PUBLIC "-//W3C//DTD SVG 1.1//EN" "http://www.w3.org/Graphics/SVG/1.1/DTD/svg11.dtd">
<svg version="1.1" id="Layer_1" xmlns="http://www.w3.org/2000/svg" xmlns:xlink="http://www.w3.org/1999/xlink" x="0px" y="0px"
	 viewBox="0 0 120 43" enable-background="new 0 0 120 43" xml:space="preserve">
<g>
	<path fill="#3E4543" d="M38.5,35.4l-22.3,7.3c-3.6,1.2-7.4-0.8-8.6-4.3L0.3,16.2c-1.2-3.5,0.8-7.4,4.3-8.5L27,0.3
		c3.6-1.2,7.4,0.8,8.6,4.3l7.3,22.2C44.1,30.4,42.1,34.2,38.5,35.4z M33.9,26.1l-5.1-15.6c-0.3-1-1.5-1.6-2.5-1.3l-15.7,5.1
		c-1,0.3-1.6,1.5-1.3,2.5l5.1,15.6c0.3,1,1.5,1.6,2.5,1.3l15.7-5.1C33.7,28.3,34.2,27.2,33.9,26.1z"/>
	<path fill="#3E4543" d="M57.2,20.3h3.7v0.5l-0.2,2.3c-0.5,2.1-2.7,3.2-6.6,3.2c-2.9,0-4.8-0.5-5.8-1.6c-1-1-1.4-3.1-1.4-6.3
		c0-3.1,0.5-5.2,1.4-6.2c1-1.1,2.8-1.6,5.6-1.6c2.7,0,4.5,0.4,5.4,1.2c0.9,0.8,1.4,2.2,1.4,4.4H57c0-1.8-1-2.7-3.1-2.7
		c-1.5,0-2.4,0.3-2.8,0.8c-0.4,0.6-0.6,2-0.6,4.2c0,2.1,0.2,3.5,0.6,4c0.4,0.6,1.4,0.8,3,0.8c1.3,0,2.1-0.2,2.4-0.6
		C57,22.4,57.2,21.6,57.2,20.3z"/>
	<path fill="#3E4543" d="M77.3,10.8v15.3h-3.7l0.2-2.6l-0.1,0c-0.7,1.9-2.4,2.8-5,2.8c-3.5,0-5.2-1.7-5.2-5.2V10.8h3.7v9.4
		c0,1.3,0.2,2.2,0.5,2.6c0.4,0.4,1.1,0.6,2.3,0.6c2.4,0,3.5-1.4,3.5-4.2v-8.4H77.3z"/>
	<path fill="#3E4543" d="M81,26.1V5.8h3.7V13l0.1,0c0.6-1.6,2.2-2.4,4.8-2.4c2.2,0,3.7,0.5,4.6,1.6c0.8,1.1,1.2,3.1,1.2,6
		c0,3.2-0.4,5.3-1.2,6.4c-0.8,1.1-2.4,1.7-4.8,1.7c-2.4,0-4-0.9-4.7-2.6h-0.1l0.2,2.4H81z M88.3,13.5c-2.4,0-3.6,1.5-3.6,4.4
		c0,2.3,0.2,3.8,0.6,4.5c0.4,0.7,1.3,1,2.8,1c1.5,0,2.5-0.3,2.9-0.9c0.4-0.6,0.6-2,0.6-4.1c0-2-0.2-3.3-0.6-3.9
		C90.6,13.8,89.7,13.5,88.3,13.5z"/>
	<rect x="98.5" y="5.8" fill="#3E4543" width="3.7" height="3.1"/>
	<rect x="98.5" y="10.8" fill="#3E4543" width="3.7" height="15.3"/>
	<path fill="#3E4543" d="M109.5,5.8v11h1l4.2-6h4.3l-5.4,7.2l6.5,8.1h-4.6l-5-6.8h-0.9v6.8h-3.7V5.8H109.5z"/>
	<text transform="matrix(1.0052 0 0 1 46.9949 33.2147)" fill="#3E4543" font-family="'EurostileRegular'" font-size="7.7473">comunicación impresa</text>
</g>
</svg>
