<?xml version="1.0" encoding="utf-8"?>
<!-- Generator: Adobe Illustrator 18.0.0, SVG Export Plug-In . SVG Version: 6.00 Build 0)  -->
<!DOCTYPE svg PUBLIC "-//W3C//DTD SVG 1.1//EN" "http://www.w3.org/Graphics/SVG/1.1/DTD/svg11.dtd">
<svg version="1.1" id="Layer_1" xmlns="http://www.w3.org/2000/svg" xmlns:xlink="http://www.w3.org/1999/xlink" x="0px" y="0px"
	 viewBox="0 0 650 550" enable-background="new 0 0 650 550" xml:space="preserve">
<path opacity="0.2" fill="#FFFFFF" d="M183.9,550c-2.6-4-4.7-7.1-6-11.2L93.6,280.3c-5.6-17.3,3.7-35.9,20.9-41.6l256.8-84.9
	c17.2-5.7,35.7,3.7,41.3,21l84.3,258.3c5.6,17.3-3.7,36.2-20.9,41.8l-226.2,75h376.4c22.1-29,30.2-67.5,18.1-104.5L524.1,77.3
	c-19.2-58.9-82.3-91-140.8-71.7L17.5,126.4c-6.1,2-12.5,4.5-17.5,7.5v298.6L38,550H183.9z"/>
</svg>
