<?xml version="1.0" encoding="utf-8"?>
<!-- Generator: Adobe Illustrator 18.0.0, SVG Export Plug-In . SVG Version: 6.00 Build 0)  -->
<!DOCTYPE svg PUBLIC "-//W3C//DTD SVG 1.1//EN" "http://www.w3.org/Graphics/SVG/1.1/DTD/svg11.dtd">
<svg version="1.1" id="Layer_1" xmlns="http://www.w3.org/2000/svg" xmlns:xlink="http://www.w3.org/1999/xlink" x="0px" y="0px"
	 viewBox="0 0 300 150" enable-background="new 0 0 300 150" xml:space="preserve">
<g>
	<rect fill="#FFFFFF" width="300" height="150"/>
	<g>
		<path fill="#FF0000" d="M69.1,64.5c0-4.5,2.4-13.3,12.9-13.3S96,58.9,96,65S94,75.1,92.4,77.9c-1.6,2.8-7.5,9.4-8.7,10.6
			c0.3-3.9-0.5-7.7-2.4-9.3c-1.8-1.5-6.3-4.4-8-6.4C71.6,70.9,69.1,68.7,69.1,64.5z"/>
		<path fill="#B1B836" d="M59.6,48.3c-1.8,2-5.8,6.4-5.8,14.9s6.2,11.5,7.4,12.4c1.2,0.9,10.9,6.8,10.9,16.1s-7.7,14.4-8.8,14.9
			c-5.9-3.2-13.3-6.7-22.4-16.2S27.5,73.5,27.5,65.4s3.3-13.5,7.1-16.7c3.8-3.2,8.8-4.5,13.7-4.5S57.6,46.4,59.6,48.3z"/>
		<path fill="#FF0000" d="M132.8,69.8l5.1-5.3c-2.6-2.5-5.3-5.6-11.9-5.6c-6.5,0-11.5,4.3-12.3,7.7c-0.7,3.4-0.9,7.3,2.2,9.6
			c3.1,2.3,6.1,3.2,6.9,3.5c0.8,0.3,2.8,1.6,2.7,3.1c-0.1,1.5-1.4,3.7-4.3,3.2c-2.9-0.5-6.3-2-7.6-3.2c-1.4,1.8-4.2,6.6-4.2,6.6
			c2.4,1.4,5.5,3.9,11.5,3.9c6,0,8.6-1.9,10.4-3.3c1.7-1.4,3.6-3.9,3.6-7.6s-1.5-5.7-4.2-7.4c-3.1-1.9-6.6-3-7.4-3.4
			c-0.7-0.4-1.6-1.7-1.4-3.1c0.2-1.3,1.5-2.5,4-2.5S131.1,67.1,132.8,69.8z"/>
		<polygon fill="#FF0000" points="186.3,67 194,67 190.2,92 181.5,92 		"/>
		<path fill="#FF0000" d="M195.4,60.8c-0.8,2.6-3.2,4.7-5.5,4.7c-2.2,0-3.4-2.2-2.7-4.8c0.8-2.6,3.2-4.7,5.5-4.7
			S196.1,58.1,195.4,60.8z"/>
		<path fill="#FF0000" d="M151.9,66.5c1.7,0,4.9,0.7,7,2.7c0.9,0.8,1.9,2.2,2.3,4.1c0.3,1.5,0,4.3-0.2,5.5c-1,4.7-1.1,6.1-3.5,10.3
			c-2,3.6-6,4.4-10.4,4.4c-4.5,0-7.7-2.7-8.8-5.2c-1.1-2.6-0.8-6.4-0.3-10s3-7.6,4.8-9.3C145.2,66.7,149,66.2,151.9,66.5z
			 M147.9,73.3c-0.7,0.7-1.5,2.8-2.1,5.1s-0.3,3.6-0.5,5.9c-0.2,2.2,1.4,3,3.1,3c1.8,0,2.7-0.6,3.4-2.8c0.7-2.2,1-3.9,1.5-7.7
			c0.5-3.7-1-4.1-2.6-4.1C149.8,72.6,148.6,72.6,147.9,73.3z"/>
		<path fill="#FF0000" d="M166.7,67h6.5l-0.3,3.7c0,0,1.3-2,2.7-3.1c1.5-1.1,6.1-0.6,7.7-0.3l-1.8,7.1c0,0-6.3-2.5-7.4,0.6
			c-1.1,3-3.2,17-3.2,17h-7.9L166.7,67z"/>
		<path fill="#FF0000" d="M195.8,80.3c0.5-5,2.9-8.2,4.2-9.5c1.3-1.3,2.8-2.2,4.9-3.1c1.1-0.5,4-1.2,6.1-1.2s6.3,0.3,8.7,1
			c-0.6,3-2.5,22.1-3.2,25.1c-2.4,0-6.5,0-6.5,0l0.4-2.7c-0.9,0.9-2.6,3.3-7.5,3.3c-4.9,0-6.8-4.4-7.1-6.2
			C195.6,85.5,195.6,82.8,195.8,80.3z M206,73.6c-0.9,0.8-2,3.2-2.6,5.8c-0.5,2.5-0.5,4.5,0,6.3c0.5,1.8,3.3,2.5,5.2,1.5
			s2.2-3.9,2.2-3.9l0.9-11.1C208.9,71.7,206.9,72.8,206,73.6z"/>
		<path fill="#FF0000" d="M248.7,80.3c0.5-5,2.9-8.2,4.2-9.5c1.3-1.3,2.8-2.2,4.9-3.1c1.1-0.5,4-1.2,6.1-1.2s6.3,0.3,8.7,1
			c-0.6,3-2.5,22.1-3.2,25.1c-2.4,0-6.5,0-6.5,0l0.4-2.7c-0.9,0.9-2.6,3.3-7.5,3.3s-6.8-4.4-7.1-6.2
			C248.5,85.5,248.6,82.8,248.7,80.3z M258.9,73.6c-0.9,0.8-2,3.2-2.6,5.8c-0.5,2.5-0.5,4.5,0,6.3c0.5,1.8,3.3,2.5,5.2,1.5
			c1.8-1,2.2-3.9,2.2-3.9l0.9-11.1C261.8,71.7,259.9,72.8,258.9,73.6z"/>
		<path fill="#FF0000" d="M225.5,68h6.5l-0.2,2.4c1.3-1.2,3.4-3.7,8-3.7c4.6,0,5.3,1.2,5.9,2.1s-0.1,5.8-0.3,7.2s-2.2,16-2.2,16
			h-8.1l2.4-15c0,0,1-4.7-1.2-4.8c-2.2-0.2-3.9,1.7-4.3,4.3c-0.5,2.6-2.4,15.6-2.4,15.6H222C222,92,225.3,73,225.5,68z"/>
	</g>
</g>
</svg>
