<?xml version="1.0" encoding="utf-8"?>
<!-- Generator: Adobe Illustrator 18.0.0, SVG Export Plug-In . SVG Version: 6.00 Build 0)  -->
<!DOCTYPE svg PUBLIC "-//W3C//DTD SVG 1.1//EN" "http://www.w3.org/Graphics/SVG/1.1/DTD/svg11.dtd">
<svg version="1.1" id="Layer_1" xmlns="http://www.w3.org/2000/svg" xmlns:xlink="http://www.w3.org/1999/xlink" x="0px" y="0px"
	 viewBox="0 0 30 30" enable-background="new 0 0 30 30" xml:space="preserve">
<path fill="#3E4543" d="M30,22.3c0,4.1-3.6,7.7-7.8,7.7h-15C3.1,30,0,26.5,0,22.3v-15C0,3.2,3.1,0,7.3,0h15C26.4,0,30,3.2,30,7.4
	V22.3z M23.6,7.7c-0.7,0.4-1.6,0.7-2.4,0.9c-0.7-0.7-1.7-1.2-2.8-1.2c-2.1,0-3.8,1.7-3.8,3.8c0,0.3,0,0.6,0.1,0.9
	c-3.2-0.2-6-1.7-7.9-3.9C6.4,8.6,6.2,9.3,6.2,10c0,1.3,0.6,2.5,1.6,3.1c-0.6,0-0.8-0.2-1.8-0.5c0,0,0,0,0,0c0,1.8,1.4,3.4,3.2,3.7
	c-0.3,0.1-0.6,0.1-1,0.1c-0.2,0-0.5,0-0.7-0.1c0.5,1.5,1.9,2.6,3.6,2.6c-1.3,1-3,1.6-4.8,1.6c-0.3,0-0.6,0-0.9-0.1
	c1.7,1.1,3.7,1.7,5.9,1.7c7.1,0,10.9-5.8,10.9-10.7c0-0.2,0-0.3,0-0.5c0.7-0.5,1.4-1.2,1.9-2c-0.7,0.3-1.4,0.5-2.2,0.6
	C22.7,9.3,23.3,8.5,23.6,7.7z"/>
</svg>
