<?xml version="1.0" encoding="utf-8"?>
<!-- Generator: Adobe Illustrator 18.0.0, SVG Export Plug-In . SVG Version: 6.00 Build 0)  -->
<!DOCTYPE svg PUBLIC "-//W3C//DTD SVG 1.1//EN" "http://www.w3.org/Graphics/SVG/1.1/DTD/svg11.dtd">
<svg version="1.1" id="Layer_1" xmlns="http://www.w3.org/2000/svg" xmlns:xlink="http://www.w3.org/1999/xlink" x="0px" y="0px"
	 viewBox="0 0 300 150" enable-background="new 0 0 300 150" xml:space="preserve">
<rect fill="#FFFFFF" width="300" height="150"/>
<g>
	<g>
		<defs>
			<rect id="SVGID_1_" x="46.2" y="30" width="207.5" height="90"/>
		</defs>
		<clipPath id="SVGID_2_">
			<use xlink:href="#SVGID_1_"  overflow="visible"/>
		</clipPath>
		<path clip-path="url(#SVGID_2_)" fill="#130C15" d="M57.9,114.3l4.8-13c0.3-0.9-0.1-1.5-1.7-1.7v-1.2h7.1v1.2
			c-1.3,0.1-2.3,0.3-2.9,1.8L58.2,120h-1.6l-7.9-18.7c-0.7-1.6-1.9-1.7-2.5-1.7v-1.2h8.2v1.2c-1.3,0.2-1.7,1-1.5,1.5L57.9,114.3
			L57.9,114.3z M77.5,116.7c0,0.7,0.3,1,1,1.3c0.4,0.2,1,0.3,1.4,0.4v1.1h-8.5v-1.1c0.3-0.1,1.2-0.3,1.5-0.5
			c0.5-0.3,0.9-0.6,0.9-1.3v-15.3c0-1.2-1.4-1.6-2.4-1.7v-1.1h8.5v1.1c-1.2,0.2-2.4,0.5-2.4,1.8V116.7L77.5,116.7z M99.7,98.5
			l0.1,5.9h-1.1c-0.3-1.2-0.6-2.1-1.1-2.8c-0.7-1-1.8-1.4-3.5-1.4c-5.4,0-5.9,5.4-5.9,8.8c0,3.5,0.6,9,6.3,8.9c1.7-0.1,4.3-1,6-3.3
			l0.2-0.2l1.2,0.9l-0.1,0.1c-2,3.5-5.7,4.7-8.1,4.7c-6.7,0-10.1-5.9-10.1-10.9c0-4,2.5-11,8.9-11c2.5,0,4.3,0.6,5.9,1.4l0.2-1H99.7
			L99.7,98.5z M113.8,100.7v15.8c0,0.7,0.5,1.3,1.3,1.6c0.4,0.2,0.9,0.2,1.4,0.3v1.1h-8.8v-1.1c0.5-0.1,0.9-0.1,1.6-0.3
			c0.6-0.2,1.2-0.8,1.2-1.6l-0.1-15.7h-2.8c-1.7,0-2.2,0.7-2.5,1.4c-0.2,0.6-0.3,1.3-0.3,1.9l-1.2-0.1v-5.5h17v5.6h-1.3
			c-0.1-0.9-0.2-1.6-0.5-2.2c-0.4-0.8-1-1.2-1.8-1.2H113.8L113.8,100.7z M143.2,109.2c-0.1,5.5-3.8,10.8-9.8,10.8
			c-6.1,0-10-4.8-10.1-10.9c-0.1-5.7,3.8-11.1,10.1-11.1C139.5,98,143.3,103.5,143.2,109.2 M127.7,108.8c-0.1,4.3,1.3,9,5.6,9
			c4.4,0,5.5-4.8,5.4-9.1c-0.1-4.2-0.8-8.6-5.4-8.6C128.5,100.1,127.8,104.6,127.7,108.8 M167.1,119.5H162l-4.6-7.9h-3.6v5
			c0,0.8,0.6,1.6,2.6,1.8l0.1,1.1h-8.9v-1.2c0.6,0,1.1-0.1,1.6-0.3c0.5-0.2,1-0.8,1-1.4v-14.9c0-1.4-1.4-1.9-2.9-2.1v-1.1h10.1
			c3.5,0,7.8,2.4,7.8,6.4c0,2.1-0.9,5.1-4.3,6.2l3.5,5.7c0.6,0.9,1.3,1.6,2.7,1.7L167.1,119.5L167.1,119.5z M156,100.6
			c-0.2,0-1,0.1-2.2,0.2v8.9h3.6c2.7-0.2,3.7-1.6,3.7-4.7C161.2,101.1,158.8,100.6,156,100.6 M177.5,116.7c0,0.7,0.3,1,1,1.3
			c0.4,0.2,1,0.3,1.4,0.4v1.1h-8.5v-1.1c0.3-0.1,1.2-0.3,1.5-0.5c0.5-0.3,0.9-0.6,0.9-1.3v-15.3c0-1.2-1.4-1.6-2.4-1.7v-1.1h8.5v1.1
			c-1.2,0.2-2.4,0.5-2.4,1.8V116.7L177.5,116.7z M204.3,119.5h-0.8L190.2,104v12.6c0,0.5,0.3,1,0.9,1.4c0.6,0.3,1,0.3,1.6,0.4v1.1
			h-7.1v-1.1c0.3-0.1,0.8-0.1,1.2-0.3c0.7-0.2,1.2-0.7,1.2-1.5v-15c-0.5-1-1.7-2-3-2v-1.1h5.5l11.6,13.8v-10.9
			c0-1.2-1.4-1.8-2.4-1.8v-1.1h7.1v1.1c-1.2,0.1-2.5,0.5-2.5,1.7V119.5L204.3,119.5z M230.5,109.1c-0.1,5.5-3.8,10.8-9.8,10.8
			c-6,0-10-4.8-10.1-10.9c-0.1-5.7,3.9-11.1,10.1-11.1C226.8,97.9,230.6,103.4,230.5,109.1 M215,108.8c-0.1,4.3,1.3,9,5.6,9
			c4.4,0,5.5-4.8,5.4-9.1c-0.1-4.2-0.9-8.6-5.4-8.6C215.8,100,215,104.5,215,108.8 M245.1,108l5.4,8.1c0.5,0.8,1.2,1.3,1.7,1.7
			c0.3,0.2,1,0.6,1.6,0.6v1.1h-9v-1.1c0.1,0,0.9-0.1,1.4-0.3c0.5-0.2,0.7-0.9,0.2-1.4l-3.6-5.5l-4.1,5.6c-0.7,0.9-0.1,1.6,0.9,1.7
			v1.1h-6.7v-1.2c1.6-0.2,2.1-0.9,2.8-1.8l5.6-7.6l-5-7.4c-0.8-1.2-2.1-2-3.3-2v-1.1h9.2v1.1c-1,0.1-2.5,0.5-1.8,1.7l3.2,4.7
			l3.6-4.7c0.7-0.9,0.2-1.6-1-1.7v-1.1h6.7v1.1c-1.1,0.1-1.7,0.5-2.3,1.2L245.1,108"/>
		<path clip-path="url(#SVGID_2_)" fill="#FFFFFF" d="M132.7,53.6c0-5.7-1-11.1-2.6-16.3l0-0.1c1.3-0.6,4-2,6.7-3.5
			c2.9-1.6,6.2-3.1,7.8-3.4c2.1-0.4,4.1,0.2,5.3,2c1.2-1.8,3.2-2.5,5.3-2c1.6,0.3,4.9,1.8,7.8,3.4c2.7,1.5,5.4,2.8,6.7,3.5l0,0.1
			c-1.6,5.1-2.6,10.6-2.6,16.3c0,5.4,1,10.6,2.6,15.6l0,0.1c-9,3.4-14.5,7.6-19.7,13H150c-5.2-5.4-10.7-9.6-19.8-13l0-0.1
			C131.7,64.2,132.7,59,132.7,53.6"/>
		<path clip-path="url(#SVGID_2_)" fill="none" stroke="#AE1E3C" stroke-width="0.424" stroke-miterlimit="3.864" d="M132.7,53.6
			c0-5.7-1-11.1-2.6-16.3l0-0.1c1.3-0.6,4-2,6.7-3.5c2.9-1.6,6.2-3.1,7.8-3.4c2.1-0.4,4.1,0.2,5.3,2c1.2-1.8,3.2-2.5,5.3-2
			c1.6,0.3,4.9,1.8,7.8,3.4c2.7,1.5,5.4,2.8,6.7,3.5l0,0.1c-1.6,5.1-2.6,10.6-2.6,16.3c0,5.4,1,10.6,2.6,15.6l0,0.1
			c-9,3.4-14.5,7.6-19.7,13H150c-5.2-5.4-10.7-9.6-19.8-13l0-0.1C131.7,64.2,132.7,59,132.7,53.6L132.7,53.6z"/>
	</g>
	<path fill="#AE1E3C" d="M160.5,36.4c-2.3-1.1-4.6-2.2-5.9-2.5c-2.4-0.5-4.2,1.4-4.5,2.6l-0.1,0.2l-0.1-0.2
		c-0.3-1.2-2.1-3.1-4.5-2.6c-1.3,0.3-3.6,1.3-5.9,2.5c-2.2,1.1-4.4,2.3-5.4,2.7c1.3,4.3,2,8.7,2,13.5h3.2v-2.4h7.3v-7.3h6.4v7.3h7.3
		v2.4h3.4c0-4.7,0.7-9.2,2-13.5C164.9,38.7,162.7,37.5,160.5,36.4"/>
	<path fill="#AE1E3C" d="M150,77.4c4.4-4.1,9.9-8.2,15.8-10.2c-0.6-2.1-1.2-4.9-1.5-7.7c-0.3-2.6-0.4-5-0.4-5.3h-3.4v2.4h-7.3v7.3
		h-6.4v-7.3h-7.3v-2.4h-3.2c-0.1,4.4-0.8,9.2-2,13.1C140.2,69.3,145.6,73.3,150,77.4"/>
</g>
</svg>
